<svg width="20" height="20" viewBox="0 0 20 20" fill="none" xmlns="http://www.w3.org/2000/svg">
<g clip-path="url(#clip0_238_18645)">
<path d="M19.666 7.67727L10.5 1.0111C10.1667 0.761113 9.83335 0.761113 9.50005 1.0111L0.334014 7.67727C-0.332619 8.09392 0.0840311 9.17716 0.833978 9.17716H2.50054V18.3432C2.50054 18.8432 2.83384 19.1765 3.3338 19.1765H16.6662C17.1661 19.1765 17.4994 18.8432 17.4994 18.3432V9.17716H19.166C19.916 9.17716 20.3326 8.09392 19.666 7.67727ZM10 17.5099C7.25021 17.5099 5.00037 15.2601 5.00037 12.5103C5.00037 9.76048 7.25021 7.51064 10 7.51064C12.7498 7.51064 14.9997 9.76048 14.9997 12.5103C14.9997 15.2601 12.7498 17.5099 10 17.5099Z" fill="#242B37" fill-opacity="0.7"/>
<path d="M11.2496 11.2603V8.7605H8.74982V11.2603H6.25V13.7601H8.74982V16.26H11.2496V13.7601H13.7495V11.2603H11.2496Z" fill="#242B37" fill-opacity="0.7"/>
</g>
<defs>
<clipPath id="clip0_238_18645">
<rect width="20" height="20" fill="white"/>
</clipPath>
</defs>
</svg>
