<svg width="64" height="64" viewBox="0 0 64 64" fill="none" xmlns="http://www.w3.org/2000/svg">
<g clip-path="url(#clip0_238_19857)">
<path d="M62.065 16.2325C60.3862 10.0475 53.9538 3.61625 47.7687 1.93625C43.9762 0.99 38.8962 0.01625 32 0C25.1038 0.0175 20.0238 0.99 16.2313 1.93625C10.0475 3.61625 3.615 10.0475 1.935 16.2325C0.99 20.0238 0.01625 25.105 0 32C0.0175 38.8962 0.99 43.9762 1.93625 47.7687C3.61625 53.9538 10.0475 60.385 16.2325 62.065C20.025 63.0112 25.105 63.9837 32.0013 64.0013C38.8963 63.9837 43.9775 63.0112 47.77 62.065C53.955 60.385 60.3862 53.9538 62.0662 47.7687C63.0125 43.9775 63.985 38.8962 64.0025 32C63.985 25.1038 63.0125 20.0238 62.0662 16.2313L62.065 16.2325Z" fill="#DFF8FF"/>
<path d="M45.91 18.0907C43.9973 16.1785 41.4539 15.1255 38.7502 15.1255C36.0454 15.1255 33.5031 16.1785 31.5904 18.0907L18.0904 31.5907C14.143 35.5381 14.143 41.9618 18.0904 45.9092C20.0031 47.8219 22.5454 48.8749 25.2502 48.8749C27.955 48.8749 30.4973 47.8219 32.41 45.9092L45.91 32.4097C49.8574 28.4623 49.8574 22.0386 45.91 18.0907Z" fill="url(#paint0_linear_238_19857)"/>
<path d="M45.9167 32.4164L39.1667 39.1664L24.834 24.8336L31.584 18.0836C33.5077 16.1714 36.0499 15.125 38.7504 15.125C41.4508 15.125 43.993 16.1714 45.9167 18.0836C49.8542 22.0327 49.8542 28.4673 45.9167 32.4164Z" fill="url(#paint1_linear_238_19857)"/>
<path d="M41.9329 23.1938C41.645 23.1938 41.3572 23.084 41.1375 22.8643C39.8608 21.5887 37.6372 21.5887 36.3628 22.8643C35.9233 23.3026 35.2114 23.3032 34.772 22.8637C34.3325 22.4243 34.3325 21.7118 34.772 21.2723C35.8354 20.2105 37.2472 19.6255 38.7501 19.6255C40.2531 19.6255 41.6659 20.2105 42.7283 21.2734C43.1677 21.7129 43.1677 22.4248 42.7283 22.8643C42.5085 23.084 42.2207 23.1938 41.9329 23.1938Z" fill="url(#paint2_linear_238_19857)"/>
</g>
<defs>
<linearGradient id="paint0_linear_238_19857" x1="47.1296" y1="44.8532" x2="21.7585" y2="14.9951" gradientUnits="userSpaceOnUse">
<stop stop-color="#1EB4EB"/>
<stop offset="0.54" stop-color="#1EB4EB"/>
<stop offset="1" stop-color="#92F4FE"/>
</linearGradient>
<linearGradient id="paint1_linear_238_19857" x1="24.8341" y1="27.1456" x2="48.8697" y2="27.1456" gradientUnits="userSpaceOnUse">
<stop stop-color="#BBDEFB"/>
<stop offset="1" stop-color="#64B5F6"/>
</linearGradient>
<linearGradient id="paint2_linear_238_19857" x1="34.4425" y1="21.4092" x2="43.0577" y2="21.4092" gradientUnits="userSpaceOnUse">
<stop stop-color="#42A5F5"/>
<stop offset="1" stop-color="#1E88E5"/>
</linearGradient>
<clipPath id="clip0_238_19857">
<rect width="64" height="64" fill="white"/>
</clipPath>
</defs>
</svg>
