<svg width="64" height="64" viewBox="0 0 64 64" fill="none" xmlns="http://www.w3.org/2000/svg">
<g clip-path="url(#clip0_238_19872)">
<path d="M62.065 16.2325C60.3862 10.0475 53.9538 3.61625 47.7687 1.93625C43.9762 0.99 38.8962 0.01625 32 0C25.1038 0.0175 20.0238 0.99 16.2313 1.93625C10.0475 3.61625 3.615 10.0475 1.935 16.2325C0.99 20.0238 0.01625 25.105 0 32C0.0175 38.8962 0.99 43.9762 1.93625 47.7687C3.61625 53.9538 10.0475 60.385 16.2325 62.065C20.025 63.0112 25.105 63.9837 32.0013 64.0013C38.8963 63.9837 43.9775 63.0112 47.77 62.065C53.955 60.385 60.3862 53.9538 62.0662 47.7687C63.0125 43.9775 63.985 38.8962 64.0025 32C63.985 25.1038 63.0125 20.0238 62.0662 16.2313L62.065 16.2325Z" fill="#DFF8FF"/>
<g clip-path="url(#clip1_238_19872)">
<path d="M32.0002 13.95C22.03 13.95 13.9502 22.0297 13.9502 32C13.9502 41.9702 22.03 50.0499 32.0002 50.0499C41.9657 50.0404 50.0407 41.9654 50.0502 32C50.0502 22.0297 41.9704 13.95 32.0002 13.95ZM22.543 43.6279C21.3412 44.5494 20.6145 44.5067 20.0539 43.9462C19.4934 43.3857 19.4507 42.659 20.3722 41.4572C22.5002 38.6879 25.0557 36.5362 27.5115 34.5032C28.3664 34.9924 29.288 35.3534 30.2475 35.5814C27.9912 38.3032 25.6542 41.234 22.543 43.6279ZM42.8112 43.3572C42.4502 43.6564 41.9752 43.7895 41.5097 43.7182C39.3199 43.4379 36.5887 39.3292 34.1567 35.9424C33.1022 34.47 32.7412 33.7337 31.4017 33.691C29.6442 33.6387 25.8917 31.9145 22.5524 27.0457C20.4244 23.9487 20.7855 21.5879 20.8947 20.9704C21.0372 20.1487 21.5454 20.125 21.9255 20.5049L42.2934 40.8729C43.443 42.0224 43.3527 42.8157 42.8112 43.3572ZM44.2172 24.134L41.9562 26.8177C39.6002 29.6202 38.3984 30.518 36.546 30.6462C36.0852 30.6747 35.6292 30.7555 35.1874 30.8979L33.1022 28.8079C33.2399 28.3709 33.3255 27.9149 33.3539 27.4542C33.4822 25.6017 34.3799 24.4 37.1824 22.0439L39.8662 19.7829C39.8757 19.7687 39.8899 19.7592 39.9042 19.7497C40.1037 19.5882 40.3934 19.6215 40.5549 19.8209C40.7117 20.0204 40.6832 20.3102 40.4837 20.4717L36.0234 24.9319C35.9285 24.9747 35.8524 25.0507 35.8097 25.1457C35.7052 25.3642 35.8002 25.6302 36.0234 25.7347C36.2467 25.8392 36.5079 25.7395 36.6124 25.5209L41.0727 21.0607C41.0965 21.0322 41.1249 21.0037 41.1535 20.9799C41.3529 20.8232 41.638 20.8612 41.7947 21.0607C41.9467 21.2602 41.9087 21.5452 41.7092 21.6972L37.2537 26.1575C37.1587 26.2002 37.0827 26.2762 37.0399 26.3712C36.9355 26.5944 37.0305 26.8557 37.2537 26.9602C37.4722 27.0647 37.7382 26.9697 37.8427 26.7465L42.3029 22.2909C42.3267 22.2577 42.3505 22.2292 42.3837 22.2055C42.5832 22.0534 42.8682 22.0915 43.0202 22.2909C43.177 22.4857 43.1389 22.7754 42.9395 22.9274L38.4792 27.3877C38.3842 27.4305 38.313 27.5064 38.2654 27.6014C38.1609 27.82 38.2607 28.086 38.4792 28.1904C38.7024 28.295 38.9637 28.2 39.0682 27.9767L43.5285 23.5165C43.7042 23.3169 44.0082 23.2979 44.2124 23.4737C44.3882 23.659 44.393 23.9487 44.2172 24.134Z" fill="url(#paint0_linear_238_19872)"/>
</g>
</g>
<defs>
<linearGradient id="paint0_linear_238_19872" x1="48.1875" y1="45.7481" x2="21.0506" y2="13.8035" gradientUnits="userSpaceOnUse">
<stop stop-color="#1EB4EB"/>
<stop offset="0.54" stop-color="#1EB4EB"/>
<stop offset="1" stop-color="#92F4FE"/>
</linearGradient>
<clipPath id="clip0_238_19872">
<rect width="64" height="64" fill="white"/>
</clipPath>
<clipPath id="clip1_238_19872">
<rect width="38" height="38" fill="white" transform="translate(13 13)"/>
</clipPath>
</defs>
</svg>
