<svg width="42" height="42" viewBox="0 0 42 42" fill="none" xmlns="http://www.w3.org/2000/svg">
<path d="M38.0625 28.875H36.8813V20.8687C36.8813 20.6062 36.8812 20.3437 36.75 20.2125L32.8125 13.5188C32.55 13.125 32.1562 12.8625 31.6313 12.8625H28.875V7.875C28.875 7.0875 28.35 6.5625 27.5625 6.5625H3.9375C3.15 6.5625 2.625 7.21875 2.625 7.875V30.1875C2.625 30.975 3.15 31.5 3.9375 31.5H6.69375C6.95625 33.7313 8.925 35.4375 11.1562 35.4375C13.5188 35.4375 15.4875 33.6 15.6187 31.5H26.25C26.5125 33.7313 28.4812 35.4375 30.7125 35.4375C32.9438 35.4375 34.9125 33.7313 35.175 31.5H38.0625C38.85 31.5 39.375 30.975 39.375 30.1875C39.375 29.4 38.85 28.875 38.0625 28.875ZM11.1562 32.8125C10.1062 32.8125 9.1875 31.8937 9.1875 30.8438C9.1875 29.7938 10.1062 28.875 11.1562 28.875C12.2063 28.875 13.125 29.7938 13.125 30.8438C13.125 31.8937 12.3375 32.8125 11.1562 32.8125ZM26.25 28.875H15.225C14.8313 28.0875 13.65 26.3813 11.025 26.3813C9.45 26.3813 7.875 27.3 7.0875 28.875H5.25V9.1875H26.25V28.875ZM28.875 15.4875H30.8438L33.9937 20.8687H28.875V15.4875ZM30.7125 32.8125C29.6625 32.8125 28.7437 31.8937 28.7437 30.8438C28.7437 29.7938 29.6625 28.875 30.7125 28.875C31.7625 28.875 32.6812 29.7938 32.6812 30.8438C32.6812 31.8937 31.7625 32.8125 30.7125 32.8125ZM34.2563 27.9562C33.7313 27.0375 32.2875 26.25 30.975 26.25C29.925 26.25 29.4 26.5125 28.875 26.775V23.4937H34.2563V27.9562Z" fill="#013A68"/>
<path d="M12.3379 19.1625H14.4379V21.2625C14.4379 22.05 14.9629 22.575 15.7504 22.575C16.5379 22.575 17.0629 22.05 17.0629 21.2625V19.1625H19.0316C19.8191 19.1625 20.3441 18.6375 20.3441 17.85C20.3441 17.0625 19.8191 16.5375 19.0316 16.5375H16.9316V14.4375C16.9316 13.65 16.4066 13.125 15.6191 13.125C14.8316 13.125 14.3066 13.65 14.3066 14.4375V16.5375H12.3379C11.5504 16.5375 11.0254 17.0625 11.0254 17.85C11.0254 18.6375 11.6816 19.1625 12.3379 19.1625Z" fill="#29ABE2"/>
</svg>
