<svg width="48" height="48" viewBox="0 0 48 48" fill="none" xmlns="http://www.w3.org/2000/svg">
<path d="M45.0001 18.1776C45.0091 20.5076 44.475 22.8077 43.4403 24.8953C42.4056 26.983 40.8987 28.8008 39.0391 30.2046C38.8807 30.3213 38.6829 30.371 38.4882 30.3431C38.2935 30.3151 38.1176 30.2117 37.9985 30.0552C37.8794 29.8987 37.8266 29.7016 37.8516 29.5065C37.8765 29.3114 37.9772 29.1339 38.1319 29.0124C48.46 21.1736 42.8149 4.53539 29.8537 4.53121C27.75 4.52219 25.6732 5.00413 23.7884 5.93871C21.9037 6.87329 20.2629 8.23473 18.9967 9.91476C18.8744 10.0681 18.697 10.1677 18.5024 10.1921C18.3077 10.2166 18.1112 10.164 17.9548 10.0457C17.7983 9.92737 17.6942 9.75259 17.6648 9.55864C17.6353 9.36469 17.6828 9.1669 17.7971 9.00744C26.4952 -2.47194 44.9911 3.77244 45.0001 18.1776Z" fill="#242B37" fill-opacity="0.9"/>
<path d="M39.7738 36.6755C39.6356 40.416 40.8734 45.374 35.1174 44.9158C18.1158 45.2446 2.38567 28.5159 3.01846 11.9391C3.2326 7.59357 7.23151 8.24845 9.85639 8.22771C11.7782 8.35752 13.8549 7.72546 15.525 9.21749C17.141 10.8247 16.4747 12.9959 16.8972 14.8635C17.1207 17.0035 18.6688 19.1718 16.9196 21.3194C16.0265 22.5017 15.0328 23.7457 14.1903 24.9334C16.1955 28.7092 19.2848 31.7985 23.0606 33.8037C24.3102 32.91 25.4718 31.9915 26.6897 31.0595C27.4126 30.4617 28.3422 30.1734 29.2765 30.2572C30.6859 30.4286 32.0197 31.0087 33.378 31.1269C33.9341 31.2334 34.4988 31.2886 35.065 31.2919C38.6926 31.1649 40.1025 33.2247 39.7738 36.6755Z" fill="#242B37" fill-opacity="0.9"/>
<path d="M32.7254 12.8615V15.2984H35.1623C35.643 15.3001 36.1036 15.4918 36.4435 15.8317C36.7835 16.1716 36.9752 16.6322 36.9768 17.1129V19.2349C36.9764 19.716 36.7851 20.1773 36.4449 20.5175C36.1047 20.8577 35.6434 21.049 35.1623 21.0494H32.7254V23.4863C32.725 23.9674 32.5337 24.4287 32.1935 24.7689C31.8533 25.1091 31.392 25.3004 30.9109 25.3008H28.7889C28.3082 25.2992 27.8476 25.1075 27.5077 24.7675C27.1678 24.4276 26.976 23.967 26.9744 23.4863V21.0494H24.5375C24.2997 21.0491 24.0643 21.0019 23.8447 20.9104C23.6251 20.819 23.4257 20.6853 23.2579 20.5167C23.09 20.3482 22.9571 20.1483 22.8666 19.9283C22.7761 19.7084 22.7298 19.4727 22.7305 19.2349V17.1129C22.7305 16.6329 22.9206 16.1725 23.2593 15.8325C23.598 15.4924 24.0576 15.3004 24.5375 15.2984H26.9744V12.8615C26.9764 12.3816 27.1684 11.9219 27.5085 11.5832C27.8486 11.2446 28.309 11.0544 28.789 11.0544H30.9109C31.1487 11.0538 31.3844 11.1001 31.6043 11.1906C31.8243 11.281 32.0242 11.414 32.1927 11.5818C32.3613 11.7497 32.4951 11.9491 32.5865 12.1687C32.6779 12.3882 32.7251 12.6237 32.7254 12.8615Z" fill="#29ABE2"/>
</svg>
