<svg width="16" height="16" viewBox="0 0 16 16" fill="none" xmlns="http://www.w3.org/2000/svg">
<path d="M3.33333 4.66663H4C4.73638 4.66663 5.33333 4.06967 5.33333 3.33329C5.33333 2.9651 5.63181 2.66663 6 2.66663H10C10.3682 2.66663 10.6667 2.9651 10.6667 3.33329C10.6667 4.06967 11.2636 4.66663 12 4.66663H12.6667C13.403 4.66663 14 5.26358 14 5.99996V12C14 12.7363 13.403 13.3333 12.6667 13.3333H3.33333C2.59695 13.3333 2 12.7363 2 12V5.99996C2 5.26358 2.59695 4.66663 3.33333 4.66663" stroke="#808390" stroke-width="1.5" stroke-linecap="round" stroke-linejoin="round"/>
<ellipse cx="8" cy="8.66663" rx="2" ry="2" stroke="#808390" stroke-width="1.5" stroke-linecap="round" stroke-linejoin="round"/>
</svg>
