<svg width="48" height="48" viewBox="0 0 48 48" fill="none" xmlns="http://www.w3.org/2000/svg">
<g clip-path="url(#clip0_238_18813)">
<path d="M43.8304 40.2086C46.5303 37.3077 48.0003 33.7318 48.0003 29.9999C48.0003 25.332 45.6873 21.1201 41.9944 18.1172C41.9194 28.8149 31.8637 37.4997 19.501 37.4997H11.1553C14.3892 42.8335 20.944 46.4994 28.5008 46.4994H46.5003C47.1063 46.4994 47.6553 46.1334 47.8863 45.5724C48.1173 45.0114 47.9883 44.3665 47.5623 43.9375L43.8304 40.2086Z" fill="#242B37" fill-opacity="0.9"/>
<path d="M19.5008 1.50073C8.7491 1.50073 0.0013355 8.90153 0.0013355 18.0003C0.0013355 21.7322 1.4713 25.3051 4.17122 28.209L0.439323 31.9409C0.0103352 32.3699 -0.118661 33.0149 0.115332 33.5759C0.346326 34.1338 0.895311 34.4998 1.50129 34.4998H19.5008C30.2525 34.4998 39.0003 27.099 39.0003 18.0003C39.0003 8.90153 30.2525 1.50073 19.5008 1.50073ZM22.5007 22.5002H10.501C9.67307 22.5002 9.00109 21.8282 9.00109 21.0002C9.00109 20.1722 9.67307 19.5002 10.501 19.5002H22.5007C23.3287 19.5002 24.0007 20.1722 24.0007 21.0002C24.0007 21.8282 23.3287 22.5002 22.5007 22.5002ZM28.5006 16.5003H10.501C9.67307 16.5003 9.00109 15.8283 9.00109 15.0004C9.00109 14.1724 9.67307 13.5004 10.501 13.5004H28.5006C29.3285 13.5004 30.0005 14.1724 30.0005 15.0004C30.0005 15.8283 29.3285 16.5003 28.5006 16.5003Z" fill="#29ABE2"/>
</g>
<defs>
<clipPath id="clip0_238_18813">
<rect width="48" height="48" fill="white"/>
</clipPath>
</defs>
</svg>
