<svg width="24" height="24" viewBox="0 0 24 24" fill="none" xmlns="http://www.w3.org/2000/svg">
<path d="M19.32 12.1368L20.4544 11.0024C22.515 8.94175 22.5153 5.60642 20.4544 3.54556C18.3938 1.48495 15.0584 1.48467 12.9976 3.54556C12.5577 3.98533 3.94452 12.5986 3.54558 12.9976C1.48492 15.0582 1.48469 18.3935 3.54558 20.4544C5.60616 22.515 8.94153 22.5153 11.0024 20.4544L12.1368 19.32C13.0437 20.9181 14.7609 21.9988 16.726 21.9988C19.6334 21.9988 21.9987 19.6334 21.9987 16.726C21.9987 14.7609 20.9181 13.0437 19.32 12.1368ZM11.4532 16.7259C11.4532 17.2195 11.5215 17.6974 11.6489 18.1508L10.1739 19.6258C8.57118 21.2285 5.97701 21.2287 4.37413 19.6258C2.77144 18.0232 2.77121 15.429 4.37413 13.8261L8.65009 9.55015L12.5763 13.4763C11.873 14.3725 11.4532 15.5011 11.4532 16.7259ZM16.1401 20.785C14.1553 20.4998 12.6249 18.7884 12.6249 16.7259C12.6249 14.6635 14.1553 12.952 16.1401 12.6669V20.785ZM13.3971 12.6401L9.4786 8.7216L13.8261 4.37412C15.4288 2.77147 18.0229 2.77123 19.6258 4.37412C21.2285 5.97677 21.2287 8.57097 19.6258 10.1739L18.1508 11.6489C17.6974 11.5215 17.2195 11.4531 16.726 11.4531C15.4646 11.4531 14.3055 11.8986 13.3971 12.6401ZM17.3118 20.785V12.6669C19.2966 12.9521 20.827 14.6635 20.827 16.726C20.827 18.7884 19.2966 20.4998 17.3118 20.785Z" fill="#29ABE2"/>
</svg>
