<svg width="48" height="48" viewBox="0 0 48 48" fill="none" xmlns="http://www.w3.org/2000/svg">
<g clip-path="url(#clip0_238_18836)">
<path d="M23.856 45.1819C18.1559 45.1819 13.5186 40.5446 13.5186 34.8445C13.5186 34.0679 12.8889 33.4382 12.1123 33.4382C11.3357 33.4382 10.7061 34.0679 10.7061 34.8445C10.7061 42.0954 16.6051 47.9944 23.856 47.9944C24.6326 47.9944 25.2622 47.3648 25.2622 46.5882C25.2622 45.8115 24.6326 45.1819 23.856 45.1819Z" fill="#29ABE2"/>
<path d="M23.8561 39.5569C21.2576 39.5569 19.1436 37.443 19.1436 34.8445C19.1436 34.0679 18.5139 33.4382 17.7373 33.4382C16.9607 33.4382 16.3311 34.0679 16.3311 34.8445C16.3311 38.9938 19.7068 42.3694 23.8561 42.3694C24.6327 42.3694 25.2623 41.7398 25.2623 40.9632C25.2623 40.1865 24.6327 39.5569 23.8561 39.5569Z" fill="#29ABE2"/>
<path d="M35.4213 13.7972C36.4617 13.7972 37.475 13.916 38.4482 14.1406V0.811279L21.9899 14.0939C21.2095 14.724 20.2272 15.0709 19.2241 15.0709C18.2211 15.0709 17.2387 14.7239 16.4583 14.0939L0 0.811279V22.903C0 23.7815 0.712219 24.4937 1.59066 24.4937H22.2495C23.5265 18.3932 28.947 13.7972 35.4213 13.7972Z" fill="#242B37" fill-opacity="0.9"/>
<path d="M35.4216 42.2161C37.3844 42.2161 38.986 40.645 39.0375 38.6943H31.8057C31.8572 40.645 33.4589 42.2161 35.4216 42.2161Z" fill="#29ABE2"/>
<path d="M46.594 33.0696C46.3029 33.0696 46.0659 32.8326 46.0659 32.5415V27.2542C46.0659 21.3849 41.2908 16.6099 35.4215 16.6099C29.5522 16.6099 24.7771 21.3849 24.7771 27.2542V32.5415C24.7771 32.8326 24.5402 33.0696 24.249 33.0696C23.4724 33.0696 22.8428 33.6992 22.8428 34.4758C22.8428 35.2524 23.4724 35.8821 24.249 35.8821H46.594C47.3706 35.8821 48.0002 35.2524 48.0002 34.4758C48.0002 33.6992 47.3706 33.0696 46.594 33.0696Z" fill="#29ABE2"/>
<path d="M19.2245 12.2586C19.5783 12.2586 19.9322 12.1409 20.2237 11.9056L34.9647 0.00561523H3.48438L18.2253 11.9056C18.5168 12.1409 18.8707 12.2586 19.2245 12.2586Z" fill="#242B37" fill-opacity="0.9"/>
</g>
<defs>
<clipPath id="clip0_238_18836">
<rect width="48" height="48" fill="white"/>
</clipPath>
</defs>
</svg>
