<svg width="61" height="60" viewBox="0 0 61 60" fill="none" xmlns="http://www.w3.org/2000/svg">
<rect x="0.5" width="60" height="60" rx="30" fill="#FFEDED"/>
<g clip-path="url(#clip0_238_18376)">
<path d="M43.5775 45.8395H17.4219C17.1274 45.8395 16.8887 45.6008 16.8887 45.3064V43.185C16.8887 42.8906 17.1274 42.6519 17.4219 42.6519H43.5775C43.872 42.6519 44.1107 42.8906 44.1107 43.185V45.3064C44.1108 45.6008 43.872 45.8395 43.5775 45.8395Z" fill="#595959"/>
<path d="M41.873 42.6519V45.8396H43.5776C43.872 45.8396 44.1107 45.6009 44.1107 45.3064V43.1851C44.1107 42.8906 43.872 42.6519 43.5776 42.6519H41.873V42.6519Z" fill="#454545"/>
<path d="M41.2989 39.3784H19.7011C19.4067 39.3784 19.168 39.6171 19.168 39.9116V42.6516H41.8322V39.9116C41.8321 39.6171 41.5934 39.3784 41.2989 39.3784Z" fill="#BEBEBE"/>
<path d="M39.5947 39.3784V42.6517H41.8324V39.9117C41.8324 39.6172 41.5937 39.3785 41.2992 39.3785H39.5947V39.3784Z" fill="#AAAAAA"/>
<path d="M40.1223 39.3785H20.877V25.6368C20.877 20.3223 25.1851 16.0142 30.4996 16.0142C35.814 16.0142 40.1222 20.3223 40.1222 25.6368V39.3785H40.1223Z" fill="#D82E3D"/>
<path d="M30.4997 16.0142C30.1212 16.0142 29.748 16.0367 29.3809 16.0793C34.1681 16.6337 37.8847 20.7009 37.8847 25.6368V39.3785H40.1224V25.6368C40.1224 20.3223 35.8142 16.0142 30.4997 16.0142Z" fill="#C32430"/>
<path d="M30.5004 31.0087C29.8732 31.0087 29.3466 30.5365 29.2787 29.9129L28.2665 20.6294C28.2254 20.252 28.521 19.9224 28.9007 19.9224H32.1001C32.4798 19.9224 32.7755 20.252 32.7343 20.6294L31.7222 29.913C31.6543 30.5365 31.1276 31.0087 30.5004 31.0087Z" fill="#F6F6F6"/>
<path d="M30.4999 35.4704C31.1951 35.4704 31.7587 34.9068 31.7587 34.2116C31.7587 33.5164 31.1951 32.9529 30.4999 32.9529C29.8048 32.9529 29.2412 33.5164 29.2412 34.2116C29.2412 34.9068 29.8048 35.4704 30.4999 35.4704Z" fill="#F6F6F6"/>
<path d="M18.64 28.2236H13.0273C12.7361 28.2236 12.5 27.9875 12.5 27.6963C12.5 27.4051 12.7361 27.1689 13.0273 27.1689H18.64C18.9312 27.1689 19.1673 27.4051 19.1673 27.6963C19.1673 27.9875 18.9312 28.2236 18.64 28.2236Z" fill="#D82E3D"/>
<path d="M20.5361 19.184C20.4012 19.184 20.2662 19.1326 20.1632 19.0296L16.1945 15.0608C15.9886 14.8549 15.9886 14.521 16.1945 14.3151C16.4004 14.1092 16.7344 14.1092 16.9402 14.3151L20.909 18.2838C21.1149 18.4898 21.1149 18.8237 20.909 19.0296C20.806 19.1326 20.671 19.184 20.5361 19.184Z" fill="#D82E3D"/>
<path d="M47.973 28.2236H42.3604C42.069 28.2236 41.833 27.9875 41.833 27.6963C41.833 27.4051 42.069 27.1689 42.3604 27.1689H47.973C48.2643 27.1689 48.5003 27.4051 48.5003 27.6963C48.5003 27.9875 48.2643 28.2236 47.973 28.2236Z" fill="#D82E3D"/>
<path d="M40.4639 19.184C40.329 19.184 40.194 19.1326 40.091 19.0296C39.885 18.8236 39.885 18.4897 40.091 18.2838L44.0597 14.3151C44.2657 14.1092 44.5996 14.1092 44.8055 14.3151C45.0115 14.521 45.0115 14.855 44.8055 15.0608L40.8368 19.0296C40.7338 19.1326 40.5988 19.184 40.4639 19.184Z" fill="#D82E3D"/>
</g>
<defs>
<clipPath id="clip0_238_18376">
<rect width="36" height="36" fill="white" transform="translate(12.5 12)"/>
</clipPath>
</defs>
</svg>
