<svg width="22" height="22" viewBox="0 0 22 22" fill="none" xmlns="http://www.w3.org/2000/svg">
<path d="M12.8335 2.75V6.41667C12.8335 6.92293 13.2439 7.33333 13.7502 7.33333H17.4168" stroke="#2F2B3D" stroke-opacity="0.9" stroke-width="1.5" stroke-linecap="round" stroke-linejoin="round"/>
<path fill-rule="evenodd" clip-rule="evenodd" d="M15.5835 19.25H6.41683C5.40431 19.25 4.5835 18.4292 4.5835 17.4167V4.58333C4.5835 3.57081 5.40431 2.75 6.41683 2.75H12.8335L17.4168 7.33333V17.4167C17.4168 18.4292 16.596 19.25 15.5835 19.25Z" stroke="#2F2B3D" stroke-opacity="0.9" stroke-width="1.5" stroke-linecap="round" stroke-linejoin="round"/>
<path d="M12.8332 10.0833H10.5415C9.78211 10.0833 9.1665 10.6989 9.1665 11.4583C9.1665 12.2176 9.78211 12.8333 10.5415 12.8333H11.4582C12.2176 12.8333 12.8332 13.4489 12.8332 14.2083C12.8332 14.9676 12.2176 15.5833 11.4582 15.5833H9.1665" stroke="#2F2B3D" stroke-opacity="0.9" stroke-width="1.5" stroke-linecap="round" stroke-linejoin="round"/>
<path d="M11.7498 15.5834C11.7498 15.1692 11.4141 14.8334 10.9998 14.8334C10.5856 14.8334 10.2498 15.1692 10.2498 15.5834H11.7498ZM10.2498 16.5001C10.2498 16.9143 10.5856 17.2501 10.9998 17.2501C11.4141 17.2501 11.7498 16.9143 11.7498 16.5001H10.2498ZM11.7498 9.16675C11.7498 8.75253 11.4141 8.41675 10.9998 8.41675C10.5856 8.41675 10.2498 8.75253 10.2498 9.16675H11.7498ZM10.2498 10.0834C10.2498 10.4976 10.5856 10.8334 10.9998 10.8334C11.4141 10.8334 11.7498 10.4976 11.7498 10.0834H10.2498ZM10.2498 15.5834V16.5001H11.7498V15.5834H10.2498ZM10.2498 9.16675V10.0834H11.7498V9.16675H10.2498Z" fill="#2F2B3D" fill-opacity="0.9"/>
</svg>
