<svg width="24" height="24" viewBox="0 0 24 24" fill="none" xmlns="http://www.w3.org/2000/svg">
<path d="M12.3592 8H4.14049C3.98854 7.99999 3.83859 7.96536 3.70202 7.89875C3.56545 7.83214 3.44584 7.7353 3.35228 7.61557C3.25872 7.49584 3.19366 7.35638 3.16204 7.20776C3.13042 7.05913 3.13307 6.90526 3.16978 6.75782L3.42028 5.75732C3.4741 5.54081 3.5989 5.34858 3.77476 5.21131C3.95062 5.07404 4.1674 4.99965 4.39049 5H12.1092C12.3323 4.99964 12.5491 5.07404 12.725 5.21131C12.9008 5.34859 13.0256 5.54082 13.0795 5.75733L13.3295 6.75733C13.3663 6.90477 13.3691 7.05868 13.3376 7.20737C13.3061 7.35605 13.2411 7.4956 13.1476 7.6154C13.054 7.7352 12.9344 7.8321 12.7978 7.89875C12.6612 7.96539 12.5112 8.00002 12.3592 8ZM12.1097 6H4.39049L4.13999 7H12.3607L12.1097 6Z" fill="#29ABE2"/>
<path d="M14.1401 10.5H2.35979C2.21183 10.5 2.06571 10.4671 1.93198 10.4038C1.79825 10.3405 1.68023 10.2483 1.58644 10.1339C1.49265 10.0195 1.42542 9.88563 1.3896 9.74207C1.35379 9.59851 1.35027 9.44879 1.37932 9.30371L1.67912 7.80396C1.72493 7.57752 1.84752 7.37384 2.02617 7.22735C2.20482 7.08087 2.42857 7.00056 2.65959 7H13.8403C14.0712 7.00054 14.2949 7.08079 14.4735 7.22717C14.6522 7.37356 14.7748 7.57712 14.8207 7.80346L15.1205 9.30396C15.1495 9.44903 15.146 9.59873 15.1102 9.74226C15.0743 9.8858 15.0071 10.0196 14.9133 10.134C14.8195 10.2484 14.7015 10.3406 14.5678 10.4039C14.4341 10.4672 14.288 10.5 14.1401 10.5ZM13.8403 7.99975L2.65959 8L2.35979 9.49975L14.141 9.5L13.8403 7.99975Z" fill="#29ABE2"/>
<path d="M11.5801 22.5H4.91991C4.5439 22.4991 4.18189 22.3572 3.90536 22.1025C3.62883 21.8477 3.45788 21.4985 3.42626 21.1238L2.54686 10.5815C2.53545 10.4437 2.5528 10.3049 2.59781 10.1741C2.64282 10.0433 2.7145 9.92323 2.80833 9.82156C2.90215 9.71988 3.01607 9.6388 3.14286 9.58345C3.26965 9.5281 3.40656 9.49968 3.54491 9.5H12.9551C13.0935 9.49969 13.2305 9.52816 13.3574 9.58359C13.4843 9.63903 13.5982 9.72022 13.6921 9.82202C13.7859 9.92382 13.8576 10.044 13.9025 10.175C13.9474 10.3059 13.9647 10.4448 13.9531 10.5828L13.748 13.0366C13.7426 13.102 13.7243 13.1657 13.6942 13.2241C13.6642 13.2824 13.6229 13.3342 13.5728 13.3766C13.5227 13.419 13.4647 13.4511 13.4022 13.4711C13.3397 13.4911 13.2739 13.4986 13.2085 13.4932C13.1431 13.4877 13.0794 13.4694 13.0211 13.4394C12.9627 13.4093 12.9109 13.3681 12.8685 13.3179C12.8261 13.2678 12.794 13.2099 12.774 13.1474C12.754 13.0849 12.7465 13.019 12.7519 12.9536L12.957 10.4985L3.54491 10.5L4.42284 21.0435C4.43333 21.168 4.49025 21.2841 4.58233 21.3687C4.6744 21.4532 4.79489 21.5001 4.91991 21.5H11.5801C11.6959 21.4997 11.808 21.459 11.897 21.3848C11.9482 21.3437 12.007 21.3131 12.0701 21.2948C12.1331 21.2764 12.1992 21.2707 12.2644 21.2779C12.3297 21.2851 12.3929 21.305 12.4505 21.3367C12.508 21.3683 12.5588 21.4109 12.5998 21.4622C12.6409 21.5134 12.6715 21.5722 12.6898 21.6353C12.7082 21.6983 12.7139 21.7644 12.7067 21.8296C12.6995 21.8949 12.6796 21.9581 12.648 22.0157C12.6163 22.0732 12.5737 22.124 12.5225 22.165C12.2562 22.3818 11.9234 22.5001 11.5801 22.5Z" fill="#29ABE2"/>
<path d="M8.00015 6.00025C7.91744 6.00006 7.83607 5.97939 7.7633 5.94009C7.69053 5.90079 7.62863 5.84408 7.58312 5.77503C7.53761 5.70597 7.50992 5.62672 7.5025 5.54435C7.49509 5.46198 7.5082 5.37905 7.54065 5.30298L9.04064 1.80298C9.07913 1.71302 9.1432 1.63635 9.22489 1.58248C9.30658 1.52862 9.4023 1.49994 9.50015 1.5H11.5001C11.6328 1.5 11.7599 1.55268 11.8537 1.64645C11.9475 1.74021 12.0001 1.86739 12.0001 2C12.0001 2.13261 11.9475 2.25979 11.8537 2.35355C11.7599 2.44732 11.6328 2.5 11.5001 2.5H9.82974L8.45965 5.697C8.42111 5.78695 8.35703 5.86362 8.27536 5.91752C8.19369 5.97142 8.098 6.00018 8.00015 6.00025Z" fill="#29ABE2"/>
<path d="M8.25 18.25C7.7061 18.25 7.17442 18.0887 6.72218 17.7865C6.26995 17.4844 5.91747 17.0549 5.70933 16.5524C5.50119 16.0499 5.44673 15.497 5.55284 14.9635C5.65895 14.4301 5.92086 13.9401 6.30546 13.5555C6.69005 13.1709 7.18005 12.909 7.7135 12.8028C8.24695 12.6967 8.79988 12.7512 9.30238 12.9593C9.80488 13.1675 10.2344 13.5199 10.5365 13.9722C10.8387 14.4244 11 14.9561 11 15.5C10.9991 16.2291 10.7091 16.9281 10.1936 17.4436C9.67805 17.9591 8.97908 18.2491 8.25 18.25ZM8.25 13.75C7.90388 13.75 7.56554 13.8526 7.27775 14.0449C6.98997 14.2372 6.76566 14.5105 6.63321 14.8303C6.50076 15.1501 6.4661 15.5019 6.53363 15.8414C6.60115 16.1809 6.76782 16.4927 7.01256 16.7374C7.25731 16.9822 7.56913 17.1489 7.90859 17.2164C8.24806 17.2839 8.59993 17.2492 8.9197 17.1168C9.23947 16.9843 9.51278 16.76 9.70507 16.4722C9.89737 16.1845 10 15.8461 10 15.5C9.99944 15.036 9.81489 14.5913 9.48682 14.2632C9.15875 13.9351 8.71396 13.7506 8.25 13.75Z" fill="#29ABE2"/>
<path d="M20 22.5H13C12.4697 22.4994 11.9614 22.2885 11.5864 21.9136C11.2115 21.5386 11.0006 21.0303 11 20.5V19.175C11 19.0424 11.0527 18.9153 11.1464 18.8215C11.2402 18.7277 11.3674 18.675 11.5 18.675C11.6326 18.675 11.7598 18.7277 11.8536 18.8215C11.9473 18.9153 12 19.0424 12 19.175V20.5C12.0003 20.7651 12.1058 21.0193 12.2932 21.2068C12.4807 21.3942 12.7349 21.4997 13 21.5H20C20.2651 21.4997 20.5193 21.3942 20.7068 21.2068C20.8942 21.0193 20.9997 20.7651 21 20.5V19.175C21 19.0424 21.0527 18.9153 21.1464 18.8215C21.2402 18.7277 21.3674 18.675 21.5 18.675C21.6326 18.675 21.7598 18.7277 21.8536 18.8215C21.9473 18.9153 22 19.0424 22 19.175V20.5C21.9994 21.0303 21.7885 21.5386 21.4136 21.9136C21.0386 22.2885 20.5303 22.4994 20 22.5Z" fill="#29ABE2"/>
<path d="M18.0392 20.0001C17.8243 19.9957 17.6133 19.9418 17.4226 19.8426C17.2319 19.7434 17.0666 19.6015 16.9396 19.4281C16.7653 19.2338 16.7116 19.1884 16.5836 19.1884C16.4552 19.1884 16.4054 19.2306 16.2286 19.4279C16.1015 19.6014 15.936 19.7433 15.7452 19.8425C15.5543 19.9417 15.3432 19.9957 15.1281 20.0001C14.63 19.9652 14.16 19.7565 13.8 19.4105C13.7015 19.3237 13.5933 19.2484 13.4777 19.1862C13.4348 19.2275 13.394 19.2711 13.3556 19.3168C13.2912 19.3898 13.214 19.4764 13.1149 19.578C12.9598 19.7362 12.768 19.8537 12.5566 19.9201C12.3452 19.9865 12.1207 19.9997 11.903 19.9586C11.6943 19.9233 11.4975 19.8373 11.3298 19.7082C11.1621 19.5791 11.0286 19.4108 10.9411 19.2181C10.8198 18.947 10.7525 18.6549 10.7428 18.358C10.6973 18.0822 10.7152 17.7997 10.7953 17.5318C10.8753 17.264 11.0153 17.0179 11.2047 16.8124C11.539 16.5001 11.9818 16.3305 12.4391 16.3395H20.5612C21.0185 16.3305 21.4613 16.5001 21.7956 16.8124C21.985 17.018 22.1251 17.2642 22.2051 17.5322C22.285 17.8002 22.3028 18.0829 22.257 18.3587C22.2476 18.6496 22.1828 18.9359 22.0661 19.2025V19.2032C21.9783 19.3989 21.8433 19.5697 21.673 19.7002C21.5028 19.8307 21.3028 19.9167 21.091 19.9505C20.8709 19.9901 20.6445 19.9744 20.4321 19.9049C20.2196 19.8353 20.0277 19.7141 19.8737 19.5521C19.7731 19.4442 19.694 19.3509 19.6276 19.2723C19.6027 19.243 19.5812 19.2167 19.5617 19.1932C19.3921 19.2684 19.2379 19.3744 19.1071 19.506C18.8304 19.8053 18.4465 19.983 18.0392 20.0001ZM16.5837 18.1883C16.7987 18.1928 17.0099 18.2467 17.2008 18.346C17.3916 18.4452 17.5571 18.5871 17.6842 18.7606C17.861 18.9579 17.9108 19.0001 18.0392 19.0001C18.1584 19.0001 18.2404 18.9369 18.445 18.7565C18.701 18.5024 19.0146 18.3139 19.3591 18.2069C19.5533 18.1526 19.7601 18.1644 19.9469 18.2404C20.1338 18.3165 20.2901 18.4524 20.3913 18.6268C20.4489 18.6949 20.5173 18.7758 20.6042 18.8693C20.6449 18.9102 20.6952 18.9404 20.7505 18.9571C20.8058 18.9738 20.8645 18.9765 20.9211 18.965C20.9692 18.9587 21.0151 18.9408 21.0548 18.9129C21.0946 18.8849 21.1269 18.8478 21.1491 18.8046C21.2151 18.6536 21.252 18.4916 21.258 18.327C21.2746 17.7972 21.2311 17.6578 21.1002 17.5311C20.9515 17.4009 20.7587 17.3324 20.5612 17.3395H12.4391C12.2416 17.3324 12.0488 17.4009 11.9001 17.5311C11.7692 17.6578 11.7257 17.7972 11.7423 18.3265C11.7483 18.4945 11.7866 18.6597 11.8552 18.8131C11.8769 18.8561 11.9088 18.8932 11.948 18.9213C11.9872 18.9493 12.0325 18.9675 12.0803 18.9742C12.1371 18.9862 12.196 18.9838 12.2516 18.9673C12.3073 18.9508 12.358 18.9207 12.3991 18.8797C12.485 18.7916 12.5519 18.7162 12.6081 18.6529C12.7072 18.5028 12.8437 18.381 13.0041 18.2996C13.1645 18.2182 13.3434 18.1799 13.5231 18.1886C13.8632 18.2313 14.1794 18.3858 14.422 18.6278C14.6121 18.8234 14.8593 18.9538 15.1281 19.0001C15.256 19.0001 15.3097 18.9547 15.484 18.7604C15.611 18.5869 15.7763 18.4451 15.967 18.3459C16.1577 18.2467 16.3687 18.1928 16.5837 18.1883Z" fill="#29ABE2"/>
<path d="M21.5 17.3394H11.5C11.2349 17.3391 10.9807 17.2336 10.7932 17.0462C10.6058 16.8587 10.5003 16.6045 10.5 16.3394V16.0354C10.4997 15.7257 10.5573 15.4187 10.6699 15.1302L10.7212 14.9974C11.0461 14.1492 11.6215 13.4201 12.3709 12.907C13.1204 12.3939 14.0083 12.1211 14.9165 12.125H18.0835C18.9916 12.1211 19.8793 12.3937 20.6287 12.9066C21.3781 13.4194 21.9537 14.1483 22.2788 14.9961L22.3306 15.1316C22.4429 15.4197 22.5004 15.7262 22.5 16.0354V16.3394C22.4997 16.6045 22.3942 16.8587 22.2068 17.0462C22.0193 17.2336 21.7651 17.3391 21.5 17.3394ZM14.9165 13.125C14.2102 13.122 13.5198 13.3341 12.937 13.7331C12.3541 14.132 11.9066 14.6989 11.6538 15.3584L11.602 15.4915C11.5345 15.6649 11.4999 15.8494 11.5 16.0354V16.3394H21.5005L21.5 16.0354C21.5002 15.8499 21.4658 15.6659 21.3984 15.4929L21.3462 15.3572C21.0931 14.698 20.6455 14.1314 20.0627 13.7327C19.4799 13.334 18.7896 13.122 18.0835 13.125H14.9165Z" fill="#29ABE2"/>
<path d="M19 8.5C18.3078 8.5 17.6311 8.29473 17.0555 7.91015C16.4799 7.52556 16.0313 6.97894 15.7664 6.33939C15.5015 5.69985 15.4322 4.99612 15.5673 4.31719C15.7023 3.63825 16.0356 3.01461 16.5251 2.52513C17.0146 2.03564 17.6383 1.7023 18.3172 1.56725C18.9961 1.4322 19.6999 1.50152 20.3394 1.76642C20.9789 2.03133 21.5256 2.47993 21.9101 3.05551C22.2947 3.63108 22.5 4.30777 22.5 5C22.4989 5.92793 22.1298 6.81754 21.4737 7.47368C20.8175 8.12982 19.9279 8.49892 19 8.5ZM19 2.5C18.5055 2.5 18.0222 2.64662 17.6111 2.92133C17.2 3.19603 16.8795 3.58648 16.6903 4.04329C16.5011 4.50011 16.4516 5.00277 16.548 5.48773C16.6445 5.97268 16.8826 6.41814 17.2322 6.76777C17.5819 7.1174 18.0273 7.3555 18.5123 7.45196C18.9972 7.54843 19.4999 7.49892 19.9567 7.3097C20.4135 7.12048 20.804 6.80005 21.0787 6.38893C21.3534 5.9778 21.5 5.49445 21.5 5C21.4992 4.3372 21.2356 3.70177 20.7669 3.23309C20.2982 2.76442 19.6628 2.50078 19 2.5Z" fill="#29ABE2"/>
<path d="M18.5202 6.34004C18.4545 6.34011 18.3895 6.32721 18.3288 6.30207C18.2682 6.27692 18.2131 6.24004 18.1667 6.19354L17.4465 5.47357C17.3999 5.42718 17.3629 5.37206 17.3377 5.31136C17.3124 5.25066 17.2994 5.18558 17.2993 5.11984C17.2992 5.0541 17.3121 4.98899 17.3373 4.92824C17.3624 4.86749 17.3993 4.8123 17.4458 4.76581C17.4922 4.71933 17.5474 4.68247 17.6082 4.65734C17.6689 4.63221 17.734 4.61932 17.7998 4.61938C17.8655 4.61945 17.9306 4.63249 17.9913 4.65774C18.052 4.68299 18.1071 4.71997 18.1535 4.76655L18.5202 5.133L19.8469 3.80634C19.8933 3.75992 19.9484 3.72309 20.0091 3.69797C20.0697 3.67284 20.1347 3.65991 20.2004 3.65991C20.266 3.65991 20.331 3.67284 20.3917 3.69797C20.4524 3.72309 20.5075 3.75992 20.5539 3.80634C20.6003 3.85277 20.6371 3.90788 20.6623 3.96854C20.6874 4.0292 20.7003 4.09421 20.7003 4.15986C20.7003 4.22552 20.6874 4.29053 20.6623 4.35118C20.6371 4.41184 20.6003 4.46695 20.5539 4.51338L18.8737 6.19355C18.8274 6.24006 18.7722 6.27694 18.7116 6.30208C18.6509 6.32722 18.5859 6.34012 18.5202 6.34004Z" fill="#29ABE2"/>
</svg>
