<svg width="24" height="24" viewBox="0 0 24 24" fill="none" xmlns="http://www.w3.org/2000/svg">
<path d="M12.3597 8H4.14098C3.98903 7.99999 3.83908 7.96536 3.70251 7.89875C3.56594 7.83214 3.44633 7.7353 3.35277 7.61557C3.25921 7.49584 3.19415 7.35638 3.16253 7.20776C3.13091 7.05913 3.13355 6.90526 3.17027 6.75782L3.42077 5.75732C3.47459 5.54081 3.59939 5.34858 3.77525 5.21131C3.95111 5.07404 4.16788 4.99965 4.39098 5H12.1097C12.3328 4.99964 12.5496 5.07404 12.7255 5.21131C12.9013 5.34859 13.0261 5.54082 13.0799 5.75733L13.3299 6.75733C13.3668 6.90477 13.3696 7.05868 13.3381 7.20737C13.3066 7.35605 13.2416 7.4956 13.148 7.6154C13.0545 7.7352 12.9349 7.8321 12.7983 7.89875C12.6617 7.96539 12.5117 8.00002 12.3597 8ZM12.1102 6H4.39098L4.14048 7H12.3612L12.1102 6Z" fill="#242B37" fill-opacity="0.9"/>
<path d="M14.1405 10.5H2.36028C2.21231 10.5 2.0662 10.4671 1.93247 10.4038C1.79874 10.3405 1.68072 10.2483 1.58693 10.1339C1.49314 10.0195 1.42591 9.88563 1.39009 9.74207C1.35428 9.59851 1.35076 9.44879 1.37981 9.30371L1.67961 7.80396C1.72542 7.57752 1.84801 7.37384 2.02666 7.22735C2.20531 7.08087 2.42905 7.00056 2.66008 7H13.8407C14.0717 7.00054 14.2954 7.08079 14.474 7.22717C14.6527 7.37356 14.7753 7.57712 14.8212 7.80346L15.121 9.30396C15.15 9.44903 15.1465 9.59873 15.1107 9.74226C15.0748 9.8858 15.0076 10.0196 14.9138 10.134C14.82 10.2484 14.702 10.3406 14.5683 10.4039C14.4346 10.4672 14.2885 10.5 14.1405 10.5ZM13.8407 7.99975L2.66008 8L2.36028 9.49975L14.1415 9.5L13.8407 7.99975Z" fill="#242B37" fill-opacity="0.9"/>
<path d="M11.5806 22.5H4.92039C4.54438 22.4991 4.18238 22.3572 3.90585 22.1025C3.62932 21.8477 3.45837 21.4985 3.42674 21.1238L2.54735 10.5815C2.53594 10.4437 2.55329 10.3049 2.5983 10.1741C2.6433 10.0433 2.71499 9.92323 2.80881 9.82156C2.90264 9.71988 3.01655 9.6388 3.14335 9.58345C3.27014 9.5281 3.40705 9.49968 3.54539 9.5H12.9556C13.094 9.49969 13.231 9.52816 13.3579 9.58359C13.4848 9.63903 13.5987 9.72022 13.6926 9.82202C13.7864 9.92382 13.8581 10.044 13.903 10.175C13.9479 10.3059 13.9652 10.4448 13.9536 10.5828L13.7485 13.0366C13.7431 13.102 13.7248 13.1657 13.6947 13.2241C13.6647 13.2824 13.6234 13.3342 13.5733 13.3766C13.5232 13.419 13.4652 13.4511 13.4027 13.4711C13.3402 13.4911 13.2744 13.4986 13.209 13.4932C13.1436 13.4877 13.0799 13.4694 13.0215 13.4394C12.9632 13.4093 12.9114 13.3681 12.869 13.3179C12.8266 13.2678 12.7945 13.2099 12.7745 13.1474C12.7545 13.0849 12.747 13.019 12.7524 12.9536L12.9575 10.4985L3.54539 10.5L4.42332 21.0435C4.43381 21.168 4.49074 21.2841 4.58281 21.3687C4.67489 21.4532 4.79538 21.5001 4.92039 21.5H11.5806C11.6964 21.4997 11.8085 21.459 11.8974 21.3848C11.9487 21.3437 12.0075 21.3131 12.0706 21.2948C12.1336 21.2764 12.1997 21.2707 12.2649 21.2779C12.3302 21.2851 12.3934 21.305 12.451 21.3367C12.5085 21.3683 12.5593 21.4109 12.6003 21.4622C12.6414 21.5134 12.672 21.5722 12.6903 21.6353C12.7087 21.6983 12.7144 21.7644 12.7072 21.8296C12.7 21.8949 12.6801 21.9581 12.6484 22.0157C12.6168 22.0732 12.5742 22.124 12.5229 22.165C12.2567 22.3818 11.9239 22.5001 11.5806 22.5Z" fill="#242B37" fill-opacity="0.9"/>
<path d="M7.99966 6.00025C7.91695 6.00006 7.83558 5.97939 7.76281 5.94009C7.69004 5.90079 7.62814 5.84408 7.58263 5.77503C7.53712 5.70597 7.50943 5.62672 7.50202 5.54435C7.4946 5.46198 7.50771 5.37905 7.54016 5.30298L9.04016 1.80298C9.07865 1.71302 9.14271 1.63635 9.2244 1.58248C9.30609 1.52862 9.40181 1.49994 9.49966 1.5H11.4997C11.6323 1.5 11.7594 1.55268 11.8532 1.64645C11.947 1.74021 11.9997 1.86739 11.9997 2C11.9997 2.13261 11.947 2.25979 11.8532 2.35355C11.7594 2.44732 11.6323 2.5 11.4997 2.5H9.82925L8.45916 5.697C8.42062 5.78695 8.35655 5.86362 8.27487 5.91752C8.1932 5.97142 8.09751 6.00018 7.99966 6.00025Z" fill="#242B37" fill-opacity="0.9"/>
<path d="M8.25 18.25C7.7061 18.25 7.17442 18.0887 6.72218 17.7865C6.26995 17.4844 5.91747 17.0549 5.70933 16.5524C5.50119 16.0499 5.44673 15.497 5.55284 14.9635C5.65895 14.4301 5.92086 13.9401 6.30546 13.5555C6.69005 13.1709 7.18005 12.909 7.7135 12.8028C8.24695 12.6967 8.79988 12.7512 9.30238 12.9593C9.80488 13.1675 10.2344 13.5199 10.5365 13.9722C10.8387 14.4244 11 14.9561 11 15.5C10.9991 16.2291 10.7091 16.9281 10.1936 17.4436C9.67805 17.9591 8.97908 18.2491 8.25 18.25ZM8.25 13.75C7.90388 13.75 7.56554 13.8526 7.27775 14.0449C6.98997 14.2372 6.76566 14.5105 6.63321 14.8303C6.50076 15.1501 6.4661 15.5019 6.53363 15.8414C6.60115 16.1809 6.76782 16.4927 7.01256 16.7374C7.25731 16.9822 7.56913 17.1489 7.90859 17.2164C8.24806 17.2839 8.59993 17.2492 8.9197 17.1168C9.23947 16.9843 9.51278 16.76 9.70507 16.4722C9.89737 16.1845 10 15.8461 10 15.5C9.99944 15.036 9.81489 14.5913 9.48682 14.2632C9.15875 13.9351 8.71396 13.7506 8.25 13.75Z" fill="#242B37" fill-opacity="0.9"/>
<path d="M20 22.5H13C12.4697 22.4994 11.9614 22.2885 11.5864 21.9136C11.2115 21.5386 11.0006 21.0303 11 20.5V19.175C11 19.0424 11.0527 18.9153 11.1464 18.8215C11.2402 18.7277 11.3674 18.675 11.5 18.675C11.6326 18.675 11.7598 18.7277 11.8536 18.8215C11.9473 18.9153 12 19.0424 12 19.175V20.5C12.0003 20.7651 12.1058 21.0193 12.2932 21.2068C12.4807 21.3942 12.7349 21.4997 13 21.5H20C20.2651 21.4997 20.5193 21.3942 20.7068 21.2068C20.8942 21.0193 20.9997 20.7651 21 20.5V19.175C21 19.0424 21.0527 18.9153 21.1464 18.8215C21.2402 18.7277 21.3674 18.675 21.5 18.675C21.6326 18.675 21.7598 18.7277 21.8536 18.8215C21.9473 18.9153 22 19.0424 22 19.175V20.5C21.9994 21.0303 21.7885 21.5386 21.4136 21.9136C21.0386 22.2885 20.5303 22.4994 20 22.5Z" fill="#242B37" fill-opacity="0.9"/>
<path d="M18.0387 20C17.8238 19.9956 17.6128 19.9417 17.4221 19.8425C17.2314 19.7433 17.0661 19.6014 16.9391 19.428C16.7648 19.2337 16.7111 19.1883 16.5832 19.1883C16.4547 19.1883 16.4049 19.2305 16.2282 19.4278C16.101 19.6013 15.9356 19.7431 15.7447 19.8424C15.5538 19.9416 15.3427 19.9956 15.1276 20C14.6295 19.965 14.1595 19.7564 13.7995 19.4104C13.701 19.3236 13.5928 19.2483 13.4772 19.186C13.4343 19.2274 13.3935 19.271 13.3551 19.3167C13.2907 19.3897 13.2135 19.4763 13.1144 19.5779C12.9593 19.7361 12.7675 19.8536 12.5561 19.92C12.3447 19.9864 12.1202 19.9996 11.9025 19.9585C11.6938 19.9231 11.497 19.8371 11.3293 19.708C11.1616 19.5789 11.0281 19.4107 10.9406 19.218C10.8193 18.9469 10.752 18.6547 10.7423 18.3579C10.6968 18.0821 10.7147 17.7995 10.7948 17.5317C10.8748 17.2639 11.0149 17.0178 11.2043 16.8122C11.5385 16.5 11.9813 16.3303 12.4386 16.3393H20.5607C21.018 16.3303 21.4608 16.5 21.7951 16.8122C21.9846 17.0179 22.1246 17.2641 22.2046 17.5321C22.2845 17.8001 22.3023 18.0828 22.2565 18.3586C22.2471 18.6495 22.1823 18.9358 22.0656 19.2024V19.2031C21.9779 19.3988 21.8428 19.5696 21.6726 19.7001C21.5023 19.8306 21.3023 19.9166 21.0905 19.9504C20.8705 19.99 20.644 19.9743 20.4316 19.9047C20.2191 19.8352 20.0272 19.714 19.8732 19.552C19.7726 19.4441 19.6935 19.3508 19.6271 19.2722C19.6022 19.2429 19.5807 19.2165 19.5612 19.1931C19.3916 19.2683 19.2374 19.3743 19.1066 19.5058C18.8299 19.8052 18.446 19.9829 18.0387 20ZM16.5832 18.1882C16.7982 18.1927 17.0094 18.2466 17.2003 18.3458C17.3911 18.4451 17.5566 18.587 17.6837 18.7605C17.8605 18.9578 17.9103 19 18.0387 19C18.1579 19 18.2399 18.9368 18.4445 18.7564C18.7005 18.5023 19.0141 18.3138 19.3586 18.2068C19.5528 18.1525 19.7596 18.1643 19.9464 18.2403C20.1333 18.3163 20.2896 18.4522 20.3908 18.6267C20.4484 18.6948 20.5168 18.7756 20.6037 18.8691C20.6444 18.9101 20.6947 18.9403 20.75 18.957C20.8054 18.9737 20.864 18.9764 20.9206 18.9648C20.9687 18.9586 21.0146 18.9407 21.0544 18.9128C21.0941 18.8848 21.1264 18.8476 21.1486 18.8044C21.2146 18.6535 21.2515 18.4915 21.2575 18.3269C21.2741 17.7971 21.2306 17.6577 21.0998 17.531C20.951 17.4008 20.7582 17.3323 20.5607 17.3394H12.4386C12.2411 17.3323 12.0483 17.4008 11.8996 17.531C11.7687 17.6577 11.7252 17.7971 11.7419 18.3264C11.7478 18.4944 11.7861 18.6596 11.8547 18.813C11.8764 18.856 11.9083 18.8931 11.9475 18.9211C11.9867 18.9492 12.032 18.9674 12.0798 18.9741C12.1366 18.9861 12.1955 18.9837 12.2511 18.9672C12.3068 18.9507 12.3575 18.9206 12.3986 18.8796C12.4845 18.7915 12.5514 18.7161 12.6076 18.6528C12.7067 18.5027 12.8432 18.3809 13.0036 18.2995C13.1641 18.2181 13.3429 18.1798 13.5226 18.1885C13.8627 18.2312 14.1789 18.3857 14.4215 18.6277C14.6116 18.8233 14.8588 18.9537 15.1276 19C15.2555 19 15.3092 18.9546 15.4835 18.7603C15.6106 18.5868 15.7758 18.445 15.9665 18.3458C16.1572 18.2466 16.3682 18.1927 16.5832 18.1882Z" fill="#242B37" fill-opacity="0.9"/>
<path d="M21.5 17.3394H11.5C11.2349 17.339 10.9807 17.2336 10.7932 17.0461C10.6058 16.8587 10.5003 16.6045 10.5 16.3394V16.0354C10.4997 15.7257 10.5573 15.4186 10.6699 15.1301L10.7212 14.9973C11.0461 14.1492 11.6215 13.42 12.3709 12.9069C13.1204 12.3938 14.0083 12.1211 14.9165 12.125H18.0835C18.9916 12.1211 19.8793 12.3937 20.6287 12.9065C21.3781 13.4194 21.9537 14.1482 22.2788 14.9961L22.3306 15.1316C22.4429 15.4197 22.5004 15.7262 22.5 16.0354V16.3394C22.4997 16.6045 22.3942 16.8587 22.2068 17.0461C22.0193 17.2336 21.7651 17.339 21.5 17.3394ZM14.9165 13.125C14.2102 13.122 13.5198 13.3341 12.937 13.733C12.3541 14.132 11.9066 14.6989 11.6538 15.3584L11.602 15.4915C11.5345 15.6648 11.4999 15.8493 11.5 16.0354V16.3394H21.5005L21.5 16.0354C21.5002 15.8498 21.4658 15.6658 21.3984 15.4929L21.3462 15.3572C21.0931 14.6979 20.6455 14.1313 20.0627 13.7326C19.4799 13.3339 18.7896 13.122 18.0835 13.125H14.9165Z" fill="#242B37" fill-opacity="0.9"/>
<path d="M19 8.5C18.3078 8.5 17.6311 8.29473 17.0555 7.91015C16.4799 7.52556 16.0313 6.97894 15.7664 6.33939C15.5015 5.69985 15.4322 4.99612 15.5673 4.31719C15.7023 3.63825 16.0356 3.01461 16.5251 2.52513C17.0146 2.03564 17.6383 1.7023 18.3172 1.56725C18.9961 1.4322 19.6999 1.50152 20.3394 1.76642C20.9789 2.03133 21.5256 2.47993 21.9101 3.05551C22.2947 3.63108 22.5 4.30777 22.5 5C22.4989 5.92793 22.1298 6.81754 21.4737 7.47368C20.8175 8.12982 19.9279 8.49892 19 8.5ZM19 2.5C18.5055 2.5 18.0222 2.64662 17.6111 2.92133C17.2 3.19603 16.8795 3.58648 16.6903 4.04329C16.5011 4.50011 16.4516 5.00277 16.548 5.48773C16.6445 5.97268 16.8826 6.41814 17.2322 6.76777C17.5819 7.1174 18.0273 7.3555 18.5123 7.45196C18.9972 7.54843 19.4999 7.49892 19.9567 7.3097C20.4135 7.12048 20.804 6.80005 21.0787 6.38893C21.3534 5.9778 21.5 5.49445 21.5 5C21.4992 4.3372 21.2356 3.70177 20.7669 3.23309C20.2982 2.76442 19.6628 2.50078 19 2.5Z" fill="#242B37" fill-opacity="0.9"/>
<path d="M18.5197 6.34009C18.454 6.34016 18.389 6.32726 18.3283 6.30212C18.2677 6.27698 18.2126 6.2401 18.1662 6.19359L17.446 5.47362C17.3994 5.42723 17.3624 5.37211 17.3372 5.31141C17.3119 5.25071 17.2989 5.18563 17.2988 5.11989C17.2988 5.05415 17.3117 4.98904 17.3368 4.92829C17.3619 4.86755 17.3988 4.81235 17.4453 4.76586C17.4917 4.71938 17.5469 4.68252 17.6077 4.65739C17.6684 4.63227 17.7336 4.61937 17.7993 4.61944C17.865 4.61951 17.9301 4.63254 17.9908 4.65779C18.0515 4.68304 18.1066 4.72002 18.153 4.7666L18.5197 5.13306L19.8464 3.8064C19.8928 3.75997 19.9479 3.72315 20.0086 3.69802C20.0692 3.6729 20.1342 3.65997 20.1999 3.65997C20.2656 3.65997 20.3306 3.6729 20.3912 3.69802C20.4519 3.72315 20.507 3.75997 20.5534 3.8064C20.5998 3.85282 20.6367 3.90794 20.6618 3.96859C20.6869 4.02925 20.6998 4.09426 20.6998 4.15991C20.6998 4.22557 20.6869 4.29058 20.6618 4.35124C20.6367 4.41189 20.5998 4.46701 20.5534 4.51343L18.8732 6.19361C18.8269 6.24011 18.7718 6.27699 18.7111 6.30213C18.6504 6.32727 18.5854 6.34017 18.5197 6.34009Z" fill="#242B37" fill-opacity="0.9"/>
</svg>
