<svg width="42" height="42" viewBox="0 0 42 42" fill="none" xmlns="http://www.w3.org/2000/svg">
<g clip-path="url(#clip0_238_18114)">
<path d="M41.8523 10.1899L39.3281 3.42702C39.0139 2.58637 38.2326 1.99408 37.3384 1.92022L27.357 1.08753C26.575 1.02454 25.8292 1.3482 25.3448 1.95425L22.6766 5.28934C22.5716 5.4204 22.489 5.56232 22.4159 5.70713L19.1163 1.57918C18.6319 0.972405 17.8825 0.644398 17.1027 0.712461L7.00614 1.55456C6.2017 1.6219 5.4769 2.1121 5.11558 2.83473L0.245451 12.5757C0.0101261 13.0456 -0.0586611 13.5872 0.0506743 14.1006L5.42693 39.4476C5.65357 40.5178 6.61152 41.2947 7.70415 41.2947C7.85042 41.2947 7.99885 41.2802 8.14729 41.252L24.095 38.1812C24.5737 38.0885 24.9886 37.8474 25.3115 37.5179C25.6656 37.8373 26.1145 38.0567 26.6228 38.1102L34.0019 38.8872C34.0844 38.8966 34.1662 38.9009 34.2473 38.9009C35.3407 38.9009 36.2986 38.124 36.5253 37.0531L41.9486 11.4874C42.0413 11.0537 42.0072 10.6048 41.8523 10.1899ZM23.0886 33.0649C23.0886 34.1387 22.3602 35.0698 21.3175 35.3276L10.5396 37.9908C10.3557 38.0364 10.1675 38.0596 9.9792 38.0596C8.88657 38.0596 7.92789 37.2826 7.70126 36.2124L3.09396 14.4902C2.98463 13.9768 3.05342 13.4352 3.28874 12.9653L6.97863 5.58549C7.33994 4.86286 8.06474 4.37266 8.86919 4.30532L15.7761 3.72968C16.5705 3.66162 17.3539 4.01642 17.8311 4.64998L22.6201 11.011C22.922 11.4128 23.0886 11.9103 23.0886 12.4135V33.0649ZM38.9133 11.8393L34.2336 33.899C34.0069 34.9699 33.049 35.7469 31.9556 35.7469C31.8745 35.7469 31.792 35.7425 31.7101 35.7331L26.6221 35.1973C26.3962 35.1734 26.1855 35.1097 25.9842 35.0278V32.1504C26.3839 32.1504 26.7082 31.826 26.7082 31.4263C26.7082 31.0266 26.3839 30.7022 25.9842 30.7022V28.53V27.8059C26.3839 27.8059 26.7082 27.4815 26.7082 27.0818C26.7082 26.6822 26.3839 26.3578 25.9842 26.3578V24.1855V23.4615C26.3839 23.4615 26.7082 23.1371 26.7082 22.7374C26.7082 22.3377 26.3839 22.0133 25.9842 22.0133V19.8411V19.117C26.3839 19.117 26.7082 18.7926 26.7082 18.3929C26.7082 17.9932 26.3839 17.6689 25.9842 17.6689V15.4966V14.7726C26.3839 14.7726 26.7082 14.4482 26.7082 14.0485C26.7082 13.6488 26.3839 13.3244 25.9842 13.3244V11.1522V10.9878C25.9842 10.7923 25.9509 10.5997 25.9031 10.4115C25.9313 10.4151 25.9559 10.4281 25.9842 10.4281C26.3839 10.4281 26.7082 10.1037 26.7082 9.70403C26.7082 9.30434 26.3839 8.97996 25.9842 8.97996C25.7039 8.97996 25.4686 9.1436 25.3477 9.37603L24.2587 8.01404C24.3253 7.89095 24.4006 7.77075 24.4904 7.65852L26.6416 4.9693C27.126 4.36397 27.8726 4.03669 28.6546 4.10403L35.4225 4.66736C36.3631 4.74484 37.1581 5.37623 37.447 6.27553L38.851 10.6424C38.977 11.0291 38.998 11.4433 38.9133 11.8393Z" fill="#013A68"/>
<path d="M19.5439 12.6973C19.3919 12.5793 19.2007 12.5294 19.0088 12.5518L15.4181 13.0116L15.0503 10.1385C15.0257 9.94803 14.9272 9.77497 14.7751 9.65767C14.6231 9.53965 14.4319 9.48969 14.2401 9.51213L11.3669 9.87996C10.9701 9.93065 10.6899 10.2934 10.7406 10.6902L11.1084 13.5633L7.51701 14.0231C7.12022 14.0738 6.84 14.4366 6.89069 14.8334L7.25852 17.7065C7.28314 17.8969 7.38161 18.07 7.53367 18.1873C7.68572 18.3046 7.87688 18.356 8.06876 18.3328L11.6602 17.873L12.2253 21.5192C12.2492 21.7096 12.3484 21.8826 12.5004 21.9999C12.6279 22.0991 12.7843 22.1513 12.9436 22.1513C12.974 22.1513 13.0044 22.1491 13.0355 22.1455L15.9086 21.7776C16.0991 21.753 16.2721 21.6538 16.3894 21.5018C16.5075 21.3497 16.5589 21.1571 16.535 20.9674L15.9699 17.3213L19.5613 16.8615C19.9581 16.8108 20.2383 16.4481 20.1876 16.0513L19.8191 13.1781C19.7944 12.9877 19.6952 12.8146 19.5439 12.6973Z" fill="#29ABE2"/>
<path d="M28.1567 7.53183C28.5566 7.53183 28.8808 7.20765 28.8808 6.80775C28.8808 6.40786 28.5566 6.08368 28.1567 6.08368C27.7568 6.08368 27.4326 6.40786 27.4326 6.80775C27.4326 7.20765 27.7568 7.53183 28.1567 7.53183Z" fill="#013A68" fill-opacity="0.13"/>
<path d="M30.3295 7.53183C30.7294 7.53183 31.0536 7.20765 31.0536 6.80775C31.0536 6.40786 30.7294 6.08368 30.3295 6.08368C29.9296 6.08368 29.6055 6.40786 29.6055 6.80775C29.6055 7.20765 29.9296 7.53183 30.3295 7.53183Z" fill="#013A68" fill-opacity="0.13"/>
<path d="M32.5014 7.53183C32.9013 7.53183 33.2255 7.20765 33.2255 6.80775C33.2255 6.40786 32.9013 6.08368 32.5014 6.08368C32.1015 6.08368 31.7773 6.40786 31.7773 6.80775C31.7773 7.20765 32.1015 7.53183 32.5014 7.53183Z" fill="#013A68" fill-opacity="0.13"/>
<path d="M34.6743 7.53183C35.0742 7.53183 35.3983 7.20765 35.3983 6.80775C35.3983 6.40786 35.0742 6.08368 34.6743 6.08368C34.2744 6.08368 33.9502 6.40786 33.9502 6.80775C33.9502 7.20765 34.2744 7.53183 34.6743 7.53183Z" fill="#013A68" fill-opacity="0.13"/>
<path d="M26.7094 8.97995C27.1093 8.97995 27.4335 8.65577 27.4335 8.25587C27.4335 7.85598 27.1093 7.5318 26.7094 7.5318C26.3095 7.5318 25.9854 7.85598 25.9854 8.25587C25.9854 8.65577 26.3095 8.97995 26.7094 8.97995Z" fill="#013A68" fill-opacity="0.13"/>
<path d="M28.8813 8.97995C29.2812 8.97995 29.6054 8.65577 29.6054 8.25587C29.6054 7.85598 29.2812 7.5318 28.8813 7.5318C28.4814 7.5318 28.1572 7.85598 28.1572 8.25587C28.1572 8.65577 28.4814 8.97995 28.8813 8.97995Z" fill="#013A68" fill-opacity="0.13"/>
<path d="M31.0532 8.97995C31.4531 8.97995 31.7773 8.65577 31.7773 8.25587C31.7773 7.85598 31.4531 7.5318 31.0532 7.5318C30.6533 7.5318 30.3291 7.85598 30.3291 8.25587C30.3291 8.65577 30.6533 8.97995 31.0532 8.97995Z" fill="#013A68" fill-opacity="0.13"/>
<path d="M33.226 8.97995C33.6259 8.97995 33.9501 8.65577 33.9501 8.25587C33.9501 7.85598 33.6259 7.5318 33.226 7.5318C32.8261 7.5318 32.502 7.85598 32.502 8.25587C32.502 8.65577 32.8261 8.97995 33.226 8.97995Z" fill="#013A68" fill-opacity="0.13"/>
<path d="M35.3979 8.97995C35.7978 8.97995 36.122 8.65577 36.122 8.25587C36.122 7.85598 35.7978 7.5318 35.3979 7.5318C34.998 7.5318 34.6738 7.85598 34.6738 8.25587C34.6738 8.65577 34.998 8.97995 35.3979 8.97995Z" fill="#013A68" fill-opacity="0.13"/>
<path d="M28.1567 10.4281C28.5566 10.4281 28.8808 10.104 28.8808 9.70406C28.8808 9.30416 28.5566 8.97998 28.1567 8.97998C27.7568 8.97998 27.4326 9.30416 27.4326 9.70406C27.4326 10.104 27.7568 10.4281 28.1567 10.4281Z" fill="#013A68" fill-opacity="0.13"/>
<path d="M36.8461 10.4281C37.246 10.4281 37.5702 10.104 37.5702 9.70406C37.5702 9.30416 37.246 8.97998 36.8461 8.97998C36.4462 8.97998 36.1221 9.30416 36.1221 9.70406C36.1221 10.104 36.4462 10.4281 36.8461 10.4281Z" fill="#013A68" fill-opacity="0.13"/>
<path d="M36.1215 13.3244C36.5214 13.3244 36.8456 13.0003 36.8456 12.6004C36.8456 12.2005 36.5214 11.8763 36.1215 11.8763C35.7216 11.8763 35.3975 12.2005 35.3975 12.6004C35.3975 13.0003 35.7216 13.3244 36.1215 13.3244Z" fill="#013A68" fill-opacity="0.13"/>
<path d="M35.3979 16.2207C35.7978 16.2207 36.122 15.8966 36.122 15.4967C36.122 15.0968 35.7978 14.7726 35.3979 14.7726C34.998 14.7726 34.6738 15.0968 34.6738 15.4967C34.6738 15.8966 34.998 16.2207 35.3979 16.2207Z" fill="#013A68" fill-opacity="0.13"/>
<path d="M34.6743 19.117C35.0742 19.117 35.3983 18.7929 35.3983 18.393C35.3983 17.9931 35.0742 17.6689 34.6743 17.6689C34.2744 17.6689 33.9502 17.9931 33.9502 18.393C33.9502 18.7929 34.2744 19.117 34.6743 19.117Z" fill="#013A68" fill-opacity="0.13"/>
<path d="M33.9497 22.0133C34.3496 22.0133 34.6737 21.6892 34.6737 21.2893C34.6737 20.8894 34.3496 20.5652 33.9497 20.5652C33.5498 20.5652 33.2256 20.8894 33.2256 21.2893C33.2256 21.6892 33.5498 22.0133 33.9497 22.0133Z" fill="#013A68" fill-opacity="0.13"/>
<path d="M34.6743 23.4615C35.0742 23.4615 35.3983 23.1373 35.3983 22.7374C35.3983 22.3375 35.0742 22.0133 34.6743 22.0133C34.2744 22.0133 33.9502 22.3375 33.9502 22.7374C33.9502 23.1373 34.2744 23.4615 34.6743 23.4615Z" fill="#013A68" fill-opacity="0.13"/>
<path d="M35.3979 20.5652C35.7978 20.5652 36.122 20.241 36.122 19.8411C36.122 19.4412 35.7978 19.117 35.3979 19.117C34.998 19.117 34.6738 19.4412 34.6738 19.8411C34.6738 20.241 34.998 20.5652 35.3979 20.5652Z" fill="#013A68" fill-opacity="0.13"/>
<path d="M36.1215 17.6689C36.5214 17.6689 36.8456 17.3447 36.8456 16.9448C36.8456 16.5449 36.5214 16.2207 36.1215 16.2207C35.7216 16.2207 35.3975 16.5449 35.3975 16.9448C35.3975 17.3447 35.7216 17.6689 36.1215 17.6689Z" fill="#013A68" fill-opacity="0.13"/>
<path d="M36.8461 14.7726C37.246 14.7726 37.5702 14.4484 37.5702 14.0485C37.5702 13.6486 37.246 13.3244 36.8461 13.3244C36.4462 13.3244 36.1221 13.6486 36.1221 14.0485C36.1221 14.4484 36.4462 14.7726 36.8461 14.7726Z" fill="#013A68" fill-opacity="0.13"/>
<path d="M37.5698 11.8763C37.9697 11.8763 38.2939 11.5521 38.2939 11.1522C38.2939 10.7523 37.9697 10.4281 37.5698 10.4281C37.1699 10.4281 36.8457 10.7523 36.8457 11.1522C36.8457 11.5521 37.1699 11.8763 37.5698 11.8763Z" fill="#013A68" fill-opacity="0.13"/>
<path d="M33.226 24.9096C33.6259 24.9096 33.9501 24.5855 33.9501 24.1856C33.9501 23.7857 33.6259 23.4615 33.226 23.4615C32.8261 23.4615 32.502 23.7857 32.502 24.1856C32.502 24.5855 32.8261 24.9096 33.226 24.9096Z" fill="#013A68" fill-opacity="0.13"/>
<path d="M33.9497 26.3578C34.3496 26.3578 34.6737 26.0336 34.6737 25.6337C34.6737 25.2338 34.3496 24.9096 33.9497 24.9096C33.5498 24.9096 33.2256 25.2338 33.2256 25.6337C33.2256 26.0336 33.5498 26.3578 33.9497 26.3578Z" fill="#013A68" fill-opacity="0.13"/>
<path d="M32.5014 27.8059C32.9013 27.8059 33.2255 27.4818 33.2255 27.0819C33.2255 26.682 32.9013 26.3578 32.5014 26.3578C32.1015 26.3578 31.7773 26.682 31.7773 27.0819C31.7773 27.4818 32.1015 27.8059 32.5014 27.8059Z" fill="#013A68" fill-opacity="0.13"/>
<path d="M33.226 29.2541C33.6259 29.2541 33.9501 28.9299 33.9501 28.53C33.9501 28.1301 33.6259 27.8059 33.226 27.8059C32.8261 27.8059 32.502 28.1301 32.502 28.53C32.502 28.9299 32.8261 29.2541 33.226 29.2541Z" fill="#013A68" fill-opacity="0.13"/>
<path d="M31.7778 30.7022C32.1777 30.7022 32.5019 30.3781 32.5019 29.9782C32.5019 29.5783 32.1777 29.2541 31.7778 29.2541C31.3779 29.2541 31.0537 29.5783 31.0537 29.9782C31.0537 30.3781 31.3779 30.7022 31.7778 30.7022Z" fill="#013A68" fill-opacity="0.13"/>
<path d="M33.9497 30.7022C34.3496 30.7022 34.6737 30.3781 34.6737 29.9782C34.6737 29.5783 34.3496 29.2541 33.9497 29.2541C33.5498 29.2541 33.2256 29.5783 33.2256 29.9782C33.2256 30.3781 33.5498 30.7022 33.9497 30.7022Z" fill="#013A68" fill-opacity="0.13"/>
<path d="M32.5014 32.1504C32.9013 32.1504 33.2255 31.8262 33.2255 31.4263C33.2255 31.0264 32.9013 30.7022 32.5014 30.7022C32.1015 30.7022 31.7773 31.0264 31.7773 31.4263C31.7773 31.8262 32.1015 32.1504 32.5014 32.1504Z" fill="#013A68" fill-opacity="0.13"/>
<path d="M31.7778 33.5985C32.1777 33.5985 32.5019 33.2744 32.5019 32.8745C32.5019 32.4746 32.1777 32.1504 31.7778 32.1504C31.3779 32.1504 31.0537 32.4746 31.0537 32.8745C31.0537 33.2744 31.3779 33.5985 31.7778 33.5985Z" fill="#013A68" fill-opacity="0.13"/>
<path d="M30.3295 10.4281C30.7294 10.4281 31.0536 10.104 31.0536 9.70406C31.0536 9.30416 30.7294 8.97998 30.3295 8.97998C29.9296 8.97998 29.6055 9.30416 29.6055 9.70406C29.6055 10.104 29.9296 10.4281 30.3295 10.4281Z" fill="#013A68" fill-opacity="0.13"/>
<path d="M32.5014 10.4281C32.9013 10.4281 33.2255 10.104 33.2255 9.70406C33.2255 9.30416 32.9013 8.97998 32.5014 8.97998C32.1015 8.97998 31.7773 9.30416 31.7773 9.70406C31.7773 10.104 32.1015 10.4281 32.5014 10.4281Z" fill="#013A68" fill-opacity="0.13"/>
<path d="M34.6743 10.4281C35.0742 10.4281 35.3983 10.104 35.3983 9.70406C35.3983 9.30416 35.0742 8.97998 34.6743 8.97998C34.2744 8.97998 33.9502 9.30416 33.9502 9.70406C33.9502 10.104 34.2744 10.4281 34.6743 10.4281Z" fill="#013A68" fill-opacity="0.13"/>
<path d="M26.7094 11.8763C27.1093 11.8763 27.4335 11.5521 27.4335 11.1522C27.4335 10.7523 27.1093 10.4281 26.7094 10.4281C26.3095 10.4281 25.9854 10.7523 25.9854 11.1522C25.9854 11.5521 26.3095 11.8763 26.7094 11.8763Z" fill="#013A68" fill-opacity="0.13"/>
<path d="M28.8813 11.8763C29.2812 11.8763 29.6054 11.5521 29.6054 11.1522C29.6054 10.7523 29.2812 10.4281 28.8813 10.4281C28.4814 10.4281 28.1572 10.7523 28.1572 11.1522C28.1572 11.5521 28.4814 11.8763 28.8813 11.8763Z" fill="#013A68" fill-opacity="0.13"/>
<path d="M31.0532 11.8763C31.4531 11.8763 31.7773 11.5521 31.7773 11.1522C31.7773 10.7523 31.4531 10.4281 31.0532 10.4281C30.6533 10.4281 30.3291 10.7523 30.3291 11.1522C30.3291 11.5521 30.6533 11.8763 31.0532 11.8763Z" fill="#013A68" fill-opacity="0.13"/>
<path d="M33.226 11.8763C33.6259 11.8763 33.9501 11.5521 33.9501 11.1522C33.9501 10.7523 33.6259 10.4281 33.226 10.4281C32.8261 10.4281 32.502 10.7523 32.502 11.1522C32.502 11.5521 32.8261 11.8763 33.226 11.8763Z" fill="#013A68" fill-opacity="0.13"/>
<path d="M35.3979 11.8763C35.7978 11.8763 36.122 11.5521 36.122 11.1522C36.122 10.7523 35.7978 10.4281 35.3979 10.4281C34.998 10.4281 34.6738 10.7523 34.6738 11.1522C34.6738 11.5521 34.998 11.8763 35.3979 11.8763Z" fill="#013A68" fill-opacity="0.13"/>
<path d="M27.4331 13.3244C27.833 13.3244 28.1571 13.0003 28.1571 12.6004C28.1571 12.2005 27.833 11.8763 27.4331 11.8763C27.0332 11.8763 26.709 12.2005 26.709 12.6004C26.709 13.0003 27.0332 13.3244 27.4331 13.3244Z" fill="#013A68" fill-opacity="0.13"/>
<path d="M29.6049 13.3244C30.0048 13.3244 30.329 13.0003 30.329 12.6004C30.329 12.2005 30.0048 11.8763 29.6049 11.8763C29.205 11.8763 28.8809 12.2005 28.8809 12.6004C28.8809 13.0003 29.205 13.3244 29.6049 13.3244Z" fill="#013A68" fill-opacity="0.13"/>
<path d="M31.7778 13.3244C32.1777 13.3244 32.5019 13.0003 32.5019 12.6004C32.5019 12.2005 32.1777 11.8763 31.7778 11.8763C31.3779 11.8763 31.0537 12.2005 31.0537 12.6004C31.0537 13.0003 31.3779 13.3244 31.7778 13.3244Z" fill="#013A68" fill-opacity="0.13"/>
<path d="M33.9497 13.3244C34.3496 13.3244 34.6737 13.0003 34.6737 12.6004C34.6737 12.2005 34.3496 11.8763 33.9497 11.8763C33.5498 11.8763 33.2256 12.2005 33.2256 12.6004C33.2256 13.0003 33.5498 13.3244 33.9497 13.3244Z" fill="#013A68" fill-opacity="0.13"/>
<path d="M28.1567 14.7726C28.5566 14.7726 28.8808 14.4484 28.8808 14.0485C28.8808 13.6486 28.5566 13.3244 28.1567 13.3244C27.7568 13.3244 27.4326 13.6486 27.4326 14.0485C27.4326 14.4484 27.7568 14.7726 28.1567 14.7726Z" fill="#013A68" fill-opacity="0.13"/>
<path d="M30.3295 14.7726C30.7294 14.7726 31.0536 14.4484 31.0536 14.0485C31.0536 13.6486 30.7294 13.3244 30.3295 13.3244C29.9296 13.3244 29.6055 13.6486 29.6055 14.0485C29.6055 14.4484 29.9296 14.7726 30.3295 14.7726Z" fill="#013A68" fill-opacity="0.13"/>
<path d="M32.5014 14.7726C32.9013 14.7726 33.2255 14.4484 33.2255 14.0485C33.2255 13.6486 32.9013 13.3244 32.5014 13.3244C32.1015 13.3244 31.7773 13.6486 31.7773 14.0485C31.7773 14.4484 32.1015 14.7726 32.5014 14.7726Z" fill="#013A68" fill-opacity="0.13"/>
<path d="M34.6743 14.7726C35.0742 14.7726 35.3983 14.4484 35.3983 14.0485C35.3983 13.6486 35.0742 13.3244 34.6743 13.3244C34.2744 13.3244 33.9502 13.6486 33.9502 14.0485C33.9502 14.4484 34.2744 14.7726 34.6743 14.7726Z" fill="#013A68" fill-opacity="0.13"/>
<path d="M26.7094 16.2207C27.1093 16.2207 27.4335 15.8966 27.4335 15.4967C27.4335 15.0968 27.1093 14.7726 26.7094 14.7726C26.3095 14.7726 25.9854 15.0968 25.9854 15.4967C25.9854 15.8966 26.3095 16.2207 26.7094 16.2207Z" fill="#013A68" fill-opacity="0.13"/>
<path d="M28.8813 16.2207C29.2812 16.2207 29.6054 15.8966 29.6054 15.4967C29.6054 15.0968 29.2812 14.7726 28.8813 14.7726C28.4814 14.7726 28.1572 15.0968 28.1572 15.4967C28.1572 15.8966 28.4814 16.2207 28.8813 16.2207Z" fill="#013A68" fill-opacity="0.13"/>
<path d="M31.0532 16.2207C31.4531 16.2207 31.7773 15.8966 31.7773 15.4967C31.7773 15.0968 31.4531 14.7726 31.0532 14.7726C30.6533 14.7726 30.3291 15.0968 30.3291 15.4967C30.3291 15.8966 30.6533 16.2207 31.0532 16.2207Z" fill="#013A68" fill-opacity="0.13"/>
<path d="M33.226 16.2207C33.6259 16.2207 33.9501 15.8966 33.9501 15.4967C33.9501 15.0968 33.6259 14.7726 33.226 14.7726C32.8261 14.7726 32.502 15.0968 32.502 15.4967C32.502 15.8966 32.8261 16.2207 33.226 16.2207Z" fill="#013A68" fill-opacity="0.13"/>
<path d="M27.4331 17.6689C27.833 17.6689 28.1571 17.3447 28.1571 16.9448C28.1571 16.5449 27.833 16.2207 27.4331 16.2207C27.0332 16.2207 26.709 16.5449 26.709 16.9448C26.709 17.3447 27.0332 17.6689 27.4331 17.6689Z" fill="#013A68" fill-opacity="0.13"/>
<path d="M29.6049 17.6689C30.0048 17.6689 30.329 17.3447 30.329 16.9448C30.329 16.5449 30.0048 16.2207 29.6049 16.2207C29.205 16.2207 28.8809 16.5449 28.8809 16.9448C28.8809 17.3447 29.205 17.6689 29.6049 17.6689Z" fill="#013A68" fill-opacity="0.13"/>
<path d="M31.7778 17.6689C32.1777 17.6689 32.5019 17.3447 32.5019 16.9448C32.5019 16.5449 32.1777 16.2207 31.7778 16.2207C31.3779 16.2207 31.0537 16.5449 31.0537 16.9448C31.0537 17.3447 31.3779 17.6689 31.7778 17.6689Z" fill="#013A68" fill-opacity="0.13"/>
<path d="M33.9497 17.6689C34.3496 17.6689 34.6737 17.3447 34.6737 16.9448C34.6737 16.5449 34.3496 16.2207 33.9497 16.2207C33.5498 16.2207 33.2256 16.5449 33.2256 16.9448C33.2256 17.3447 33.5498 17.6689 33.9497 17.6689Z" fill="#013A68" fill-opacity="0.13"/>
<path d="M28.1567 19.117C28.5566 19.117 28.8808 18.7929 28.8808 18.393C28.8808 17.9931 28.5566 17.6689 28.1567 17.6689C27.7568 17.6689 27.4326 17.9931 27.4326 18.393C27.4326 18.7929 27.7568 19.117 28.1567 19.117Z" fill="#013A68" fill-opacity="0.13"/>
<path d="M30.3295 19.117C30.7294 19.117 31.0536 18.7929 31.0536 18.393C31.0536 17.9931 30.7294 17.6689 30.3295 17.6689C29.9296 17.6689 29.6055 17.9931 29.6055 18.393C29.6055 18.7929 29.9296 19.117 30.3295 19.117Z" fill="#013A68" fill-opacity="0.13"/>
<path d="M32.5014 19.117C32.9013 19.117 33.2255 18.7929 33.2255 18.393C33.2255 17.9931 32.9013 17.6689 32.5014 17.6689C32.1015 17.6689 31.7773 17.9931 31.7773 18.393C31.7773 18.7929 32.1015 19.117 32.5014 19.117Z" fill="#013A68" fill-opacity="0.13"/>
<path d="M26.7094 20.5652C27.1093 20.5652 27.4335 20.241 27.4335 19.8411C27.4335 19.4412 27.1093 19.117 26.7094 19.117C26.3095 19.117 25.9854 19.4412 25.9854 19.8411C25.9854 20.241 26.3095 20.5652 26.7094 20.5652Z" fill="#013A68" fill-opacity="0.13"/>
<path d="M28.8813 20.5652C29.2812 20.5652 29.6054 20.241 29.6054 19.8411C29.6054 19.4412 29.2812 19.117 28.8813 19.117C28.4814 19.117 28.1572 19.4412 28.1572 19.8411C28.1572 20.241 28.4814 20.5652 28.8813 20.5652Z" fill="#013A68" fill-opacity="0.13"/>
<path d="M31.0532 20.5652C31.4531 20.5652 31.7773 20.241 31.7773 19.8411C31.7773 19.4412 31.4531 19.117 31.0532 19.117C30.6533 19.117 30.3291 19.4412 30.3291 19.8411C30.3291 20.241 30.6533 20.5652 31.0532 20.5652Z" fill="#013A68" fill-opacity="0.13"/>
<path d="M33.226 20.5652C33.6259 20.5652 33.9501 20.241 33.9501 19.8411C33.9501 19.4412 33.6259 19.117 33.226 19.117C32.8261 19.117 32.502 19.4412 32.502 19.8411C32.502 20.241 32.8261 20.5652 33.226 20.5652Z" fill="#013A68" fill-opacity="0.13"/>
<path d="M27.4331 22.0133C27.833 22.0133 28.1571 21.6892 28.1571 21.2893C28.1571 20.8894 27.833 20.5652 27.4331 20.5652C27.0332 20.5652 26.709 20.8894 26.709 21.2893C26.709 21.6892 27.0332 22.0133 27.4331 22.0133Z" fill="#013A68" fill-opacity="0.13"/>
<path d="M29.6049 22.0133C30.0048 22.0133 30.329 21.6892 30.329 21.2893C30.329 20.8894 30.0048 20.5652 29.6049 20.5652C29.205 20.5652 28.8809 20.8894 28.8809 21.2893C28.8809 21.6892 29.205 22.0133 29.6049 22.0133Z" fill="#013A68" fill-opacity="0.13"/>
<path d="M31.7778 22.0133C32.1777 22.0133 32.5019 21.6892 32.5019 21.2893C32.5019 20.8894 32.1777 20.5652 31.7778 20.5652C31.3779 20.5652 31.0537 20.8894 31.0537 21.2893C31.0537 21.6892 31.3779 22.0133 31.7778 22.0133Z" fill="#013A68" fill-opacity="0.13"/>
<path d="M28.1567 23.4615C28.5566 23.4615 28.8808 23.1373 28.8808 22.7374C28.8808 22.3375 28.5566 22.0133 28.1567 22.0133C27.7568 22.0133 27.4326 22.3375 27.4326 22.7374C27.4326 23.1373 27.7568 23.4615 28.1567 23.4615Z" fill="#013A68" fill-opacity="0.13"/>
<path d="M30.3295 23.4615C30.7294 23.4615 31.0536 23.1373 31.0536 22.7374C31.0536 22.3375 30.7294 22.0133 30.3295 22.0133C29.9296 22.0133 29.6055 22.3375 29.6055 22.7374C29.6055 23.1373 29.9296 23.4615 30.3295 23.4615Z" fill="#013A68" fill-opacity="0.13"/>
<path d="M32.5014 23.4615C32.9013 23.4615 33.2255 23.1373 33.2255 22.7374C33.2255 22.3375 32.9013 22.0133 32.5014 22.0133C32.1015 22.0133 31.7773 22.3375 31.7773 22.7374C31.7773 23.1373 32.1015 23.4615 32.5014 23.4615Z" fill="#013A68" fill-opacity="0.13"/>
<path d="M26.7094 24.9096C27.1093 24.9096 27.4335 24.5855 27.4335 24.1856C27.4335 23.7857 27.1093 23.4615 26.7094 23.4615C26.3095 23.4615 25.9854 23.7857 25.9854 24.1856C25.9854 24.5855 26.3095 24.9096 26.7094 24.9096Z" fill="#013A68" fill-opacity="0.13"/>
<path d="M28.8813 24.9096C29.2812 24.9096 29.6054 24.5855 29.6054 24.1856C29.6054 23.7857 29.2812 23.4615 28.8813 23.4615C28.4814 23.4615 28.1572 23.7857 28.1572 24.1856C28.1572 24.5855 28.4814 24.9096 28.8813 24.9096Z" fill="#013A68" fill-opacity="0.13"/>
<path d="M31.0532 24.9096C31.4531 24.9096 31.7773 24.5855 31.7773 24.1856C31.7773 23.7857 31.4531 23.4615 31.0532 23.4615C30.6533 23.4615 30.3291 23.7857 30.3291 24.1856C30.3291 24.5855 30.6533 24.9096 31.0532 24.9096Z" fill="#013A68" fill-opacity="0.13"/>
<path d="M27.4331 26.3578C27.833 26.3578 28.1571 26.0336 28.1571 25.6337C28.1571 25.2338 27.833 24.9096 27.4331 24.9096C27.0332 24.9096 26.709 25.2338 26.709 25.6337C26.709 26.0336 27.0332 26.3578 27.4331 26.3578Z" fill="#013A68" fill-opacity="0.13"/>
<path d="M29.6049 26.3578C30.0048 26.3578 30.329 26.0336 30.329 25.6337C30.329 25.2338 30.0048 24.9096 29.6049 24.9096C29.205 24.9096 28.8809 25.2338 28.8809 25.6337C28.8809 26.0336 29.205 26.3578 29.6049 26.3578Z" fill="#013A68" fill-opacity="0.13"/>
<path d="M31.7778 26.3578C32.1777 26.3578 32.5019 26.0336 32.5019 25.6337C32.5019 25.2338 32.1777 24.9096 31.7778 24.9096C31.3779 24.9096 31.0537 25.2338 31.0537 25.6337C31.0537 26.0336 31.3779 26.3578 31.7778 26.3578Z" fill="#013A68" fill-opacity="0.13"/>
<path d="M28.1567 27.8059C28.5566 27.8059 28.8808 27.4818 28.8808 27.0819C28.8808 26.682 28.5566 26.3578 28.1567 26.3578C27.7568 26.3578 27.4326 26.682 27.4326 27.0819C27.4326 27.4818 27.7568 27.8059 28.1567 27.8059Z" fill="#013A68" fill-opacity="0.13"/>
<path d="M30.3295 27.8059C30.7294 27.8059 31.0536 27.4818 31.0536 27.0819C31.0536 26.682 30.7294 26.3578 30.3295 26.3578C29.9296 26.3578 29.6055 26.682 29.6055 27.0819C29.6055 27.4818 29.9296 27.8059 30.3295 27.8059Z" fill="#013A68" fill-opacity="0.13"/>
<path d="M26.7094 29.2541C27.1093 29.2541 27.4335 28.9299 27.4335 28.53C27.4335 28.1301 27.1093 27.8059 26.7094 27.8059C26.3095 27.8059 25.9854 28.1301 25.9854 28.53C25.9854 28.9299 26.3095 29.2541 26.7094 29.2541Z" fill="#013A68" fill-opacity="0.13"/>
<path d="M28.8813 29.2541C29.2812 29.2541 29.6054 28.9299 29.6054 28.53C29.6054 28.1301 29.2812 27.8059 28.8813 27.8059C28.4814 27.8059 28.1572 28.1301 28.1572 28.53C28.1572 28.9299 28.4814 29.2541 28.8813 29.2541Z" fill="#013A68" fill-opacity="0.13"/>
<path d="M31.0532 29.2541C31.4531 29.2541 31.7773 28.9299 31.7773 28.53C31.7773 28.1301 31.4531 27.8059 31.0532 27.8059C30.6533 27.8059 30.3291 28.1301 30.3291 28.53C30.3291 28.9299 30.6533 29.2541 31.0532 29.2541Z" fill="#013A68" fill-opacity="0.13"/>
<path d="M27.4331 30.7022C27.833 30.7022 28.1571 30.3781 28.1571 29.9782C28.1571 29.5783 27.833 29.2541 27.4331 29.2541C27.0332 29.2541 26.709 29.5783 26.709 29.9782C26.709 30.3781 27.0332 30.7022 27.4331 30.7022Z" fill="#013A68" fill-opacity="0.13"/>
<path d="M29.6049 30.7022C30.0048 30.7022 30.329 30.3781 30.329 29.9782C30.329 29.5783 30.0048 29.2541 29.6049 29.2541C29.205 29.2541 28.8809 29.5783 28.8809 29.9782C28.8809 30.3781 29.205 30.7022 29.6049 30.7022Z" fill="#013A68" fill-opacity="0.13"/>
<path d="M28.1567 32.1504C28.5566 32.1504 28.8808 31.8262 28.8808 31.4263C28.8808 31.0264 28.5566 30.7022 28.1567 30.7022C27.7568 30.7022 27.4326 31.0264 27.4326 31.4263C27.4326 31.8262 27.7568 32.1504 28.1567 32.1504Z" fill="#013A68" fill-opacity="0.13"/>
<path d="M30.3295 32.1504C30.7294 32.1504 31.0536 31.8262 31.0536 31.4263C31.0536 31.0264 30.7294 30.7022 30.3295 30.7022C29.9296 30.7022 29.6055 31.0264 29.6055 31.4263C29.6055 31.8262 29.9296 32.1504 30.3295 32.1504Z" fill="#013A68" fill-opacity="0.13"/>
<path d="M27.4331 33.5985C27.833 33.5985 28.1571 33.2744 28.1571 32.8745C28.1571 32.4746 27.833 32.1504 27.4331 32.1504C27.0332 32.1504 26.709 32.4746 26.709 32.8745C26.709 33.2744 27.0332 33.5985 27.4331 33.5985Z" fill="#013A68" fill-opacity="0.13"/>
<path d="M29.6049 33.5985C30.0048 33.5985 30.329 33.2744 30.329 32.8745C30.329 32.4746 30.0048 32.1504 29.6049 32.1504C29.205 32.1504 28.8809 32.4746 28.8809 32.8745C28.8809 33.2744 29.205 33.5985 29.6049 33.5985Z" fill="#013A68" fill-opacity="0.13"/>
</g>
<defs>
<clipPath id="clip0_238_18114">
<rect width="42" height="42" fill="white"/>
</clipPath>
</defs>
</svg>
