<svg width="632" height="422" viewBox="0 0 632 422" fill="none" xmlns="http://www.w3.org/2000/svg">
<path d="M436.786 132.145C438.358 132.145 439.632 130.869 439.632 129.294C439.632 127.72 438.358 126.443 436.786 126.443C435.214 126.443 433.939 127.72 433.939 129.294C433.939 130.869 435.214 132.145 436.786 132.145Z" fill="#29ABE2"/>
<path d="M346.481 238.514C348.053 238.514 349.328 237.237 349.328 235.663C349.328 234.088 348.053 232.812 346.481 232.812C344.909 232.812 343.635 234.088 343.635 235.663C343.635 237.237 344.909 238.514 346.481 238.514Z" fill="#29ABE2"/>
<path d="M488.106 235.663C488.106 239.704 484.834 242.981 480.799 242.981C476.763 242.981 473.492 239.704 473.492 235.663C473.492 231.621 476.763 228.344 480.799 228.344C484.834 228.344 488.106 231.621 488.106 235.663Z" fill="#29ABE2"/>
<path d="M102.512 111.737C104.623 111.737 106.336 110.023 106.336 107.907C106.336 105.792 104.623 104.077 102.512 104.077C100.4 104.077 98.6875 105.792 98.6875 107.907C98.6875 110.023 100.4 111.737 102.512 111.737Z" fill="#29ABE2"/>
<path d="M198.62 88.0698C200.732 88.0698 202.444 86.355 202.444 84.2397C202.444 82.1244 200.732 80.4097 198.62 80.4097C196.508 80.4097 194.796 82.1244 194.796 84.2397C194.796 86.355 196.508 88.0698 198.62 88.0698Z" fill="#29ABE2"/>
<path d="M82.107 244.35C86.898 239.551 86.898 231.771 82.107 226.973C77.3159 222.174 69.5481 222.174 64.757 226.973C59.9659 231.771 59.966 239.551 64.757 244.35C69.5481 249.149 77.3159 249.149 82.107 244.35Z" fill="#29ABE2"/>
<path d="M124.685 358.672C127.081 356.272 127.081 352.382 124.685 349.983C122.29 347.583 118.405 347.583 116.01 349.983C113.614 352.382 113.614 356.272 116.01 358.672C118.405 361.071 122.29 361.071 124.685 358.672Z" fill="#29ABE2"/>
<path d="M334.406 58.4344C338.102 58.4344 341.098 55.4338 341.098 51.7322C341.098 48.0307 338.102 45.03 334.406 45.03C330.711 45.03 327.715 48.0307 327.715 51.7322C327.715 55.4338 330.711 58.4344 334.406 58.4344Z" fill="#29ABE2"/>
<path d="M176.018 364.183C176.147 346.82 172.067 328.806 163.916 313.454C163.7 313.047 163.161 312.846 162.726 312.97C156.968 314.613 151.21 316.256 145.452 317.899C144.853 318.071 144.651 318.594 144.73 319.073C144.74 319.196 144.766 319.322 144.823 319.449C152.4 336.559 155.17 355.275 153.004 373.858C152.952 374.299 153.366 374.776 153.777 374.875C159.035 376.148 165.119 375.651 170.388 374.668C171.856 374.393 174.116 374.09 175.149 372.843C176.658 371.023 176.002 366.384 176.018 364.183Z" fill="black"/>
<path d="M173.767 368.641C173.613 371.271 173.551 371.775 170.99 372.399C166.841 373.409 162.226 373.573 157.974 373.324C157.405 373.291 155.59 373.423 155.221 373.036C154.962 372.765 155.431 370.928 155.505 370.076C155.809 366.541 155.928 362.991 155.863 359.443C155.611 345.695 152.57 332.209 147.163 319.598C151.984 318.184 156.807 316.567 161.693 315.459C163.631 315.019 162.508 314.842 162.957 316.159C163.948 319.066 165.632 321.822 166.726 324.716C168.809 330.218 170.411 335.905 171.598 341.665C172.859 347.786 173.641 354.012 173.857 360.259C173.953 363.053 173.93 365.851 173.767 368.641Z" fill="black"/>
<path d="M259.464 330.147L254.192 254.533C253.972 251.401 252.501 248.581 250.325 246.543C248.149 244.506 245.243 243.228 242.113 243.227H117.029C114.034 243.226 111.344 244.41 109.422 246.343C107.498 248.274 106.333 250.959 106.335 253.914C106.335 254.177 106.344 254.442 106.363 254.709L111.634 330.324C111.854 333.456 113.325 336.276 115.501 338.313C117.677 340.351 120.584 341.628 123.713 341.629H248.797C251.792 341.631 254.483 340.447 256.404 338.513C258.328 336.583 259.493 333.897 259.491 330.943C259.491 330.68 259.482 330.414 259.464 330.147Z" fill="black"/>
<path d="M254.614 336.726C253.151 338.192 251.127 339.096 248.797 339.097H123.713C121.282 339.098 118.973 338.097 117.227 336.463C115.482 334.829 114.324 332.586 114.156 330.147L108.884 254.532C108.87 254.323 108.862 254.117 108.862 253.913C108.864 251.624 109.752 249.599 111.213 248.13C112.675 246.664 114.699 245.76 117.029 245.759H242.113C244.545 245.758 246.853 246.759 248.599 248.393C250.344 250.027 251.502 252.27 251.671 254.709L256.942 330.324C256.957 330.532 256.964 330.739 256.964 330.943C256.962 333.232 256.074 335.257 254.614 336.726Z" fill="#BDEAFF"/>
<path d="M262.086 326.53L257.124 258.196C256.914 255.318 255.506 252.737 253.443 250.882C251.378 249.027 248.633 247.871 245.682 247.87H127.961C125.137 247.868 122.595 248.939 120.767 250.704C118.938 252.465 117.82 254.933 117.821 257.65C117.821 257.893 117.83 258.137 117.848 258.381L122.81 326.715C123.02 329.594 124.428 332.175 126.491 334.029C128.556 335.884 131.301 337.04 134.252 337.041H251.974C254.798 337.043 257.34 335.972 259.168 334.207C260.997 332.447 262.115 329.979 262.114 327.261C262.113 327.019 262.104 326.776 262.086 326.53Z" fill="black"/>
<path d="M257.413 332.383C256.056 333.691 254.161 334.508 251.973 334.508H134.252C131.969 334.51 129.806 333.606 128.18 332.144C126.552 330.68 125.486 328.685 125.33 326.53L120.369 258.196C120.355 258.012 120.349 257.829 120.349 257.65C120.35 255.628 121.164 253.839 122.52 252.527C123.878 251.22 125.773 250.403 127.96 250.402H245.682C247.965 250.4 250.128 251.304 251.754 252.767C253.381 254.23 254.447 256.226 254.602 258.38L259.564 326.714C259.577 326.898 259.584 327.081 259.584 327.261C259.582 329.282 258.769 331.072 257.413 332.383Z" fill="white"/>
<path d="M446.675 272.78C443.873 269.505 439.501 269.144 435.48 269.058C432.619 268.997 429.766 269.141 426.915 269.32C428.215 268.858 429.516 268.398 430.807 267.913C433.621 266.857 439.089 262.834 434.617 259.834C432.325 258.297 428.352 258.856 425.827 259.121C421.832 259.538 417.875 260.367 414.053 261.606C406.606 264.022 399.667 267.877 393.679 272.925C390.533 275.578 387.553 278.578 385.111 281.904C383.817 283.666 384.093 284.149 384.517 286.213C385.584 291.409 386.541 295.976 391.36 299.103C398.263 303.583 406.006 300.032 412.689 296.922C414.956 295.867 417.401 294.092 419.76 293.326C420.51 293.083 420.759 292.929 420.778 292.831C420.915 292.912 421.051 292.998 421.19 293.009C423.961 293.227 427.327 295.304 430.066 296.012C432.768 296.71 440.596 298.625 442.033 294.907C443.742 290.487 437.682 287.656 432.088 285.993C437.996 285.458 444.083 283.818 444.643 278.424C447.375 277.492 448.931 275.417 446.675 272.78Z" fill="black"/>
<path d="M443.607 276.526C441.8 277.618 437.227 276.432 435.167 276.37C429.816 276.211 424.501 276.698 419.233 277.618C417.9 277.851 418.466 279.885 419.794 279.653C424.363 278.856 428.955 278.416 433.595 278.451C436.42 278.473 439.554 279.185 442.43 278.894C441.007 284.286 429.478 284.126 424.359 284.193C424.281 284.186 424.206 284.187 424.133 284.197C423.794 284.202 423.485 284.208 423.213 284.219C421.862 284.269 421.855 286.379 423.213 286.329C423.529 286.317 423.873 286.308 424.233 286.301C427.062 286.854 429.928 287.406 432.64 288.404C434.325 289.023 442.447 292.934 439.147 294.63C436.111 296.191 430.43 293.997 427.564 293.083C425.622 292.463 422.285 290.331 420.207 290.676C418.799 290.91 417.185 292.338 415.898 293.002C414.488 293.73 413.064 294.431 411.626 295.101C407.856 296.858 403.631 299.018 399.376 299.192C393.151 299.447 388.477 295.041 387.277 289.199C386.984 287.77 386.192 285.789 386.276 284.326C386.381 282.493 389.416 279.936 390.865 278.434C399.527 269.449 411.188 263.415 423.514 261.529C425.391 261.242 427.389 260.979 429.301 260.992C431.336 261.005 435.878 262.323 432.668 264.818C431.578 265.665 429.755 266.055 428.437 266.525C425.386 267.614 422.336 268.702 419.286 269.79C418.226 270.168 418.309 271.914 419.565 271.862C426.44 271.583 434.341 269.902 441.083 271.751C442.991 272.274 447.241 274.329 443.607 276.526Z" fill="white"/>
<path d="M425.313 271.482C421.702 269.63 416.478 269.597 412.546 269.824C408.998 270.029 404.989 270.304 401.976 272.37C401.924 272.405 401.881 272.445 401.839 272.485C401.814 272.502 401.788 272.514 401.762 272.534C397.092 276.278 392.655 283.056 399.823 286.881C402.458 288.288 405.199 287.909 407.608 286.284C408.817 285.469 409.833 284.403 410.944 283.47C413.368 281.433 415.749 280.66 418.822 280.191C421.618 279.766 425.917 279.513 427.491 276.665C428.711 274.457 427.277 272.489 425.313 271.482Z" fill="black"/>
<path d="M423.416 277.618C421.151 278.356 418.102 278.04 415.874 278.535C412.498 279.286 409.582 280.461 407.904 283.365C404.339 289.529 396.41 290.377 395.255 285.176C394.637 282.397 398.64 278.853 400.507 276.657C401.296 275.728 402.155 274.924 403.097 274.157C407.033 271.5 413.386 271.599 417.915 272.008C419.581 272.158 421.323 272.343 422.934 272.84C424.727 273.422 425.078 273.562 425.332 275.174C424.909 276.868 424.707 276.866 423.416 277.618Z" fill="white"/>
<path d="M402.861 300.92C397.525 293.736 392.001 286.245 388.575 277.919C388.313 277.283 387.684 276.934 387.028 277.289C383.015 279.456 379.073 282.439 376.431 286.196C376.415 286.219 376.406 286.242 376.392 286.264C376.389 286.27 376.386 286.275 376.383 286.281C376.151 286.674 376.23 287.053 376.469 287.324C381.259 294.976 385.452 302.988 390.872 310.239C391.301 310.814 391.964 310.926 392.526 310.453C395.868 307.641 399.354 305.01 402.696 302.198C403.019 301.927 403.12 301.267 402.861 300.92Z" fill="black"/>
<path d="M399.274 302.311C397.039 304.446 394.42 306.252 391.989 308.197C387.033 301.374 383.056 293.94 378.613 286.788C380.813 283.866 383.9 281.513 387.071 279.686C389.481 285.168 392.733 290.241 396.129 295.158C397.08 296.536 398.051 297.902 399.034 299.257C400.262 300.948 400.806 300.849 399.274 302.311Z" fill="#29ABE2"/>
<path d="M397.25 309.525C393.959 305.237 390.413 300.929 387.722 296.23C384.773 291.082 382.862 285.212 380.912 279.623C380.645 278.857 379.764 278.607 379.152 279.157C372.636 285.016 365.659 290.663 357.858 294.721C354.141 296.654 349.583 298.706 345.278 298.116C340.586 297.473 335.401 293.693 331.57 291.03C322.385 284.648 316.531 275.27 310.971 265.776C305.637 256.668 300.76 247.301 295.758 238.009C291.499 230.095 287.357 221.783 281.673 214.77C281.353 214.375 280.944 214.339 280.604 214.503C280.281 214.573 280.003 214.801 279.913 215.236C278.205 223.43 276.602 231.653 274.76 239.819C273.271 246.418 272.242 252.868 272.05 259.63C271.784 269.002 271.093 278.272 272.867 287.548C274.733 297.299 278.548 306.57 283.026 315.388C287 323.215 291.863 330.595 298.491 336.434C311.815 348.172 330.142 351.269 347.077 346.639C357.486 343.793 367.045 338.081 375.93 332.073C384.412 326.338 391.995 319.471 397.251 310.591C397.423 310.297 397.471 309.813 397.25 309.525Z" fill="black"/>
<path d="M393.262 312.968C387.038 321.997 377.99 328.545 368.733 334.166C358.151 340.59 347.173 345.9 334.607 346.558C323.493 347.14 312.46 344.327 303.425 337.72C295.209 331.711 289.406 323.307 284.844 314.322C279.173 303.155 274.625 291.178 273.817 278.566C273.265 269.952 273.614 260.526 274.621 251.923C275.95 240.577 279.05 229.164 281.476 217.954C286.618 224.767 290.506 232.681 294.516 240.148C299.991 250.343 305.328 260.632 311.345 270.522C316.905 279.662 322.952 287.982 332.047 293.879C335.782 296.3 340.343 299.539 344.847 300.196C348.346 300.707 351.943 299.624 355.147 298.307C364.161 294.601 372.151 288.206 379.421 281.74C381.247 287.011 383.137 292.48 385.903 297.295C387.51 300.091 389.519 302.683 391.431 305.273C392.375 306.551 393.688 307.86 394.422 309.268C394.553 309.517 395.236 310.068 395.255 310.361C395.255 310.358 393.597 312.482 393.262 312.968Z" fill="white"/>
<path d="M297.222 346.335C296.524 336.71 297.218 327.186 297.455 317.543C298.122 290.371 297.12 263.071 291.297 236.442C289.233 227.353 286.296 217.938 278.612 212.024C271.446 206.508 262.646 205.361 253.887 205.083C242.086 204.708 229.25 205.208 219.689 213.025C215.188 216.705 211.712 221.507 208.57 226.354C204.538 232.571 200.477 239.063 197.242 245.733C190.721 259.179 188.686 274.908 187.406 289.636C185.98 306.043 185.854 322.778 187.794 339.15C189.246 351.405 192.29 367.905 203.576 375.077C209.775 379.016 219.236 378.371 226.283 378.913C236.017 379.661 245.796 380.082 255.558 379.732C264.332 379.417 273.201 378.53 281.698 376.225C286.583 374.9 294.84 373.253 296.708 367.797C298.962 361.218 297.712 353.104 297.222 346.335Z" fill="black"/>
<path d="M293.189 369.49C290.415 371.79 285.652 372.898 282.252 373.878C278.415 374.986 274.489 375.768 270.54 376.345C253.299 378.862 235.582 377.743 218.312 376.118C214.375 375.747 209.907 375.865 206.269 374.164C202.729 372.509 200.067 369.388 198.032 366.134C194.412 360.344 192.331 353.59 191.068 346.914C188.465 333.16 188.22 318.817 188.635 304.866C189.088 289.647 190.499 274.178 194.514 259.449C197.96 246.81 204.91 235.177 212.354 224.484C215.749 219.606 219.694 214.98 224.887 211.962C230.29 208.823 236.555 207.708 242.713 207.307C251.571 206.728 261.548 206.534 269.951 209.665C282.08 214.183 286.589 225.223 289.265 237.002C294.049 258.877 295.563 281.243 295.536 303.595C295.522 314.834 294.769 326.045 294.633 337.273C294.57 342.519 295.291 347.771 295.533 353.008C295.735 357.381 297.026 366.309 293.189 369.49Z" fill="white"/>
<path d="M271.661 289.051C267.937 272.734 264.067 256.452 260.368 240.13C260.238 239.556 259.607 239.271 259.072 239.393C256.162 240.053 253.251 240.713 250.342 241.373C249.834 241.488 249.606 241.86 249.59 242.256C249.582 242.301 249.572 242.343 249.568 242.39C248.525 259.393 247.761 276.412 246.83 293.422C246.614 297.372 246.38 301.32 246.147 305.269C245.97 308.259 245.763 311.309 247.103 314.09C249.771 319.629 256.743 321.448 259.14 327.168C259.426 327.852 260.302 328.275 260.9 327.634C265.631 322.557 270.622 317.134 272.891 310.426C275.307 303.29 273.275 296.12 271.661 289.051Z" fill="black"/>
<path d="M271.581 307.29C270.112 314.302 265.162 319.948 260.397 325.082C258.126 321.257 254.194 319.247 251.102 316C247.912 312.649 248.039 308.9 248.299 304.547C248.551 300.335 248.793 296.121 249.021 291.907C249.9 275.687 250.64 259.458 251.626 243.244C253.938 242.72 256.249 242.196 258.561 241.672C261.767 255.788 265.092 269.877 268.34 283.984C270.031 291.328 273.163 299.744 271.581 307.29Z" fill="#29ABE2"/>
<path d="M265.615 228.376C265.251 225.688 263.433 224.33 260.833 224.199C255.499 223.929 249.552 225.649 244.284 226.386C238.203 227.41 239.36 231.386 241.444 235.801C242.933 238.953 244.572 242.16 246.467 245.092C248.18 247.74 249.858 248.29 252.929 247.82C254.944 247.511 259.155 247.21 260.823 246.141C261.796 245.518 262.169 243.745 262.563 242.702C264.131 238.545 266.226 232.9 265.615 228.376Z" fill="black"/>
<path d="M261.504 239.326C260.946 241.091 260.354 243.505 258.583 244.485C257.687 244.98 254.943 245.341 253.922 245.461C248.203 246.128 246.596 241.3 244.421 237.071C242.838 233.993 239.531 229.316 244.844 228.422C247.997 227.98 251.15 227.539 254.302 227.097C258.305 226.536 263.203 224.62 263.393 230.864C263.474 233.539 262.308 236.784 261.504 239.326Z" fill="#29ABE2"/>
<path d="M323.671 324.843C321.414 312.904 308.602 305.245 297.311 304.898C290.4 304.686 283.603 306.593 277.452 309.663C274.073 311.351 270.881 313.402 267.85 315.652C266.518 316.642 264.539 317.645 263.977 319.208C263.142 321.527 263.826 325.461 263.767 327.904C263.697 330.811 263.627 333.718 263.557 336.625C263.548 336.981 263.76 337.369 264.079 337.536C269.895 340.595 276.705 341.231 282.919 338.928C284.299 338.417 285.706 337.252 287.052 336.888C289.803 336.146 291.691 339.786 292.035 342.238C292.39 344.768 291.999 347.504 293.438 349.809C295.815 353.616 299.37 349.666 300.82 346.985C300.888 346.861 300.935 346.732 300.997 346.606C302.039 347.529 303.534 347.906 305.075 347.713C307.91 347.36 308.543 345.316 309.154 342.723C309.202 342.514 309.229 342.306 309.267 342.098C309.524 342.209 309.829 342.199 310.141 341.977C313.073 339.885 314.552 335.01 314.626 331.557C314.695 328.37 313.203 325.36 311.254 322.636C312.755 323.746 314.199 324.929 315.516 326.259C316.951 327.708 318.447 330.337 320.792 330.392C323.878 330.465 324.109 327.162 323.671 324.843Z" fill="black"/>
<path d="M321.775 326.659C320.266 329.032 314.878 322.796 313.668 321.841C311.304 319.975 308.763 318.347 306.246 316.701C306.081 316.555 305.903 316.48 305.726 316.464C305.691 316.458 305.657 316.459 305.624 316.458C305.615 316.458 305.608 316.457 305.599 316.457C305.201 316.453 304.864 316.725 304.698 317.088C304.692 317.099 304.687 317.111 304.682 317.122C304.673 317.145 304.664 317.167 304.655 317.191C304.52 317.532 304.544 317.935 304.857 318.283C307.739 321.488 311.918 325.834 312.436 330.359C312.746 333.076 311.669 337.854 309.455 339.847C309.426 337.655 308.825 335.521 307.886 333.447C305.865 328.98 304.172 324.249 300.908 320.519C300.013 319.496 298.527 320.993 299.418 322.011C302.528 325.565 304.165 330.244 306.067 334.512C307.022 336.652 307.654 338.985 307.276 341.328C307.152 342.093 306.996 343.374 306.573 344.053C305.639 345.555 302.612 346.666 301.837 344.173C302.982 338.811 300.124 332.746 297.169 328.48C296.401 327.372 294.574 328.426 295.35 329.546C297.742 332.999 299.885 337.208 300.005 341.51C300.075 343.986 296.012 352.642 294.513 346.628C293.926 344.274 294.488 341.805 293.568 339.528C292.61 337.153 290.593 335.465 288.583 334.001C288.308 333.801 287.794 333.801 287.52 334.001C282.288 337.817 275.772 339.188 269.474 337.497C268.855 337.331 265.518 336.341 265.665 336.577C265.542 336.381 265.737 335.909 265.687 335.68C265.445 334.579 265.752 332.99 265.779 331.861C265.859 328.544 265.939 325.227 266.019 321.91C266.034 321.263 265.78 319.959 266.08 319.38C266.264 319.024 268.392 317.864 268.914 317.476C270.243 316.488 271.603 315.544 272.995 314.65C284.298 307.388 299.868 303.284 311.794 311.589C314.718 313.625 317.061 316.288 318.938 319.309C319.497 320.209 322.74 325.142 321.775 326.659Z" fill="white"/>
<path d="M268.061 329.103C267.547 326.286 267.016 323.472 266.467 320.661C266.165 319.113 266.051 316.771 264.729 315.62C261.926 313.182 258.808 317.012 256.136 317.437C255.902 317.474 255.729 317.569 255.605 317.697L255.604 317.698C255.583 317.72 255.565 317.743 255.547 317.767C255.407 317.932 255.329 318.158 255.362 318.455C256.363 327.155 257.365 335.857 258.366 344.558C258.425 345.07 258.804 345.687 259.42 345.613C262.704 345.214 266.355 344.682 268.376 341.738C270.783 338.232 268.744 332.846 268.061 329.103Z" fill="black"/>
<path d="M264.991 342.064C263.666 342.908 261.919 343.193 260.338 343.39C259.415 335.365 258.491 327.338 257.567 319.313C257.968 319.217 258.242 319.094 258.884 318.788C260.566 317.983 260.131 317.435 262.32 318.281C264.501 319.123 264.188 319.943 264.585 321.989C264.883 323.523 265.175 325.057 265.462 326.592C265.938 329.132 266.561 331.71 266.855 334.278C267.182 337.131 267.798 340.278 264.991 342.064Z" fill="#29ABE2"/>
<path d="M264.471 336.592C263.831 331.485 263.134 326.352 261.956 321.338C261.45 319.185 260.752 314.442 258.223 313.532C256.143 312.785 252.108 315.498 250.308 316.236C245.076 318.377 239.722 320.022 234.311 321.637C229.575 323.051 213.93 330.672 211.509 322.889C209.85 317.557 211.086 310.177 211.741 304.744C212.515 298.329 213.895 292.017 215.377 285.736C217.944 274.86 220.762 263.943 221.26 252.726C221.788 240.824 219.559 229.039 217.352 217.402C217.363 217.393 217.374 217.384 217.385 217.375C218.451 216.538 216.951 215.055 215.895 215.883C190.403 235.906 171.068 262.469 161.853 293.67C157.8 307.393 154.711 322.121 155.122 336.499C155.485 349.209 159.379 362.971 170.894 369.949C184.824 378.39 205.066 374.489 219.782 370.34C228.329 367.93 236.618 364.545 244.415 360.289C248.071 358.293 251.622 356.101 255.044 353.724C256.638 352.616 258.203 351.465 259.741 350.279C261.172 349.175 264.39 347.474 265.113 345.877C266.172 343.538 264.78 339.06 264.471 336.592Z" fill="black"/>
<path d="M260.971 346.627C254.236 352.146 246.843 356.858 239.039 360.707C223.588 368.327 205.447 373.264 188.118 372.444C179.43 372.033 171.137 369.275 165.412 362.437C161.037 357.212 158.809 350.538 157.838 343.872C155.903 330.599 158.291 316.866 161.323 303.943C165.879 284.521 173.667 265.694 185.649 249.657C194.024 238.447 204.545 227.74 215.495 218.886C217.358 228.707 219.184 238.601 219.236 248.629C219.291 259.15 217.075 269.446 214.665 279.633C212.509 288.746 210.277 297.844 209.372 307.187C208.929 311.756 208.63 316.52 209.109 321.1C209.349 323.4 209.917 325.682 211.857 327.135C215.249 329.676 220.332 328.14 223.957 327.037C232.187 324.533 240.622 322.321 248.633 319.175C250.628 318.391 252.596 317.541 254.581 316.735C256.359 316.011 256.849 315.179 258.08 316.245C259.159 317.18 259.526 320.238 259.841 321.535C261.037 326.476 261.733 331.553 262.365 336.591C262.61 338.55 262.835 340.513 263.044 342.476C263.324 345.12 263.243 344.765 260.971 346.627Z" fill="white"/>
<path d="M267.486 211.809C259.534 204.938 250.061 200.096 239.318 200.711C229.68 201.263 219.961 206.283 215.728 215.315C210.89 225.637 213.031 238.317 214.715 249.101C214.865 250.068 216.192 250.033 216.64 249.353C225.107 236.501 240.968 232.307 254.911 238.526C255.205 238.658 255.49 238.65 255.736 238.56C255.964 238.503 256.181 238.376 256.352 238.148C259.239 234.289 262.037 232.857 267.059 233.287C272.388 233.744 278.03 235.9 282.007 239.525C282.604 240.07 283.929 239.756 283.805 238.779C282.435 227.991 275.526 218.756 267.486 211.809Z" fill="black"/>
<path d="M266.007 231.112C260.846 230.93 258.006 232.687 255.105 236.339C241.101 230.515 225.608 234.21 216.372 246.13C214.934 236.78 213.661 226.548 217.046 217.572C220.625 208.082 230.833 202.975 240.508 202.775C250.252 202.574 258.775 207.072 265.996 213.302C272.915 219.271 279.226 227.13 281.239 236.229C276.849 233.115 271.284 231.297 266.007 231.112Z" fill="white"/>
<path d="M299.385 168.645C298.691 162.342 293.203 160.094 287.602 161.058C287.521 161.061 287.436 161.073 287.347 161.097C287.26 161.113 287.183 161.138 287.112 161.168C281.009 162.903 275.461 167.515 276.177 174.41C276.799 180.391 281.968 184.512 287.951 183.536C294.49 182.471 300.117 175.307 299.385 168.645Z" fill="black"/>
<path d="M297.171 171.073C296.488 176.246 291.839 181.408 286.423 181.579C281.482 181.735 278.096 177.599 278.2 172.864C278.315 167.563 283.322 164.376 287.906 163.132C293.307 162.109 297.968 165.045 297.171 171.073Z" fill="white"/>
<path d="M289.469 142.501C288.083 130.872 287.423 118.237 279.934 108.624C272.322 98.8526 257.898 92.3116 245.548 93.3894C233.455 94.4444 222.32 101.495 215.22 111.201C206.505 123.113 203.389 140.103 207.355 154.358C211 167.457 219.288 179.674 227.844 190.083C228.849 197.336 228.472 204.531 227.1 211.709C226.7 213.802 225.447 216.818 226.469 218.863C228.095 222.117 232.656 225.216 235.335 227.512C239.479 231.064 244.036 234.569 248.918 237.036C251.677 238.43 256.708 240.196 259.104 237.2C260.212 235.814 260.118 233.597 260.303 231.93C260.796 227.463 261.449 223.015 262.065 218.563C262.565 214.957 262.977 211.343 263.446 207.734C263.78 205.154 264.122 202.668 266.38 200.982C267.79 199.928 269.57 199.467 271.122 198.667C277.199 195.535 281.92 190.141 285.257 184.261C292.804 170.968 291.202 157.035 289.469 142.501Z" fill="black"/>
<path d="M286.607 176.407C284.047 183.374 279.732 190.144 273.691 194.57C270.169 197.149 264.672 197.981 262.615 202.152C261.554 204.302 261.45 206.87 261.177 209.206C260.713 213.168 260.156 217.119 259.607 221.071C259.241 223.698 258.876 226.325 258.549 228.957C258.118 232.433 258.714 236.916 253.898 236.57C250.944 236.357 248.255 234.108 245.792 232.656C243.087 231.062 240.567 229.137 238.154 227.136C236.077 225.416 234.067 223.614 232.123 221.744C231.084 220.744 229.054 219.317 228.459 217.983C227.43 215.683 229.511 210.408 229.867 207.927C230.754 201.728 230.736 195.565 229.859 189.366C229.811 189.025 229.643 188.809 229.423 188.697C222.156 179.862 215.54 169.89 211.264 159.24C206.623 147.679 206.85 134.371 211.324 122.769C215.992 110.66 225.968 100.689 238.478 96.9115C251.291 93.0426 265.863 97.6205 275.441 106.784C284.044 115.014 285.621 127.083 286.89 138.332C288.311 150.941 291.136 164.08 286.607 176.407Z" fill="white"/>
<path d="M287.422 142.704C287.234 141.242 287.051 139.783 286.888 138.332C285.619 127.083 284.041 115.014 275.438 106.784C265.861 97.6205 251.288 93.0426 238.476 96.9115C225.966 100.689 215.991 110.659 211.322 122.769C206.849 134.371 206.62 147.679 211.262 159.24C212.036 161.169 212.889 163.074 213.807 164.955L223.373 167.279C223.866 167.164 238.198 152.151 239.845 138.953C239.845 138.953 258.096 147.271 264.073 146.739C264.073 146.739 262.49 140.131 262.479 135.467C262.479 135.467 278.93 138.722 281.204 139.697C282.684 140.332 285.305 141.706 287.422 142.704Z" fill="#D3DEE3"/>
<path d="M265.083 199.294C260.112 200.331 252.821 200.723 245.183 197.223C245.183 197.223 244.69 211.63 260.717 212.836C260.873 211.626 261.036 210.418 261.177 209.206C261.45 206.869 261.555 204.301 262.615 202.152C263.199 200.967 264.067 200.056 265.083 199.294Z" fill="#D3DEE3"/>
<path d="M251.21 149.616C244.831 149.686 238.945 153.917 238.138 160.542C237.289 167.507 242.85 173.807 249.7 174.454C256.51 175.097 262.838 169.762 263.472 162.96C264.171 155.466 258.514 149.912 251.21 149.616ZM261.192 164.033C259.986 169.334 254.632 173.164 249.235 172.232C236.211 169.984 238.433 151.866 251.21 151.726C257.659 151.988 262.698 157.412 261.192 164.033Z" fill="black"/>
<path d="M286.109 148.099C286.029 148.083 285.943 148.075 285.85 148.078C285.757 148.076 285.672 148.085 285.592 148.101C272.282 148.888 270.028 171.388 284.006 172.874C298.219 174.385 301.041 148.796 286.109 148.099ZM283.589 170.634C272.704 168.325 275.161 150.585 285.85 150.188C298.74 150.527 295.195 173.096 283.589 170.634Z" fill="black"/>
<path d="M257.511 162.051C256.831 161.123 255.397 161.761 255.503 162.652C255.379 162.764 255.272 162.906 255.203 163.092C254.627 164.643 254.78 166.258 255.506 167.728C255.794 168.311 256.735 168.435 257.16 167.942C258.581 166.298 258.824 163.844 257.511 162.051Z" fill="black"/>
<path d="M287.636 159.744C286.956 158.816 285.523 159.454 285.628 160.346C285.504 160.457 285.398 160.599 285.329 160.785C284.753 162.337 284.907 163.951 285.632 165.422C285.92 166.005 286.86 166.128 287.286 165.635C288.707 163.992 288.95 161.538 287.636 159.744Z" fill="black"/>
<path d="M271.942 159.201C271.529 157.913 269.495 158.464 269.91 159.762C271.17 163.696 271.433 167.672 270.634 171.73C270.373 173.055 272.403 173.623 272.666 172.291C273.537 167.867 273.318 163.497 271.942 159.201Z" fill="black"/>
<path d="M270.69 179.555C270.528 179.309 270.251 179.147 269.85 179.18C266.041 179.505 262.696 177.884 260.523 174.738C260.373 174.52 260.181 174.388 259.977 174.321C259.543 174.089 259.005 174.139 258.731 174.69C258.62 174.823 258.547 174.982 258.527 175.155C256.858 179.078 254.938 185.786 260.459 187.466C265.295 188.937 269.298 184.572 270.867 180.516C271.024 180.11 270.919 179.778 270.69 179.555ZM261.745 185.568C257.663 185.059 258.747 180.394 259.909 177.31C262.085 179.695 264.961 181.16 268.199 181.321C266.895 183.721 264.627 185.927 261.745 185.568Z" fill="black"/>
<path d="M277.007 152.037C271.103 149.554 264.726 149.916 259.082 152.904C257.883 153.539 258.946 155.361 260.145 154.726C265.335 151.978 271.058 151.804 276.447 154.072C277.696 154.597 278.241 152.557 277.007 152.037Z" fill="black"/>
<path d="M238.09 159.32C231.273 163.463 224.458 167.607 217.642 171.75C216.484 172.453 217.541 174.278 218.705 173.572C225.521 169.429 232.337 165.286 239.153 161.142C240.31 160.438 239.253 158.613 238.09 159.32Z" fill="black"/>
<path d="M300.869 123.532C297.956 116.078 293.472 109.216 288.428 103.04C283.686 97.2347 278.127 91.5082 271.188 88.4158C262.27 84.4414 252.235 83.4539 242.62 84.8195C234.421 85.9842 223.27 88.7989 218.072 95.9071C216.189 98.4822 214.17 103.189 214.582 106.453C214.823 108.348 214.977 107.809 212.772 108.518C211.777 108.838 210.303 109.022 209.425 109.607C206.389 111.627 204.3 117.008 202.923 120.23C200.938 124.872 199.634 129.78 199.005 134.787C197.645 145.602 199.884 156.641 205.527 165.987C208.891 171.558 213.278 174.621 218.327 178.531C218.857 178.942 219.599 178.959 219.981 178.318C228.286 164.391 236.456 149.864 238.052 133.476C245.735 139.112 254.554 145.638 263.792 147.753C264.101 147.824 264.366 147.763 264.577 147.631C265.014 147.454 265.313 147.031 265.087 146.456C265.086 146.453 265.084 146.449 265.083 146.446C265.061 146.331 265.018 146.224 264.955 146.125C263.265 141.849 261.338 137.441 260.157 132.952C260.917 133.188 261.693 133.352 262.278 133.51C264.909 134.22 267.59 134.731 270.258 135.275C277.068 136.666 287.96 137.717 289.088 146.334C289.19 147.109 290.243 147.888 290.886 147.08C293.99 143.176 297.095 139.272 300.199 135.368C300.951 134.424 302.395 133.216 302.819 132.067C303.671 129.768 301.691 125.635 300.869 123.532Z" fill="black"/>
<path d="M300.908 131.116C300.717 131.964 299.27 133.174 298.711 133.878C297.394 135.533 296.079 137.187 294.763 138.842C293.393 140.564 292.025 142.285 290.656 144.007C288.794 138.459 283.25 136.054 277.557 134.661C274.692 133.961 271.779 133.447 268.89 132.854C267.144 132.496 260.429 131.959 259.493 130.309C258.879 129.225 257.346 129.985 257.567 131.121C258.502 135.907 260.483 140.612 262.32 145.176C253.465 142.51 244.992 135.945 237.707 130.625C237.011 130.117 236.168 130.818 236.122 131.536C235.065 147.928 226.982 162.42 218.758 176.248C216.296 174.408 213.702 172.631 211.458 170.567C205.692 165.267 202.455 155.784 201.244 148.262C199.882 139.788 201.061 130.92 204.097 122.924C205.273 119.826 207.597 113.439 210.422 111.488C211.752 110.571 214.222 110.266 215.78 109.766C216.239 109.618 216.535 109.229 216.554 108.749C216.699 105.055 217.265 101.126 219.256 97.9235C221.366 94.5281 225.215 92.381 228.78 90.8044C235.805 87.6976 243.752 86.2501 251.408 86.3447C265.563 86.5185 276.41 92.2755 285.461 102.771C289.407 107.348 292.91 112.353 295.797 117.668C297.236 120.317 298.536 123.059 299.506 125.917C299.951 127.228 301.144 130.062 300.908 131.116Z" fill="black"/>
<path d="M221.885 168.673C221.836 168.649 221.787 168.635 221.738 168.619C221.703 168.601 221.672 168.581 221.634 168.566C215.735 166.292 208.382 166.67 204.878 172.663C201.728 178.051 203.711 184.622 209.392 187.24C215.046 189.845 222.962 187.684 226.529 182.535C230.345 177.026 227.363 171.313 221.885 168.673Z" fill="black"/>
<path d="M227.59 180.608C224.021 184.611 213.463 187.722 208.961 184.535C204.585 181.439 204.418 175.434 208.256 171.751C211.652 168.493 222.458 170.146 226.529 171.677C231.107 173.931 231.551 176.164 227.59 180.608Z" fill="white"/>
<path d="M491.217 357.21H305.569C301.773 357.216 298.686 360.306 298.682 364.108V364.768C298.687 368.571 301.773 371.662 305.569 371.666H491.217C495.014 371.661 498.1 368.571 498.105 364.768V364.108C498.1 360.306 495.014 357.216 491.217 357.21Z" fill="black"/>
<path d="M495.577 364.768C495.577 365.969 495.09 367.054 494.295 367.851C493.499 368.646 492.415 369.134 491.218 369.134H305.569C304.371 369.134 303.287 368.646 302.492 367.851C301.698 367.054 301.211 365.968 301.21 364.768V364.108C301.21 362.908 301.698 361.823 302.492 361.026C303.288 360.231 304.372 359.742 305.569 359.742H491.218C492.416 359.742 493.5 360.231 494.295 361.026C495.089 361.823 495.577 362.909 495.577 364.108V364.768Z" fill="#D3DEE3"/>
<path d="M369.966 367.851C370.249 367.054 370.422 365.968 370.422 364.768V364.108C370.422 362.908 370.249 361.823 369.966 361.026C369.683 360.231 369.297 359.742 368.87 359.742H305.569C304.371 359.742 303.287 360.231 302.492 361.026C301.698 361.823 301.211 362.909 301.21 364.108V364.768C301.21 365.969 301.698 367.054 302.492 367.851C303.288 368.646 304.372 369.134 305.569 369.134H368.87C369.296 369.134 369.682 368.647 369.966 367.851Z" fill="white"/>
<path d="M535.033 269.841C533.704 268.541 531.811 267.814 529.655 267.818H408.788C406.089 267.824 403.406 268.901 401.16 270.586C398.917 272.278 397.088 274.596 396.207 277.246L370.942 353.532C370.594 354.583 370.422 355.617 370.421 356.608C370.416 358.606 371.141 360.439 372.474 361.734C373.803 363.034 375.696 363.762 377.852 363.757H498.719C501.417 363.751 504.1 362.674 506.346 360.989C508.59 359.298 510.417 356.979 511.3 354.33L536.564 278.043C536.912 276.992 537.084 275.958 537.084 274.968C537.091 272.969 536.366 271.137 535.033 269.841Z" fill="black"/>
<path d="M534.167 277.246L508.902 353.532C508.224 355.591 506.713 357.552 504.83 358.964C502.951 360.382 500.723 361.231 498.721 361.225H377.854C376.242 361.221 375.052 360.71 374.239 359.92C373.43 359.126 372.955 358.016 372.95 356.608C372.95 355.912 373.072 355.147 373.342 354.33L398.607 278.043C399.284 275.985 400.796 274.023 402.679 272.611C404.558 271.193 406.786 270.344 408.788 270.35H529.654C531.265 270.354 532.456 270.865 533.269 271.655C534.078 272.449 534.553 273.559 534.558 274.968C534.558 275.663 534.437 276.429 534.167 277.246Z" fill="white"/>
<path d="M504.829 358.964C506.711 357.552 508.224 355.591 508.901 353.532L534.165 277.246C534.367 276.636 534.486 276.056 534.533 275.511C534.347 275.164 534.116 274.851 533.839 274.581C533.043 273.817 531.877 273.324 530.298 273.319H411.896C409.934 273.313 407.752 274.135 405.911 275.506C404.067 276.872 402.585 278.769 401.921 280.76L377.171 354.554C376.907 355.343 376.788 356.085 376.788 356.757C376.793 358.12 377.258 359.193 378.05 359.962C378.847 360.726 380.013 361.219 381.591 361.224H498.719C498.721 361.224 498.724 361.224 498.726 361.224C500.727 361.228 502.952 360.38 504.829 358.964Z" fill="#BDEAFF"/>
<path d="M592.895 369.135H58.2455C54.4493 369.14 51.3635 372.23 51.3584 376.033V376.693C51.3635 380.495 54.4493 383.585 58.2455 383.591H592.894C596.69 383.585 599.777 380.495 599.781 376.693V376.033C599.777 372.23 596.691 369.14 592.895 369.135Z" fill="black"/>
<path d="M597.254 376.693C597.254 377.893 596.766 378.979 595.972 379.776C595.177 380.571 594.092 381.059 592.895 381.059H58.2458C57.0476 381.059 55.9639 380.571 55.1684 379.776C54.3746 378.979 53.8867 377.893 53.8867 376.693V376.033C53.8867 374.833 54.3746 373.748 55.1684 372.951C55.9639 372.156 57.0484 371.667 58.2458 371.667H592.894C594.093 371.667 595.176 372.155 595.972 372.951C596.765 373.748 597.253 374.834 597.253 376.033V376.693H597.254Z" fill="white"/>
<path d="M584.187 317.757C573.174 313.083 560.333 315.748 552.873 325.385C550.296 328.713 547.096 334.35 547.573 338.743C547.863 341.416 549.383 344.362 550.257 346.945C550.254 347.339 550.511 347.627 550.856 347.762C551.47 348.056 552.337 347.714 552.408 347.016C557.722 333.253 569.603 323.021 583.935 319.685C584.751 319.495 585.037 318.118 584.187 317.757Z" fill="black"/>
<path d="M551.465 343.86C551.054 342.604 550.642 341.349 550.231 340.093C549.077 336.573 550.809 332.774 552.561 329.637C558.07 319.772 569.637 315.571 580.15 318.537C567.435 322.484 556.996 331.731 551.465 343.86Z" fill="white"/>
<path d="M573.048 302.11C560.527 302.513 548.79 308.266 544.782 320.707C543.099 325.935 542.28 331.813 543.072 337.277C543.524 340.399 545.399 343.201 546.774 346.001C547.006 346.475 547.424 346.6 547.812 346.507C548.222 346.512 548.606 346.286 548.698 345.749C551.547 329.285 557.704 312.02 573.579 304.074C574.52 303.605 574.065 302.077 573.048 302.11Z" fill="black"/>
<path d="M547.2 342.323C546.495 341.033 545.808 339.723 545.383 338.392C543.946 333.909 545.041 327.888 546.172 323.496C547.583 318.014 549.997 313.266 554.683 309.933C558.797 307.007 563.525 305.344 568.439 304.626C555.878 313.001 550.081 327.735 547.2 342.323Z" fill="white"/>
<path d="M530.343 322.661C524.189 315.865 514.204 313.862 505.502 315.396C504.608 315.554 504.485 316.921 505.25 317.324C513.879 321.866 521.647 328.277 527.226 336.341C529.369 339.439 531.088 342.86 532.947 346.136C532.993 346.273 533.069 346.393 533.169 346.491C533.453 346.838 533.861 346.904 534.224 346.789C534.555 346.718 534.852 346.496 534.981 346.08C537.386 338.275 535.929 328.83 530.343 322.661Z" fill="black"/>
<path d="M509.103 317.06C516.274 316.569 523.972 318.692 528.854 324.153C533.322 329.152 534.795 336.431 533.577 342.956C531.686 339.566 529.804 336.172 527.429 333.093C522.403 326.581 516.158 321.204 509.103 317.06Z" fill="white"/>
<path d="M542.033 344.888C552.721 326.903 551.214 304.635 538.35 288.159C537.797 287.451 536.478 288.035 536.552 288.905C538.139 307.461 537.769 326.031 539.926 344.515C539.864 345.265 540.746 345.835 541.42 345.55C541.728 345.464 541.974 345.244 542.033 344.888Z" fill="black"/>
<path d="M541.67 341.185C540.036 325.008 540.126 308.768 538.944 292.535C548.687 307.088 549.679 325.612 541.67 341.185Z" fill="white"/>
<path d="M539.937 343.923C544.277 324.883 537.071 302.086 516.087 297.325C515.264 297.139 514.336 298.073 514.897 298.875C521.193 307.868 526.497 317.514 530.523 327.739C531.939 331.334 532.774 335.39 534.501 338.815C535.477 340.752 536.819 342.571 537.958 344.419C538.182 344.782 538.516 344.925 538.846 344.915C539.26 344.953 539.674 344.765 539.841 344.289C539.899 344.176 539.932 344.053 539.937 343.923Z" fill="black"/>
<path d="M531.446 324.446C527.881 315.913 523.458 307.805 518.306 300.142C535.226 305.702 541.273 324.553 538.348 341.146C537.618 340.037 536.896 338.916 536.321 337.75C534.28 333.607 533.243 328.746 531.446 324.446Z" fill="white"/>
<path d="M559.392 342.81C558.72 341.298 557.912 340.027 556.927 339.08C556.434 338.609 555.893 338.217 555.298 337.94C554.705 337.663 554.054 337.506 553.386 337.506H528.973C528.305 337.506 527.655 337.663 527.062 337.94C526.019 338.428 525.148 339.25 524.398 340.278C523.276 341.825 522.407 343.869 521.795 346.255C521.186 348.64 520.843 351.368 520.842 354.265V354.39L520.866 354.512C520.872 354.538 521.648 358.439 522.92 362.398C523.559 364.381 524.313 366.375 525.207 367.96C525.658 368.753 526.14 369.451 526.724 370.01C527.018 370.288 527.34 370.534 527.715 370.719C528.088 370.903 528.519 371.023 528.973 371.022H553.387C553.841 371.023 554.273 370.903 554.645 370.719C555.346 370.367 555.872 369.826 556.351 369.2C557.178 368.1 557.861 366.67 558.481 365.106C559.404 362.766 560.15 360.133 560.673 358.072C561.195 356.012 561.491 354.527 561.495 354.512L561.519 354.39V354.265C561.515 349.85 560.729 345.832 559.392 342.81Z" fill="black"/>
<path d="M556.801 362.331C556.208 364.091 555.514 365.786 554.814 366.953C554.467 367.536 554.117 367.981 553.84 368.225C553.703 368.349 553.588 368.421 553.513 368.456C553.436 368.49 553.405 368.491 553.387 368.492H528.973C528.955 368.491 528.92 368.49 528.832 368.448C528.67 368.375 528.356 368.117 528.025 367.673C527.436 366.9 526.797 365.622 526.23 364.177C525.373 362.005 524.644 359.449 524.138 357.449C523.884 356.449 523.686 355.587 523.55 354.977C523.482 354.672 523.431 354.43 523.397 354.266C523.386 354.214 523.38 354.185 523.372 354.149C523.383 350.09 524.136 346.405 525.278 343.837C525.85 342.541 526.523 341.536 527.18 340.909C527.508 340.595 527.828 340.374 528.126 340.237C528.424 340.099 528.696 340.039 528.973 340.038H553.387C553.664 340.039 553.936 340.099 554.235 340.237C554.754 340.475 555.348 340.98 555.92 341.769C556.78 342.946 557.568 344.727 558.117 346.882C558.661 349.008 558.979 351.5 558.987 354.152C558.985 354.163 558.984 354.168 558.981 354.18C558.81 355.004 557.992 358.805 556.801 362.331Z" fill="white"/>
<path d="M557.322 362.331C556.871 364.091 556.342 365.786 555.809 366.953C555.546 367.536 555.279 367.981 555.068 368.225C554.963 368.349 554.876 368.421 554.818 368.456C554.759 368.49 554.735 368.491 554.722 368.492H536.13C536.116 368.491 536.089 368.49 536.022 368.448C535.899 368.375 535.66 368.117 535.408 367.673C534.959 366.9 534.473 365.622 534.041 364.177C533.388 362.005 532.832 359.449 532.447 357.449C532.254 356.449 532.103 355.587 532 354.977C531.949 354.672 531.909 354.43 531.883 354.266C531.874 354.214 531.87 354.185 531.864 354.149C531.873 350.09 532.446 346.405 533.316 343.837C533.752 342.541 534.264 341.536 534.765 340.909C535.014 340.595 535.259 340.374 535.484 340.237C535.712 340.099 535.919 340.039 536.13 340.038H554.722C554.932 340.039 555.14 340.099 555.367 340.237C555.762 340.475 556.215 340.98 556.65 341.769C557.306 342.946 557.906 344.727 558.324 346.882C558.739 349.008 558.98 351.5 558.987 354.152C558.985 354.163 558.985 354.168 558.983 354.18C558.852 355.004 558.23 358.805 557.322 362.331Z" fill="#BDEAFF"/>
<path d="M556.966 335.016H525.394C520.171 335.021 515.917 339.28 515.913 344.511V347.086C515.918 352.317 520.171 356.577 525.394 356.582H556.967C562.19 356.576 566.444 352.317 566.448 347.086V344.511C566.443 339.28 562.19 335.021 556.966 335.016Z" fill="black"/>
<path d="M563.92 347.086C563.92 349 563.141 350.735 561.877 352.003C560.611 353.269 558.878 354.049 556.967 354.049H525.394C523.483 354.049 521.751 353.269 520.485 352.003C519.221 350.735 518.441 349 518.441 347.086V344.511C518.441 342.597 519.221 340.862 520.485 339.594C521.751 338.328 523.483 337.548 525.394 337.548H556.967C558.878 337.548 560.611 338.328 561.877 339.594C563.141 340.862 563.92 342.597 563.92 344.511V347.086Z" fill="white"/>
<path d="M563.92 347.086C563.92 349 563.345 350.735 562.414 352.003C561.481 353.269 560.204 354.049 558.796 354.049H535.526C534.117 354.049 532.84 353.269 531.907 352.003C530.975 350.735 530.401 349 530.401 347.086V344.511C530.401 342.597 530.976 340.862 531.907 339.594C532.84 338.328 534.118 337.548 535.526 337.548H558.796C560.205 337.548 561.481 338.328 562.414 339.594C563.346 340.862 563.92 342.597 563.92 344.511V347.086Z" fill="#BDEAFF"/>
<path d="M405.508 119.167C411.224 95.6678 396.838 71.9771 373.376 66.2523C349.914 60.5274 326.26 74.9364 320.545 98.4355C314.829 121.935 329.215 145.625 352.677 151.35C376.139 157.075 399.792 142.666 405.508 119.167Z" fill="#BDEAFF"/>
<path d="M328.472 126.241L313.811 140.291L337.231 136.801L328.472 126.241Z" fill="#BDEAFF"/>
<path d="M372.042 128.166C370.06 115.382 368.59 102.518 366.414 89.7655C366.338 89.3157 365.827 88.9907 365.399 88.9907C358.602 88.9907 351.805 88.9907 345.008 88.9907C344.395 88.9907 344.014 89.4769 343.955 90.0457C342.958 99.4521 341.974 108.871 340.699 118.244C340.159 122.212 339.278 126.307 339.075 130.315C338.964 132.503 339.479 133.639 341.567 134.452C344.71 135.676 349.122 135.713 352.424 135.893C356.349 136.106 360.28 135.974 364.166 135.369C368.782 134.652 372.888 133.626 372.042 128.166Z" fill="black"/>
<path d="M353.953 133.852C350.816 133.752 346.412 133.906 343.485 132.773C339.771 131.336 341.512 127.659 341.971 124.305C343.483 113.258 344.766 102.189 345.948 91.1017C351.794 91.1017 357.64 91.1017 363.486 91.1017C363.697 91.1017 364.165 91.0333 364.544 91.0308C364.547 91.2519 364.58 91.5481 364.662 91.9549C365.525 96.2585 366.02 100.668 366.622 105.014C367.717 112.925 368.788 120.835 370.011 128.728C370.934 134.687 357.815 133.975 353.953 133.852Z" fill="white"/>
<path d="M369.04 89.8591C369.127 86.543 368.87 83.3063 368.51 80.0122C368.445 79.4222 368.079 78.9884 367.457 78.9572C359.231 78.5436 350.929 78.2837 342.728 79.196C342.129 79.2627 341.719 79.6273 341.674 80.251C341.395 84.1571 341.2 88.0732 341.447 91.986C341.483 92.5658 341.9 93.0267 342.5 93.041C351.068 93.2419 359.466 93.6799 368.027 92.7979C368.584 92.7405 369.094 92.3607 369.08 91.7429C369.067 91.115 369.053 90.4871 369.04 89.8591Z" fill="black"/>
<path d="M343.516 90.9581C343.372 87.7087 343.501 84.4576 343.719 81.2132C351.282 80.4579 358.922 80.6537 366.504 81.0225C366.806 83.9689 367.011 86.8832 366.933 89.8592C366.94 90.1664 366.947 90.4728 366.953 90.78C359.104 91.4898 351.372 91.1581 343.516 90.9581Z" fill="#29ABE2"/>
<path d="M364.689 116.382L364.659 109.897L358.822 109.924V104.077H352.348V109.953L346.481 109.979L346.511 116.464L352.348 116.438V122.284H358.822V116.408L364.689 116.382Z" fill="#29ABE2"/>
<path d="M391.795 122.048C390.908 119.571 388.762 117.662 386.029 117.991C381.422 118.546 376.524 120.863 372.183 122.416C367.618 124.05 361.423 125.472 357.453 128.335C353.074 131.494 353.944 140.158 360.112 140.149C364.308 140.142 368.604 137.498 372.342 136.034C377.591 133.978 383.073 132.376 388.126 129.857C391.089 128.205 393.047 125.544 391.795 122.048Z" fill="black"/>
<path d="M369.113 135.033C366.829 135.974 364.641 137.139 362.212 137.66C361.61 137.789 360.752 138.072 360.13 138.014C356.824 137.712 355.618 133.586 357.941 130.868C359.875 128.606 364.277 127.649 366.991 126.595C368.135 126.151 369.284 125.723 370.434 125.298C371.72 127.891 372.704 130.581 373.415 133.385C371.968 133.91 370.53 134.45 369.113 135.033Z" fill="white" stroke="black" stroke-width="0.5" stroke-miterlimit="10"/>
<path d="M387.062 128.035C383.329 129.896 379.357 131.268 375.405 132.672C374.683 129.871 373.684 127.176 372.419 124.576C373.491 124.191 374.563 123.805 375.64 123.436C378.541 122.443 381.459 121.475 384.406 120.625C384.846 120.499 385.435 120.223 385.898 120.215C391.508 120.122 390.556 126.088 387.062 128.035Z" fill="#29ABE2"/>
<path d="M163.306 197.411C180.381 180.309 180.381 152.582 163.306 135.48C146.231 118.378 118.547 118.378 101.473 135.48C84.3976 152.582 84.3976 180.309 101.473 197.411C118.547 214.513 146.231 214.513 163.306 197.411Z" fill="#BDEAFF"/>
<path d="M173.271 164.89L193.306 173.476L169.992 180.971L173.271 164.89Z" fill="#BDEAFF"/>
<path d="M127.971 154.534C130.528 148.651 135.171 142.756 140.747 142.453C146.323 142.149 152.004 145.875 152.945 151.388C153.936 157.194 151.56 161.955 148.254 166.825C144.6 172.205 140.946 177.587 137.291 182.967C136.432 184.232 135.426 185.6 133.928 185.904C132.238 186.249 130.639 185.107 129.29 184.031C124.837 180.479 120.383 176.927 115.93 173.375C112.363 170.53 108.704 167.579 106.493 163.586C104.281 159.592 103.852 154.248 106.681 150.666C109.511 147.085 118.255 146.822 121.555 150.127L127.971 154.534Z" fill="#29ABE2"/>
<path d="M129.789 155.599C132.014 150.747 135.751 144.368 141.861 144.555C148.853 144.769 152.214 151.335 150.574 157.624C149.024 163.567 144.339 168.843 140.951 173.831C139.129 176.515 137.402 179.297 135.471 181.902C132.714 185.62 128.502 180.723 125.92 178.664C121.33 175.003 116.384 171.543 112.191 167.419C108.491 163.78 103.193 154.714 109.731 150.904C115.986 147.259 122.09 153.047 126.907 156.356C129.149 157.895 131.259 154.24 129.034 152.712C122.831 148.452 116.992 143.523 108.953 146.658C104.229 148.501 102.217 153.356 102.683 158.219C103.262 164.29 107.301 168.915 111.774 172.697C117.251 177.328 122.903 182.106 128.755 186.251C134.162 190.08 137.389 186.569 140.481 182.015C144.78 175.684 150.065 169.372 153.263 162.395C155.554 157.395 156.353 151.119 153.093 146.337C150.188 142.075 144.459 139.584 139.366 140.515C132.915 141.695 128.698 147.922 126.153 153.47C125.027 155.92 128.657 158.066 129.789 155.599Z" fill="#29ABE2"/>
<path d="M98.6865 181.541L118.107 181.417C118.107 181.417 118.66 169.509 120.88 170.399C123.1 171.29 123.84 189.103 126.061 190.885C128.281 192.667 127.271 168.257 130.501 164.493C133.732 160.729 132.722 194.499 134.942 196.477C137.163 198.456 135.955 173.96 138.779 172.402C141.603 170.844 139.952 180.973 143.652 181.664C147.352 182.355 147.229 180.811 149.45 180.821C152.373 180.835 168.91 180.459 165.678 180.396" stroke="white" stroke-width="3" stroke-miterlimit="10"/>
<path d="M457.932 202.171C463.606 178.662 449.179 154.997 425.707 149.313C402.236 143.629 378.608 158.079 372.933 181.588C367.258 205.097 381.686 228.762 405.157 234.446C428.629 240.13 452.257 225.679 457.932 202.171Z" fill="#BDEAFF"/>
<path d="M377.411 188.125C375.353 188.125 354.357 193.67 354.357 193.67L376.914 202.929L377.411 188.125Z" fill="#BDEAFF"/>
<path d="M433.965 157.434C431.817 161.144 429.67 164.854 427.522 168.564C422.917 167.158 418.082 173.813 416.244 176.923C411.365 185.173 406.502 193.426 402.067 201.926C400.082 201.49 398.084 201.126 396.105 200.665C394.885 200.381 394.359 201.897 395.293 202.594C397.314 204.099 399.395 205.489 401.526 206.792C400.102 209.59 398.557 212.312 396.861 214.954C394.864 214.339 391.014 213.752 390.573 216.104C390.071 218.778 395.048 221.743 396.818 222.739C398.857 223.886 403.947 226.52 406.353 225.101C408.517 223.825 406.143 220.61 404.678 219.125C405.994 216.288 407.513 213.578 409.196 210.938C411.424 211.995 413.697 212.966 416.028 213.832C416.847 214.135 417.766 213.008 417.218 212.282C415.966 210.626 414.724 208.962 413.475 207.305C417.674 199.192 422.463 191.406 426.65 183.289C428.21 180.266 432.886 172.822 429.356 169.604C431.499 165.903 433.641 162.202 435.784 158.5C436.466 157.322 434.646 156.258 433.965 157.434Z" fill="black"/>
<path d="M402.492 218.837C402.479 218.866 402.473 218.894 402.463 218.923C402.236 219.284 402.226 219.751 402.656 220.115C403.362 220.714 404.461 221.724 404.679 222.694C404.791 222.869 404.903 223.044 405.014 223.219C404.474 223.189 403.939 223.117 403.411 223.005C401.473 222.628 399.596 221.881 397.881 220.915C396.378 220.07 394.453 218.967 393.46 217.484C392.546 216.12 392.911 216.896 393.732 216.611C394.721 216.267 396.112 216.865 397.024 217.241C397.549 217.458 397.946 217.223 398.144 216.842C398.166 216.813 398.192 216.789 398.213 216.756C400.094 213.89 401.785 210.923 403.338 207.87C404.636 208.618 405.954 209.331 407.292 210.008C405.49 212.848 403.864 215.761 402.492 218.837Z" fill="white"/>
<path d="M425.532 180.848C424.151 183.59 422.681 186.288 421.186 188.969C417.877 194.901 414.458 200.764 411.357 206.809C411.092 207.097 411.009 207.511 411.326 207.931C411.959 208.769 412.59 209.609 413.22 210.449C408.836 208.594 404.664 206.371 400.684 203.778C401.236 203.894 401.789 204.014 402.339 204.142C402.393 204.155 402.444 204.158 402.494 204.163C402.878 204.245 403.29 204.118 403.528 203.658C406.6 197.733 409.87 191.921 413.239 186.161C414.97 183.202 416.697 180.237 418.467 177.302C419.35 175.836 420.138 174.332 421.43 173.157C422.842 171.874 427.71 168.672 428.401 173.13C428.77 175.492 426.529 178.87 425.532 180.848Z" fill="white"/>
</svg>
