<svg width="42" height="42" viewBox="0 0 42 42" fill="none" xmlns="http://www.w3.org/2000/svg">
<path d="M36.75 39.375H21C20.6519 39.375 20.3181 39.2367 20.0719 38.9906C19.8258 38.7444 19.6875 38.4106 19.6875 38.0625V3.9375C19.6875 3.5894 19.8258 3.25556 20.0719 3.00942C20.3181 2.76328 20.6519 2.625 21 2.625H36.75C37.0981 2.625 37.4319 2.76328 37.6781 3.00942C37.9242 3.25556 38.0625 3.5894 38.0625 3.9375V38.0625C38.0625 38.4106 37.9242 38.7444 37.6781 38.9906C37.4319 39.2367 37.0981 39.375 36.75 39.375ZM22.3125 36.75H35.4375V5.25H22.3125V36.75Z" fill="#013A68"/>
<path d="M31.5 39.375H26.25C25.9019 39.375 25.5681 39.2367 25.3219 38.9906C25.0758 38.7444 24.9375 38.4106 24.9375 38.0625V30.1875C24.9375 29.8394 25.0758 29.5056 25.3219 29.2594C25.5681 29.0133 25.9019 28.875 26.25 28.875H31.5C31.8481 28.875 32.1819 29.0133 32.4281 29.2594C32.6742 29.5056 32.8125 29.8394 32.8125 30.1875V38.0625C32.8125 38.4106 32.6742 38.7444 32.4281 38.9906C32.1819 39.2367 31.8481 39.375 31.5 39.375ZM27.5625 36.75H30.1875V31.5H27.5625V36.75Z" fill="#013A68"/>
<path d="M21 39.375H5.25C4.9019 39.375 4.56806 39.2367 4.32192 38.9906C4.07578 38.7444 3.9375 38.4106 3.9375 38.0625V17.0625C3.9375 16.7144 4.07578 16.3806 4.32192 16.1344C4.56806 15.8883 4.9019 15.75 5.25 15.75H21C21.3481 15.75 21.6819 15.8883 21.9281 16.1344C22.1742 16.3806 22.3125 16.7144 22.3125 17.0625V38.0625C22.3125 38.4106 22.1742 38.7444 21.9281 38.9906C21.6819 39.2367 21.3481 39.375 21 39.375ZM6.5625 36.75H19.6875V18.375H6.5625V36.75Z" fill="#013A68"/>
<path d="M31.5 13.125H26.25C25.9019 13.125 25.5681 12.9867 25.3219 12.7406C25.0758 12.4944 24.9375 12.1606 24.9375 11.8125C24.9375 11.4644 25.0758 11.1306 25.3219 10.8844C25.5681 10.6383 25.9019 10.5 26.25 10.5H31.5C31.8481 10.5 32.1819 10.6383 32.4281 10.8844C32.6742 11.1306 32.8125 11.4644 32.8125 11.8125C32.8125 12.1606 32.6742 12.4944 32.4281 12.7406C32.1819 12.9867 31.8481 13.125 31.5 13.125Z" fill="#29ABE2"/>
<path d="M28.875 15.75C28.5269 15.75 28.1931 15.6117 27.9469 15.3656C27.7008 15.1194 27.5625 14.7856 27.5625 14.4375V9.1875C27.5625 8.8394 27.7008 8.50556 27.9469 8.25942C28.1931 8.01328 28.5269 7.875 28.875 7.875C29.2231 7.875 29.5569 8.01328 29.8031 8.25942C30.0492 8.50556 30.1875 8.8394 30.1875 9.1875V14.4375C30.1875 14.7856 30.0492 15.1194 29.8031 15.3656C29.5569 15.6117 29.2231 15.75 28.875 15.75Z" fill="#29ABE2"/>
<path d="M10.5 26.25C10.1519 26.25 9.81806 26.1117 9.57192 25.8656C9.32578 25.6194 9.1875 25.2856 9.1875 24.9375V22.3125C9.1875 21.9644 9.32578 21.6306 9.57192 21.3844C9.81806 21.1383 10.1519 21 10.5 21C10.8481 21 11.1819 21.1383 11.4281 21.3844C11.6742 21.6306 11.8125 21.9644 11.8125 22.3125V24.9375C11.8125 25.2856 11.6742 25.6194 11.4281 25.8656C11.1819 26.1117 10.8481 26.25 10.5 26.25Z" fill="#013A68"/>
<path d="M10.5 34.125C10.1519 34.125 9.81806 33.9867 9.57192 33.7406C9.32578 33.4944 9.1875 33.1606 9.1875 32.8125V30.1875C9.1875 29.8394 9.32578 29.5056 9.57192 29.2594C9.81806 29.0133 10.1519 28.875 10.5 28.875C10.8481 28.875 11.1819 29.0133 11.4281 29.2594C11.6742 29.5056 11.8125 29.8394 11.8125 30.1875V32.8125C11.8125 33.1606 11.6742 33.4944 11.4281 33.7406C11.1819 33.9867 10.8481 34.125 10.5 34.125Z" fill="#013A68"/>
<path d="M15.75 26.25C15.4019 26.25 15.0681 26.1117 14.8219 25.8656C14.5758 25.6194 14.4375 25.2856 14.4375 24.9375V22.3125C14.4375 21.9644 14.5758 21.6306 14.8219 21.3844C15.0681 21.1383 15.4019 21 15.75 21C16.0981 21 16.4319 21.1383 16.6781 21.3844C16.9242 21.6306 17.0625 21.9644 17.0625 22.3125V24.9375C17.0625 25.2856 16.9242 25.6194 16.6781 25.8656C16.4319 26.1117 16.0981 26.25 15.75 26.25Z" fill="#013A68"/>
<path d="M15.75 34.125C15.4019 34.125 15.0681 33.9867 14.8219 33.7406C14.5758 33.4944 14.4375 33.1606 14.4375 32.8125V30.1875C14.4375 29.8394 14.5758 29.5056 14.8219 29.2594C15.0681 29.0133 15.4019 28.875 15.75 28.875C16.0981 28.875 16.4319 29.0133 16.6781 29.2594C16.9242 29.5056 17.0625 29.8394 17.0625 30.1875V32.8125C17.0625 33.1606 16.9242 33.4944 16.6781 33.7406C16.4319 33.9867 16.0981 34.125 15.75 34.125Z" fill="#013A68"/>
<path d="M31.5 26.25H26.25C25.9019 26.25 25.5681 26.1117 25.3219 25.8656C25.0758 25.6194 24.9375 25.2856 24.9375 24.9375C24.9375 24.5894 25.0758 24.2556 25.3219 24.0094C25.5681 23.7633 25.9019 23.625 26.25 23.625H31.5C31.8481 23.625 32.1819 23.7633 32.4281 24.0094C32.6742 24.2556 32.8125 24.5894 32.8125 24.9375C32.8125 25.2856 32.6742 25.6194 32.4281 25.8656C32.1819 26.1117 31.8481 26.25 31.5 26.25Z" fill="#013A68"/>
</svg>
