<svg width="25" height="24" viewBox="0 0 25 24" fill="none" xmlns="http://www.w3.org/2000/svg">
<path d="M12.5 22C12.2667 22 12.0667 21.9333 11.9 21.8C11.7333 21.6667 11.6083 21.4917 11.525 21.275C11.2083 20.3417 10.8083 19.4667 10.325 18.65C9.85833 17.8333 9.2 16.875 8.35 15.775C7.5 14.675 6.80833 13.625 6.275 12.625C5.75833 11.625 5.5 10.4167 5.5 9C5.5 7.05 6.175 5.4 7.525 4.05C8.89167 2.68333 10.55 2 12.5 2C14.45 2 16.1 2.68333 17.45 4.05C18.8167 5.4 19.5 7.05 19.5 9C19.5 10.5167 19.2083 11.7833 18.625 12.8C18.0583 13.8 17.4 14.7917 16.65 15.775C15.75 16.975 15.0667 17.975 14.6 18.775C14.15 19.5583 13.775 20.3917 13.475 21.275C13.3917 21.5083 13.2583 21.6917 13.075 21.825C12.9083 21.9417 12.7167 22 12.5 22ZM12.5 18.425C12.7833 17.8583 13.1 17.3 13.45 16.75C13.8167 16.2 14.35 15.4667 15.05 14.55C15.7667 13.6167 16.35 12.7583 16.8 11.975C17.2667 11.175 17.5 10.1833 17.5 9C17.5 7.61667 17.0083 6.44167 16.025 5.475C15.0583 4.49167 13.8833 4 12.5 4C11.1167 4 9.93333 4.49167 8.95 5.475C7.98333 6.44167 7.5 7.61667 7.5 9C7.5 10.1833 7.725 11.175 8.175 11.975C8.64167 12.7583 9.23333 13.6167 9.95 14.55C10.65 15.4667 11.175 16.2 11.525 16.75C11.8917 17.3 12.2167 17.8583 12.5 18.425ZM12.5 11.5C13.2 11.5 13.7917 11.2583 14.275 10.775C14.7583 10.2917 15 9.7 15 9C15 8.3 14.7583 7.70833 14.275 7.225C13.7917 6.74167 13.2 6.5 12.5 6.5C11.8 6.5 11.2083 6.74167 10.725 7.225C10.2417 7.70833 10 8.3 10 9C10 9.7 10.2417 10.2917 10.725 10.775C11.2083 11.2583 11.8 11.5 12.5 11.5Z" fill="#1D1B20"/>
</svg>
