<svg width="22" height="22" viewBox="0 0 22 22" fill="none" xmlns="http://www.w3.org/2000/svg">
<path d="M12.8333 7.33341V5.50008C12.8333 4.48756 12.0125 3.66675 11 3.66675H4.58333C3.57081 3.66675 2.75 4.48756 2.75 5.50008V16.5001C2.75 17.5126 3.57081 18.3334 4.58333 18.3334H11C12.0125 18.3334 12.8333 17.5126 12.8333 16.5001V14.6667" stroke="#2F2B3D" stroke-opacity="0.9" stroke-width="1.5" stroke-linecap="round" stroke-linejoin="round"/>
<path d="M6.4165 10.25C6.00229 10.25 5.6665 10.5858 5.6665 11C5.6665 11.4142 6.00229 11.75 6.4165 11.75V10.25ZM19.2498 11V11.75C19.5532 11.75 19.8267 11.5673 19.9427 11.287C20.0588 11.0068 19.9947 10.6842 19.7802 10.4697L19.2498 11ZM17.0302 7.71967C16.7373 7.42678 16.2624 7.42678 15.9695 7.71967C15.6766 8.01256 15.6766 8.48744 15.9695 8.78033L17.0302 7.71967ZM15.9695 13.2197C15.6766 13.5126 15.6766 13.9874 15.9695 14.2803C16.2624 14.5732 16.7373 14.5732 17.0302 14.2803L15.9695 13.2197ZM19.7802 11.5303C20.0731 11.2374 20.0731 10.7626 19.7802 10.4697C19.4873 10.1768 19.0124 10.1768 18.7195 10.4697L19.7802 11.5303ZM6.4165 11.75H19.2498V10.25H6.4165V11.75ZM19.7802 10.4697L17.0302 7.71967L15.9695 8.78033L18.7195 11.5303L19.7802 10.4697ZM17.0302 14.2803L19.7802 11.5303L18.7195 10.4697L15.9695 13.2197L17.0302 14.2803Z" fill="#242B37" fill-opacity="0.9"/>
</svg>
