<svg width="20" height="20" viewBox="0 0 20 20" fill="none" xmlns="http://www.w3.org/2000/svg">
<g clip-path="url(#clip0_238_18640)">
<path d="M10.0003 0C7.79093 0.00242633 5.67273 0.881179 4.11045 2.44346C2.54817 4.00573 1.66942 6.12394 1.66699 8.33333C1.66699 12.735 8.66699 18.7775 9.46199 19.4525L10.0003 19.9075L10.5387 19.4525C11.3337 18.7775 18.3337 12.735 18.3337 8.33333C18.3312 6.12394 17.4525 4.00573 15.8902 2.44346C14.3279 0.881179 12.2097 0.00242633 10.0003 0ZM10.0003 12.5C9.17624 12.5 8.37065 12.2556 7.68545 11.7978C7.00025 11.34 6.46619 10.6892 6.15083 9.92785C5.83546 9.16649 5.75295 8.32871 5.91372 7.52046C6.07449 6.7122 6.47133 5.96977 7.05405 5.38706C7.63677 4.80434 8.3792 4.4075 9.18745 4.24673C9.9957 4.08596 10.8335 4.16847 11.5948 4.48384C12.3562 4.7992 13.0069 5.33325 13.4648 6.01846C13.9226 6.70366 14.167 7.50924 14.167 8.33333C14.1657 9.438 13.7263 10.497 12.9451 11.2782C12.164 12.0593 11.105 12.4987 10.0003 12.5Z" fill="#242B37" fill-opacity="0.7"/>
<path d="M10 10.8334C11.3807 10.8334 12.5 9.71409 12.5 8.33337C12.5 6.95266 11.3807 5.83337 10 5.83337C8.61929 5.83337 7.5 6.95266 7.5 8.33337C7.5 9.71409 8.61929 10.8334 10 10.8334Z" fill="#242B37" fill-opacity="0.7"/>
</g>
<defs>
<clipPath id="clip0_238_18640">
<rect width="20" height="20" fill="white"/>
</clipPath>
</defs>
</svg>
