<svg width="64" height="64" viewBox="0 0 64 64" fill="none" xmlns="http://www.w3.org/2000/svg">
<g clip-path="url(#clip0_238_19845)">
<path d="M62.065 16.2325C60.3862 10.0475 53.9538 3.61625 47.7687 1.93625C43.9762 0.99 38.8962 0.01625 32 0C25.1038 0.0175 20.0238 0.99 16.2313 1.93625C10.0475 3.61625 3.615 10.0475 1.935 16.2325C0.99 20.0238 0.01625 25.105 0 32C0.0175 38.8962 0.99 43.9762 1.93625 47.7687C3.61625 53.9538 10.0475 60.385 16.2325 62.065C20.025 63.0112 25.105 63.9837 32.0013 64.0013C38.8963 63.9837 43.9775 63.0112 47.77 62.065C53.955 60.385 60.3862 53.9538 62.0662 47.7687C63.0125 43.9775 63.985 38.8962 64.0025 32C63.985 25.1038 63.0125 20.0238 62.0662 16.2313L62.065 16.2325Z" fill="#DFF8FF"/>
<path d="M22.4189 15.1388C19.4701 15.9413 16.8226 18.8226 16.2451 21.7976C15.8701 23.6738 15.4064 30.3176 15.4451 33.7788C15.4076 37.2401 15.8701 43.8838 16.2451 45.7601C16.8426 48.8388 19.6551 51.8151 22.7251 52.4951C24.5889 52.8826 28.5376 53.2626 31.9989 53.2688C35.4614 53.2626 39.4089 52.8826 41.2726 52.4951C44.3426 51.8151 47.1551 48.8388 47.7526 45.7601C48.1276 43.8838 48.5914 37.2401 48.5527 33.7788C48.5901 30.3176 48.1276 23.6738 47.7526 21.7976C47.1751 18.8213 44.5276 15.9413 41.5789 15.1388C41.4251 15.0951 41.2726 15.0626 41.2726 15.0626C39.4089 14.6751 35.4601 14.2951 31.9989 14.2888C28.5364 14.2951 24.5889 14.6751 22.7251 15.0626C22.7251 15.0626 22.5739 15.0938 22.4189 15.1388Z" fill="url(#paint0_linear_238_19845)"/>
<path d="M27.0688 30.3126V30.3038C27.1001 30.0126 27.2313 29.7388 27.4401 29.5326C27.6488 29.3263 27.9251 29.1951 28.2176 29.1651C28.4338 29.1426 29.5138 29.1263 30.1826 29.1151C30.1938 28.4338 30.2101 27.3588 30.2313 27.1563C30.2613 26.8651 30.3938 26.5913 30.6013 26.3851C30.8101 26.1788 31.0863 26.0476 31.3788 26.0176H31.3876C31.7451 25.9801 32.0513 25.9963 32.0513 25.9963C32.0513 25.9963 32.2463 25.9801 32.6051 26.0163H32.6138C32.9076 26.0476 33.1838 26.1776 33.3913 26.3851C33.6001 26.5913 33.7313 26.8663 33.7626 27.1563C33.7838 27.3588 33.8001 28.4351 33.8113 29.1176C34.5001 29.1288 35.5801 29.1451 35.7851 29.1663C36.0788 29.1963 36.3551 29.3276 36.5626 29.5338C36.7713 29.7401 36.9026 30.0138 36.9338 30.3051V30.3138C36.9726 30.6688 36.9551 30.9726 36.9551 30.9726C36.9551 30.9726 36.9713 31.1663 36.9338 31.5213V31.5301C36.9026 31.8213 36.7713 32.0951 36.5626 32.3013C36.3538 32.5076 36.0776 32.6388 35.7851 32.6688C35.5801 32.6901 34.5001 32.7063 33.8138 32.7176C33.8026 33.3813 33.7851 34.4563 33.7626 34.6701C33.7326 34.9613 33.6001 35.2351 33.3913 35.4413C33.1826 35.6476 32.9063 35.7788 32.6138 35.8088H32.6051C32.2476 35.8463 32.0513 35.8413 32.0513 35.8413C32.0513 35.8413 31.7451 35.8463 31.3876 35.8088H31.3788C31.0851 35.7776 30.8088 35.6476 30.6013 35.4401C30.3926 35.2338 30.2613 34.9588 30.2313 34.6688C30.2088 34.4551 30.1926 33.3813 30.1801 32.7176C29.5113 32.7063 28.4313 32.6901 28.2163 32.6676C27.9226 32.6376 27.6463 32.5063 27.4388 32.3001C27.2301 32.0938 27.0988 31.8201 27.0676 31.5288V31.5201C27.0288 31.1651 27.0338 30.9713 27.0338 30.9713C27.0338 30.9713 27.0288 30.6676 27.0663 30.3126H27.0688ZM36.5351 47.8363H27.4638C26.5926 47.8363 25.8851 47.1301 25.8851 46.2576C25.8851 45.3851 26.5913 44.6788 27.4638 44.6788H36.5351C37.4063 44.6788 38.1138 45.3851 38.1138 46.2576C38.1138 47.1301 37.4076 47.8363 36.5351 47.8363ZM40.4026 41.8801H23.5963C22.7251 41.8801 22.0176 41.1738 22.0176 40.3013C22.0176 39.4288 22.7238 38.7226 23.5963 38.7226H40.4026C41.2738 38.7226 41.9813 39.4288 41.9813 40.3013C41.9813 41.1738 41.2751 41.8801 40.4026 41.8801Z" fill="url(#paint1_linear_238_19845)"/>
<path d="M25.945 11.0237C24.8313 11.24 23.7538 12.2575 23.5075 13.3687C23.3675 14.0437 23.23 14.9612 23.2275 16.215C23.23 17.4687 23.3675 18.3862 23.5075 19.0612C23.7538 20.1725 24.8313 21.1912 25.945 21.4062C26.6238 21.5425 30.7563 21.71 32.0088 21.6962C33.2613 21.71 37.3938 21.5425 38.0725 21.4062C39.1863 21.19 40.2638 20.1725 40.51 19.0612C40.65 18.3862 40.7875 17.4687 40.79 16.215C40.7875 14.9612 40.65 14.0437 40.51 13.3687C40.2638 12.2575 39.1863 11.24 38.0725 11.0237C37.3938 10.8875 33.2613 10.72 32.0088 10.7337C30.7563 10.72 26.6238 10.8875 25.945 11.0237Z" fill="url(#paint2_linear_238_19845)"/>
</g>
<defs>
<linearGradient id="paint0_linear_238_19845" x1="46.8464" y1="48.6238" x2="17.1539" y2="18.9326" gradientUnits="userSpaceOnUse">
<stop stop-color="#1EB4EB"/>
<stop offset="0.54" stop-color="#1EB4EB"/>
<stop offset="1" stop-color="#92F4FE"/>
</linearGradient>
<linearGradient id="paint1_linear_238_19845" x1="39.0151" y1="46.0113" x2="24.9888" y2="31.9851" gradientUnits="userSpaceOnUse">
<stop stop-color="#BCE4ED"/>
<stop offset="0.57" stop-color="white"/>
<stop offset="1" stop-color="white"/>
</linearGradient>
<linearGradient id="paint2_linear_238_19845" x1="37.99" y1="22.1962" x2="26.0263" y2="10.2325" gradientUnits="userSpaceOnUse">
<stop stop-color="#34344F"/>
<stop offset="0.26" stop-color="#3B3B56"/>
<stop offset="0.66" stop-color="#4F4F6C"/>
<stop offset="1" stop-color="#666684"/>
</linearGradient>
<clipPath id="clip0_238_19845">
<rect width="64" height="64" fill="white"/>
</clipPath>
</defs>
</svg>
