<svg width="42" height="42" viewBox="0 0 42 42" fill="none" xmlns="http://www.w3.org/2000/svg">
<path d="M6.23438 42H35.7656C36.4452 42 36.9961 41.4491 36.9961 40.7695V3.69141C36.9961 3.01186 36.4452 2.46094 35.7656 2.46094H27.1523V1.23047C27.1523 0.550922 26.6014 0 25.9219 0H16.0781C15.3986 0 14.8477 0.550922 14.8477 1.23047V2.46094H6.23438C5.55483 2.46094 5.00391 3.01186 5.00391 3.69141V40.7695C5.00391 41.4491 5.55483 42 6.23438 42ZM17.3086 2.46094H24.6914V4.92188H17.3086V2.46094ZM7.46484 4.92188H14.8477V6.15234C14.8477 6.83189 15.3986 7.38281 16.0781 7.38281H25.9219C26.6014 7.38281 27.1523 6.83189 27.1523 6.15234V4.92188H34.5352V39.5391H7.46484V4.92188Z" fill="#013A68"/>
<path d="M28.3828 14.8477H24.6914V11.0742C24.6914 10.3947 24.1405 9.84375 23.4609 9.84375H18.5391C17.8595 9.84375 17.3086 10.3947 17.3086 11.0742V14.8477H13.6172C12.9376 14.8477 12.3867 15.3986 12.3867 16.0781V21C12.3867 21.6795 12.9376 22.2305 13.6172 22.2305H17.3086V26.0039C17.3086 26.6835 17.8595 27.2344 18.5391 27.2344H23.4609C24.1405 27.2344 24.6914 26.6835 24.6914 26.0039V22.2305H28.3828C29.0624 22.2305 29.6133 21.6795 29.6133 21V16.0781C29.6133 15.3986 29.0624 14.8477 28.3828 14.8477ZM27.1523 19.7695H23.4609C22.7814 19.7695 22.2305 20.3205 22.2305 21V24.7734H19.7695V21C19.7695 20.3205 19.2186 19.7695 18.5391 19.7695H14.8477V17.3086H18.5391C19.2186 17.3086 19.7695 16.7577 19.7695 16.0781V12.3047H22.2305V16.0781C22.2305 16.7577 22.7814 17.3086 23.4609 17.3086H27.1523V19.7695Z" fill="#013A68"/>
<path d="M28.3828 29.6953H18.5391C17.8595 29.6953 17.3086 30.2462 17.3086 30.9258C17.3086 31.6053 17.8595 32.1562 18.5391 32.1562H28.3828C29.0624 32.1562 29.6133 31.6053 29.6133 30.9258C29.6133 30.2462 29.0624 29.6953 28.3828 29.6953Z" fill="#29ABE2"/>
<path d="M13.6172 32.1562C14.2968 32.1562 14.8477 31.6054 14.8477 30.9258C14.8477 30.2462 14.2968 29.6953 13.6172 29.6953C12.9376 29.6953 12.3867 30.2462 12.3867 30.9258C12.3867 31.6054 12.9376 32.1562 13.6172 32.1562Z" fill="#29ABE2"/>
<path d="M28.3828 34.6172H18.5391C17.8595 34.6172 17.3086 35.1681 17.3086 35.8477C17.3086 36.5272 17.8595 37.0781 18.5391 37.0781H28.3828C29.0624 37.0781 29.6133 36.5272 29.6133 35.8477C29.6133 35.1681 29.0624 34.6172 28.3828 34.6172Z" fill="#29ABE2"/>
<path d="M13.6172 37.0781C14.2968 37.0781 14.8477 36.5272 14.8477 35.8477C14.8477 35.1681 14.2968 34.6172 13.6172 34.6172C12.9376 34.6172 12.3867 35.1681 12.3867 35.8477C12.3867 36.5272 12.9376 37.0781 13.6172 37.0781Z" fill="#29ABE2"/>
</svg>
