<svg width="63" height="62" viewBox="0 0 63 62" fill="none" xmlns="http://www.w3.org/2000/svg">
<g clip-path="url(#clip0_239_2685)">
<path d="M31.5005 43.0288C35.6962 43.0288 39.0976 39.6274 39.0976 35.4316C39.0976 35.3358 39.0939 35.2408 39.0904 35.1457C38.395 35.4621 37.6231 35.6397 36.8093 35.6397C33.7624 35.6397 31.2924 33.1696 31.2924 30.1226C31.2924 29.3088 31.4701 28.5371 31.7864 27.8416C31.6914 27.838 31.5964 27.8344 31.5005 27.8344C27.3047 27.8344 23.9033 31.2357 23.9033 35.4315C23.9033 39.6273 27.3047 43.0288 31.5005 43.0288Z" fill="#29ABE2"/>
<path d="M11.1014 17.3909C17.2619 13.7591 24.3159 11.8396 31.5005 11.8396C38.6851 11.8396 45.739 13.7591 51.8995 17.3909C54.4491 18.8939 56.8406 20.6867 59.0076 22.7195L61.6064 19.9492C59.2357 17.7253 56.6189 15.7635 53.8286 14.1186C47.0839 10.1426 39.363 8.04102 31.5005 8.04102C23.6379 8.04102 15.917 10.1426 9.17236 14.1186C6.38205 15.7635 3.76522 17.7252 1.39453 19.9492L3.99339 22.7195C6.16034 20.6867 8.5518 18.8939 11.1014 17.3909Z" fill="#013A68"/>
<path d="M61.9498 34.4805C58.9144 29.2333 54.5496 24.8325 49.3271 21.7538C43.9451 18.5811 37.7807 16.9042 31.5 16.9042C25.2193 16.9042 19.0549 18.5811 13.6729 21.7538C8.45041 24.8324 4.0856 29.2332 1.05016 34.4805L0.5 35.4316L1.05016 36.3826C4.0856 41.6298 8.45041 46.0306 13.6729 49.1093C19.0549 52.282 25.2193 53.959 31.5 53.959C37.7807 53.959 43.9451 52.282 49.3271 49.1093C54.5496 46.0307 58.9144 41.6299 61.9498 36.3826L62.5 35.4316L61.9498 34.4805ZM46.2287 35.4316C46.2287 43.553 39.6213 50.1603 31.5 50.1603C23.3787 50.1603 16.7713 43.553 16.7713 35.4316C16.7713 27.3101 23.3787 20.7029 31.5 20.7029C39.6213 20.7029 46.2287 27.3101 46.2287 35.4316ZM4.91115 35.4316C7.81592 30.7988 11.8511 27.0708 16.5338 24.524C14.2959 27.5861 12.9727 31.357 12.9727 35.4316C12.9727 39.5062 14.2959 43.277 16.5338 46.3392C11.8511 43.7923 7.81592 40.0643 4.91115 35.4316ZM46.4662 46.3392C48.7041 43.277 50.0273 39.5062 50.0273 35.4316C50.0273 31.357 48.7041 27.5861 46.4662 24.524C51.1489 27.0708 55.1841 30.7988 58.0889 35.4316C55.1841 40.0643 51.1489 43.7923 46.4662 46.3392Z" fill="#013A68"/>
</g>
<defs>
<clipPath id="clip0_239_2685">
<rect width="62" height="62" fill="white" transform="translate(0.5)"/>
</clipPath>
</defs>
</svg>
