<svg width="62" height="62" viewBox="0 0 62 62" fill="none" xmlns="http://www.w3.org/2000/svg">
<g clip-path="url(#clip0_239_3133)">
<path d="M52.0551 51.1924L40.8479 39.4693C46.5368 33.9753 50.4978 27.3127 50.4663 19.9454C50.4663 8.94762 41.5187 1.22583e-07 30.521 1.22583e-07C19.5111 -0.00121081 10.5563 8.96941 10.5756 19.978C10.4981 27.55 14.866 33.6737 20.7947 39.5262L9.83211 50.9127C9.37075 51.3922 9.20848 52.0861 9.40829 52.7206C9.6093 53.3551 10.1397 53.8298 10.7924 53.9569L16.1798 55.0129L16.9875 60.4488C17.105 61.3243 17.903 62.0109 18.7846 62C19.2593 62 19.7243 61.8135 20.0706 61.4672L31.0816 50.4561L41.3879 61.4078C41.7367 61.7784 42.2186 61.9794 42.7127 61.9794C43.5906 61.9903 44.3874 61.3098 44.5085 60.4367L45.3344 55.042L50.9943 54.2476C51.67 54.1531 52.2355 53.6881 52.4583 53.0439C52.6824 52.3997 52.5273 51.6852 52.0551 51.1924ZM20.0524 56.3437L19.5874 53.2086C19.4736 52.4481 18.8936 51.8402 18.1391 51.6925L14.7655 51.0313L23.2893 42.1757L28.5883 47.8078L20.0524 56.3437ZM43.4889 51.6307C42.6945 51.7421 42.0661 52.3621 41.945 53.1553L41.4788 56.1996L20.5235 33.9329C16.3348 29.4609 14.2109 24.7649 14.2109 19.978C14.1915 10.9735 21.5165 3.63402 30.521 3.63523C39.5146 3.63523 46.8311 10.9517 46.8311 19.9454C46.8408 26.4154 43.277 32.039 38.2746 36.9009L33.1293 31.9893C33.472 31.6454 33.862 31.2519 34.2749 30.828L30.5161 34.5856L46.9776 51.1415L43.4889 51.6307Z" fill="#013A68"/>
<path d="M39.053 14.6766C36.8297 12.3516 32.8445 12.3382 30.5268 14.4901C26.5464 10.8827 19.988 13.7974 20.0256 19.1958C20.0304 21.5971 20.9011 23.9378 22.4753 26.0533C24.4394 28.6907 29.0652 33.1349 29.265 33.3262L30.5159 34.5856L34.2747 30.828L34.34 30.7614C35.8029 29.2611 37.5442 27.4059 38.5662 26.0739C41.3005 22.5743 42.1106 17.8177 39.053 14.6766ZM35.6818 23.8615C34.4745 25.4345 32.0163 27.9569 30.5147 29.4609C29.0192 27.9739 26.5828 25.483 25.3912 23.8821C24.2457 22.3345 23.6693 20.8112 23.6596 19.1958C23.6983 16.2472 27.732 15.5073 28.8315 18.2319C29.1027 18.9318 29.776 19.3932 30.5268 19.3932C31.2776 19.3932 31.9509 18.9318 32.2209 18.2319C32.6181 17.2086 33.6256 16.522 34.7251 16.5245C36.4713 16.5668 37.3662 18.0296 37.3807 19.5579C37.3734 20.9565 36.8031 22.3999 35.6818 23.8615Z" fill="#29ABE2"/>
</g>
<defs>
<clipPath id="clip0_239_3133">
<rect width="62" height="62" fill="white"/>
</clipPath>
</defs>
</svg>
