<svg width="63" height="62" viewBox="0 0 63 62" fill="none" xmlns="http://www.w3.org/2000/svg">
<g clip-path="url(#clip0_239_2737)">
<path d="M33.0664 18.2754V22.0909C31.9085 22.3269 30.8309 22.7849 29.878 23.4167L27.1764 20.7151L24.6076 23.2838L27.3092 25.9856C26.6774 26.9384 26.2194 28.0161 25.9835 29.1738H22.0469V32.8066H25.9835C26.2194 33.9645 26.6775 35.042 27.3092 35.9949L24.6076 38.6966L27.1764 41.2654L29.878 38.5638C30.8309 39.1955 31.9085 39.6536 33.0664 39.8895V43.7051H36.6992V39.8894C37.8571 39.6534 38.9347 39.1954 39.8876 38.5637L42.5892 41.2653L45.158 38.6965L42.4564 35.9948C43.0882 35.0419 43.5462 33.9643 43.7821 32.8065H47.5977V29.1737H43.7821C43.5462 28.0158 43.0881 26.9383 42.4564 25.9854L45.158 23.2837L42.5892 20.7149L39.8876 23.4165C38.9347 22.7848 37.8571 22.3267 36.6992 22.0908V18.2754H33.0664ZM40.332 30.9902C40.332 33.9949 37.8875 36.4395 34.8828 36.4395C31.8781 36.4395 29.4336 33.9949 29.4336 30.9902C29.4336 27.9855 31.8781 25.541 34.8828 25.541C37.8875 25.541 40.332 27.9855 40.332 30.9902Z" fill="#29ABE2"/>
<path d="M35.8328 0.585445L34.8919 0.00976562L33.9468 0.57709C24.8394 6.04011 12.1788 7.35192 12.1659 7.35592L16.8885 14.6425H11.1484V22.3064L7.51562 23.2146V26.3399C7.51562 42.7662 18.5132 57.3131 34.3838 61.8477L34.8828 61.9903L35.3818 61.8477C51.2335 57.3186 62.25 42.7847 62.25 26.3399V7.37699H60.4336C47.1381 7.37699 36.0093 0.692613 35.8328 0.585445ZM58.6172 26.3399C58.6172 40.9398 48.8834 53.9695 34.8828 58.2078C20.8822 53.9694 11.1484 40.9398 11.1484 26.3399V26.051L12.4077 25.7361L17.1297 30.4582L19.6985 27.8894L14.7812 22.9723V18.2754H23.5724L18.2766 10.1047C26.332 8.5545 32.576 5.47013 34.8746 4.22371C37.8126 5.84515 47.1954 10.5111 58.6172 10.9729V26.3399Z" fill="#013A68"/>
<path d="M33.0664 29.1738H36.6992V32.8066H33.0664V29.1738Z" fill="#29ABE2"/>
<path d="M6.82188 1.92773H0.25V22.6606L11.5421 11.3684L6.82188 1.92773ZM3.88281 5.56055H4.57656L7.12195 10.6511L3.88281 13.8901V5.56055Z" fill="#013A68"/>
</g>
<defs>
<clipPath id="clip0_239_2737">
<rect width="62" height="62" fill="white" transform="translate(0.25)"/>
</clipPath>
</defs>
</svg>
