<svg width="63" height="62" viewBox="0 0 63 62" fill="none" xmlns="http://www.w3.org/2000/svg">
<path d="M31.7501 0C19.9804 0 10.4014 9.57694 10.4014 21.3487C10.4014 22.4895 11.3273 23.4154 12.4681 23.4154C13.6089 23.4154 14.5348 22.4895 14.5348 21.3487C14.5348 11.8565 22.2579 4.13341 31.7501 4.13341C41.2423 4.13341 48.9654 11.8565 48.9654 21.3487C48.9654 27.5549 46.5494 29.915 43.1932 33.1907C39.5393 36.7598 34.9926 41.199 34.9926 50.778C34.9926 54.6881 31.812 57.8667 27.9018 57.8667C23.9938 57.8667 20.8131 54.6881 20.8131 50.778C20.8131 49.6351 19.8872 48.7113 18.7464 48.7113C17.6056 48.7113 16.6797 49.6351 16.6797 50.778C16.6797 56.9656 21.7141 62 27.9017 62C34.0894 62 39.1258 56.9656 39.1258 50.778C39.1258 42.9412 42.6618 39.4878 46.0925 36.1357C49.5377 32.7732 53.0985 29.2991 53.0985 21.3487C53.0988 9.57694 43.5218 0 31.7501 0Z" fill="#013A68"/>
<path d="M32.7357 9.59521C26.0872 9.59521 20.6787 15.0058 20.6787 21.6542C20.6787 22.795 21.6046 23.7209 22.7454 23.7209C23.8862 23.7209 24.8121 22.795 24.8121 21.6542C24.8121 17.2832 28.3668 13.7285 32.7358 13.7285C37.1027 13.7285 40.6574 17.2832 40.6574 21.6542C40.6574 22.795 41.5812 23.7209 42.7241 23.7209C43.867 23.7209 44.7908 22.795 44.7908 21.6542C44.7905 15.0057 39.382 9.59521 32.7357 9.59521Z" fill="#013A68"/>
<path d="M24.8698 20.8713C24.8306 19.7304 23.886 18.8398 22.7349 18.8749C21.5941 18.9141 20.6992 19.869 20.7386 21.0098L20.9225 26.5071C20.9597 27.6251 21.8773 28.5055 22.9871 28.5055C23.0099 28.5055 23.0326 28.5055 23.0574 28.5034C24.1982 28.4642 25.0931 27.5094 25.0537 26.3686L24.8698 20.8713Z" fill="#013A68"/>
<path d="M32.7479 31.4609C32.1341 29.0573 30.6212 27.0402 28.4926 25.7797C26.7628 24.7505 24.7892 24.3206 22.7886 24.5273C21.654 24.6451 20.8295 25.664 20.9493 26.7985C21.0672 27.9332 22.0633 28.7454 23.2206 28.6378C24.3283 28.5241 25.4216 28.7618 26.3826 29.3342C27.5647 30.0328 28.4017 31.1509 28.7427 32.4839C29.0858 33.819 28.8853 35.2057 28.1826 36.3878C27.4799 37.5741 26.3598 38.4111 25.0268 38.7521C23.6938 39.091 22.3091 38.8927 21.1249 38.19C20.1432 37.6092 18.8743 37.9317 18.2936 38.9132C17.7129 39.8949 18.0353 41.1639 19.0169 41.7466C20.4698 42.6084 22.0921 43.0507 23.7392 43.0507C24.5101 43.0507 25.2851 42.9535 26.0476 42.7571C28.4512 42.1433 30.4703 40.6305 31.735 38.4998C33.0041 36.3651 33.3617 33.8664 32.7479 31.4609Z" fill="#29ABE2"/>
</svg>
