<svg width="63" height="62" viewBox="0 0 63 62" fill="none" xmlns="http://www.w3.org/2000/svg">
<path d="M25.0776 56.0325C24.8193 56.0325 24.5584 56.0015 24.3 55.9369C18.3687 54.4747 14.0623 46.7015 14.0623 37.4583C14.0674 34.3144 13.2124 31.4883 11.5849 29.1736C9.34252 25.9832 8.46161 22.0746 9.10227 18.1712C10.0736 12.2476 14.6874 7.41677 20.58 6.15352C24.3982 5.33461 28.2241 6.00369 31.5024 8.04194C34.7754 6.00627 38.6091 5.33977 42.4221 6.15352C48.325 7.41936 52.9389 12.2554 53.905 18.1918C54.5405 22.0953 53.6544 25.9961 51.4121 29.1813C49.7665 31.5167 48.896 34.3558 48.9011 37.3938C48.9011 46.7041 44.6128 54.4747 38.7021 55.9395C37.7566 56.1797 36.7672 55.9731 35.987 55.3841C35.2043 54.7951 34.7341 53.9012 34.6954 52.9247C34.3647 44.3894 32.5512 40.4576 31.3706 40.3878C30.4277 40.4524 28.6374 44.3894 28.3094 52.9247C28.2706 53.9012 27.8004 54.7977 27.0177 55.3841C26.4494 55.8129 25.7725 56.0351 25.0802 56.0351L25.0776 56.0325ZM23.7317 9.6901C22.9567 9.6901 22.1714 9.77277 21.3886 9.94327C17.1106 10.8604 13.6283 14.5054 12.923 18.7989C12.4477 21.6974 13.0961 24.5908 14.752 26.9468C16.8445 29.9202 17.945 33.5188 17.9347 37.3524C17.9347 44.2396 20.7479 50.3517 24.4705 51.925C24.9665 41.9353 27.2864 36.7557 31.3654 36.518C35.6848 36.7531 38.0227 41.9353 38.5239 51.9224C42.2206 50.3517 45.0184 44.2473 45.0184 37.4583C45.0158 33.5549 46.1266 29.9434 48.2372 26.9493C49.8931 24.6011 50.5467 21.7129 50.074 18.8144C49.3739 14.5106 45.889 10.8629 41.6032 9.94327C38.4386 9.25869 35.2637 9.97169 32.6649 11.9376C31.9725 12.4569 31.0193 12.4569 30.3295 11.9376C28.3739 10.4599 26.0903 9.6901 23.7317 9.6901Z" fill="#013A68"/>
<path d="M43.4889 25.5388C43.104 25.5388 42.7139 25.4251 42.3729 25.1849C41.4997 24.5701 41.2905 23.3585 41.9053 22.4853C42.3987 21.7826 42.577 20.9663 42.4297 20.057C42.2386 18.8893 41.1639 17.7733 39.9833 17.5227C39.725 17.4685 39.4796 17.4401 39.2471 17.4401C38.1776 17.4401 37.3096 16.5721 37.3096 15.5026C37.3096 14.4331 38.1776 13.5651 39.2471 13.5651C39.7508 13.5651 40.2701 13.6219 40.7945 13.733C43.5561 14.3246 45.801 16.6702 46.2531 19.4344C46.6457 21.8576 45.8294 23.6452 45.0725 24.7173C44.6953 25.2546 44.096 25.5388 43.4863 25.5388H43.4889Z" fill="#29ABE2"/>
</svg>
