<svg width="63" height="62" viewBox="0 0 63 62" fill="none" xmlns="http://www.w3.org/2000/svg">
<g clip-path="url(#clip0_239_3179)">
<path d="M26.0508 21.918C28.7936 21.918 31.2215 22.9509 31.5 23.0308C31.9141 22.9121 34.1277 21.918 36.9492 21.918C44.9608 21.918 51.4805 28.4364 51.4805 36.4492H55.1133C55.1133 26.4336 46.9649 18.2852 36.9492 18.2852C35.7455 18.2852 34.5431 18.4196 33.3164 18.6896V14.5312H35.1328C42.1429 14.5312 47.8477 8.82773 47.8477 1.81641V0H42.3984C38.0463 0 34.1992 2.19785 31.9057 5.54246C30.0323 2.2366 26.4807 0 22.418 0V3.63281C26.4238 3.63281 29.6836 6.89266 29.6836 10.8984V18.6896C28.4557 18.4196 27.2532 18.2852 26.0508 18.2852C16.0351 18.2852 7.88672 26.4336 7.88672 36.4492H11.5195C11.5195 28.4364 18.038 21.918 26.0508 21.918ZM42.3984 3.63281H44.032C43.188 7.77301 39.5188 10.8984 35.1328 10.8984H33.498C34.3421 6.75824 38.0124 3.63281 42.3984 3.63281ZM36.9492 58.3672C34.2028 58.3672 32.0716 56.5169 31.5 56.2093C30.9272 56.5169 28.796 58.3672 26.0508 58.3672C19.3664 58.3672 13.3904 48.1796 11.884 40.082H8.19551C9.67648 49.3348 16.712 62 26.0508 62C27.866 62 29.6945 61.4962 31.5 60.5009C33.3043 61.4962 35.1328 62 36.9492 62C46.2855 62 53.3211 49.3372 54.8045 40.082H51.1148C49.6084 48.1796 43.6324 58.3672 36.9492 58.3672Z" fill="#013A68"/>
<path d="M62.5 36.4492V40.0821H43.1504L37.9713 45.2612L34.7962 35.7348L27.5305 50.266L23.44 37.9956L21.3536 40.0821H0.5V36.4492H19.8484L25.0275 31.2701L28.2038 40.7965L35.4695 26.2653L39.5588 38.5357L41.6452 36.4492H62.5Z" fill="#29ABE2"/>
</g>
<defs>
<clipPath id="clip0_239_3179">
<rect width="62" height="62" fill="white" transform="translate(0.5)"/>
</clipPath>
</defs>
</svg>
