<svg width="63" height="62" viewBox="0 0 63 62" fill="none" xmlns="http://www.w3.org/2000/svg">
<g clip-path="url(#clip0_239_3194)">
<path d="M36.6313 8.82471C35.2732 7.81939 33.4508 7.26562 31.5 7.26562C29.5492 7.26562 27.7268 7.81939 26.3687 8.82483C24.5363 10.1814 22.5467 10.8984 20.6149 10.8984H18.7852V14.5312C24.7946 14.5312 29.6836 19.4203 29.6836 25.4297V34.5117H33.3164V25.4297C33.3164 19.4203 38.2054 14.5312 44.2148 14.5312V10.8984H42.3851C40.4533 10.8984 38.4637 10.1814 36.6313 8.82471ZM31.5 18.3997C30.2879 16.216 28.5282 14.3771 26.4095 13.0657C27.1334 12.6929 27.8427 12.2536 28.5302 11.7446C29.2566 11.2069 30.3391 10.8984 31.5 10.8984C32.6609 10.8984 33.7434 11.2069 34.4697 11.7445C35.1572 12.2535 35.8666 12.6929 36.5905 13.0657C34.4718 14.3771 32.7121 16.216 31.5 18.3997Z" fill="#29ABE2"/>
<path d="M57.0508 0C54.0461 0 51.6016 2.44452 51.6016 5.44922V9.08203C51.6016 9.51845 51.4163 9.92969 51.1195 10.2508C50.3449 7.64404 48.3383 5.28683 45.2785 3.45093C41.5696 1.22559 36.6763 0 31.5 0C26.3237 0 21.4304 1.22559 17.7215 3.45093C14.6617 5.28683 12.6551 7.64404 11.8805 10.2508C11.5837 9.92969 11.3984 9.51845 11.3984 9.08203V5.44922C11.3984 2.44452 8.95392 0 5.94922 0C2.94452 0 0.5 2.44452 0.5 5.44922V27.2461C0.5 34.2571 6.20388 39.9609 13.2148 39.9609C16.2195 39.9609 18.6641 37.5164 18.6641 34.5117C18.6641 31.507 16.2195 29.0625 13.2148 29.0625C10.2118 29.0625 7.76841 31.5044 7.76575 34.5069C5.56123 32.8483 4.13281 30.211 4.13281 27.2461V5.44922C4.13281 4.44765 4.94765 3.63281 5.94922 3.63281C6.95079 3.63281 7.76562 4.44765 7.76562 5.44922V9.08203C7.76562 10.5459 8.36431 11.9246 9.45137 12.9638C10.0884 13.5729 10.843 14.0156 11.6584 14.2725C12.2815 17.8774 14.9667 21.8349 18.8515 24.7295C21.306 26.5584 22.7033 29.4498 22.4983 32.2754C22.4451 33.0114 22.418 33.7638 22.418 34.5117C22.418 39.8493 23.7663 44.7232 26.0508 47.7398V62H36.9492V47.7398C39.2337 44.7232 40.582 39.8492 40.582 34.5117C40.582 33.7638 40.5549 33.0114 40.5016 32.2754C40.2966 29.4499 41.694 26.5584 44.1484 24.7295C48.0332 21.8348 50.7184 17.8773 51.3415 14.2725C52.1569 14.0156 52.9114 13.5728 53.5485 12.9638C54.6357 11.9246 55.2344 10.5459 55.2344 9.08203V5.44922C55.2344 4.44765 56.0492 3.63281 57.0508 3.63281C58.0523 3.63281 58.8672 4.44765 58.8672 5.44922V27.2461C58.8672 30.211 57.4388 32.8483 55.2343 34.5069C55.2316 31.5044 52.7882 29.0625 49.7852 29.0625C46.7805 29.0625 44.3359 31.507 44.3359 34.5117C44.3359 37.5164 46.7805 39.9609 49.7852 39.9609C56.7961 39.9609 62.5 34.2571 62.5 27.2461V5.44922C62.5 2.44452 60.0555 0 57.0508 0ZM11.3984 34.5117C11.3984 33.5102 12.2133 32.6953 13.2148 32.6953C14.2164 32.6953 15.0312 33.5102 15.0312 34.5117C15.0312 35.5133 14.2164 36.3281 13.2148 36.3281C12.2133 36.3281 11.3984 35.5133 11.3984 34.5117ZM41.9778 21.8166C38.4863 24.4182 36.58 28.4263 36.8783 32.5383C36.9254 33.1871 36.9492 33.851 36.9492 34.5117C36.9492 39.2662 35.7267 43.6342 33.7586 45.9111L33.3164 46.4227V58.3672H29.6836V46.4227L29.2414 45.9111C27.2733 43.6342 26.0508 39.2662 26.0508 34.5117C26.0508 33.851 26.0746 33.1871 26.1217 32.5383C26.42 28.4262 24.5136 24.4181 21.0222 21.8165C17.5112 19.2004 15.1523 15.5427 15.1523 12.7148C15.1523 7.7919 22.6386 3.63281 31.5 3.63281C40.3614 3.63281 47.8477 7.7919 47.8477 12.7148C47.8477 15.5427 45.4888 19.2004 41.9778 21.8166ZM47.9688 34.5117C47.9688 33.5102 48.7836 32.6953 49.7852 32.6953C50.7867 32.6953 51.6016 33.5102 51.6016 34.5117C51.6016 35.5133 50.7867 36.3281 49.7852 36.3281C48.7836 36.3281 47.9688 35.5133 47.9688 34.5117Z" fill="#013A68"/>
</g>
<defs>
<clipPath id="clip0_239_3194">
<rect width="62" height="62" fill="white" transform="translate(0.5)"/>
</clipPath>
</defs>
</svg>
