<svg width="63" height="62" viewBox="0 0 63 62" fill="none" xmlns="http://www.w3.org/2000/svg">
<g clip-path="url(#clip0_239_3796)">
<path d="M11.9655 20.6544C11.6216 20.6544 11.2724 20.5641 10.9554 20.376C10.013 19.8162 9.70241 18.5997 10.2612 17.6573C13.9739 11.401 13.9858 8.03105 10.3074 5.22635C9.43591 4.56118 9.26827 3.31679 9.93345 2.44529C10.5975 1.57379 11.8409 1.40508 12.7134 2.07026C20.5677 8.06007 15.7363 16.2034 13.6741 19.6818C13.3023 20.3062 12.6425 20.6544 11.9655 20.6544Z" fill="#013A68"/>
<path d="M23.0777 12.8722C22.9498 12.8722 22.8198 12.8593 22.6898 12.8335C21.6152 12.6207 20.9167 11.5762 21.1295 10.5016C21.4862 8.70701 20.5019 5.64226 17.9744 3.49629C17.1395 2.78705 17.0363 1.53515 17.7466 0.699109C18.4569 -0.133704 19.7078 -0.23794 20.5427 0.471295C23.8793 3.30501 25.7212 7.74632 25.0216 11.2732C24.8336 12.2177 24.0051 12.8722 23.0777 12.8722Z" fill="#013A68"/>
<path d="M43.4654 61.9995C42.3285 61.9995 41.1658 61.9565 39.9859 61.8694C28.8165 61.0463 19.1397 56.5158 13.4358 49.4428C9.09331 44.0569 7.10638 37.9242 7.53192 31.2154C7.6007 30.1204 8.56246 29.3177 9.63706 29.3596C10.731 29.4284 11.5606 30.3708 11.4918 31.4648C11.1265 37.2332 12.7727 42.2989 16.5252 46.9508C21.5425 53.1738 30.2016 57.1691 40.2792 57.9117C47.5994 58.4554 54.451 57.0542 57.3761 54.4289C58.2132 53.0663 59.2083 44.3739 56.5755 34.5274C54.8013 27.8939 50.8866 19.123 42.3134 15.0051C41.3259 14.5312 40.91 13.346 41.385 12.3584C41.8578 11.3687 43.0431 10.9518 44.0317 11.4289C56.612 17.4713 60.4655 31.5905 61.6433 39.4694C62.69 46.4683 62.5148 55.0919 60.1303 57.2884C56.8818 60.2822 50.6803 61.9995 43.4654 61.9995Z" fill="#013A68"/>
<path d="M26.5469 27.578C26.5061 27.578 26.4642 27.5769 26.4234 27.5748C25.3294 27.5071 24.4977 26.5668 24.5654 25.4729C25.3531 12.6336 32.8505 5.90016 45.649 6.53739C46.7429 6.59112 47.5865 7.52172 47.5328 8.61674C47.479 9.71068 46.5527 10.5682 45.4534 10.5005C34.8783 9.97718 29.1765 15.0998 28.5242 25.7168C28.4597 26.7678 27.5861 27.578 26.5469 27.578Z" fill="#013A68"/>
<path d="M20.8892 18.7018C20.7763 18.7018 20.6603 18.6911 20.5453 18.6717C19.4664 18.4826 18.7443 17.4542 18.9334 16.3753C20.3573 8.23848 27.8021 0.000610352 39.2723 0.000610352C40.3684 0.000610352 41.2571 0.888228 41.2571 1.98432C41.2571 3.08041 40.3684 3.96803 39.2723 3.96803C29.9899 3.96803 23.9797 10.5542 22.8396 17.0609C22.6719 18.0227 21.8338 18.7018 20.8892 18.7018Z" fill="#013A68"/>
<path d="M19.5336 24.6776C19.0607 24.6776 18.5868 24.51 18.2075 24.1693C13.9188 20.3126 6.67815 19.0371 2.86118 20.3126C1.8242 20.6597 0.699092 20.0966 0.353072 19.0564C0.00705145 18.0173 0.569066 16.8932 1.6082 16.5472C6.54061 14.9063 15.3061 16.2227 20.8607 21.2185C21.6752 21.9524 21.7419 23.2065 21.009 24.02C20.6178 24.4562 20.0762 24.6776 19.5336 24.6776Z" fill="#013A68"/>
<path d="M13.5825 29.84C13.1505 29.84 12.7153 29.7003 12.351 29.4113C9.9332 27.4931 5.63159 27.3663 2.81077 28.2238C1.75981 28.5387 0.65405 27.9498 0.335969 26.9021C0.0178878 25.8533 0.609991 24.7453 1.65772 24.4273C5.41774 23.286 11.1389 23.3871 14.8162 26.3035C15.6748 26.9848 15.8188 28.2324 15.1375 29.091C14.7463 29.5821 14.1671 29.84 13.5825 29.84Z" fill="#013A68"/>
<path d="M19.2929 61.373C19.2478 61.373 19.2037 61.3719 19.1586 61.3687C18.07 61.2957 17.2447 60.364 17.3103 59.2754C17.3189 59.1303 17.5542 55.6938 19.9398 52.7376C20.6286 51.8865 21.8784 51.7532 22.7295 52.441C23.5816 53.1298 23.7149 54.3785 23.0271 55.2317C21.4593 57.1735 21.2713 59.5064 21.2691 59.529C21.1939 60.5714 20.3235 61.373 19.2929 61.373Z" fill="#013A68"/>
<path d="M9.68791 60.4736C8.72077 58.9766 10.5992 53.5865 11.1902 52.2711C11.6394 51.2718 12.8161 50.829 13.8133 51.2761C14.8127 51.7253 15.2586 52.8998 14.8084 53.8992C13.4898 56.8307 13.3362 59.4634 13.3351 59.4892L11.3643 59.3839L11.3535 59.3947L9.68791 60.4736Z" fill="#013A68"/>
<path d="M41.5631 47.5472C41.3224 47.5472 41.0785 47.5032 40.8399 47.4097C39.8201 47.011 39.3161 45.8601 39.7159 44.8392C41.6254 39.9573 41.4986 34.9035 39.358 30.6094C37.7257 27.3351 35.0543 24.8367 32.386 24.0898C31.3308 23.7954 30.715 22.7004 31.0105 21.6451C31.3061 20.5909 32.4011 19.973 33.4563 20.2707C37.2271 21.3249 40.7604 24.5293 42.9096 28.8406C45.5574 34.1513 45.7347 40.3474 43.4114 46.2867C43.1051 47.069 42.3562 47.5472 41.5631 47.5472Z" fill="#29ABE2"/>
<path d="M49.9869 34.609C49.2099 34.609 48.4728 34.1491 48.1547 33.3872C46.8082 30.1581 43.8305 30.4074 41.5663 31.1864C40.5304 31.5464 39.401 30.9919 39.0442 29.9571C38.6875 28.9212 39.2377 27.7918 40.2747 27.435C45.5058 25.6329 49.9299 27.3286 51.8169 31.8602C52.2392 32.8714 51.76 34.032 50.7488 34.4543C50.5005 34.5596 50.2416 34.609 49.9869 34.609Z" fill="#29ABE2"/>
</g>
<defs>
<clipPath id="clip0_239_3796">
<rect width="62" height="62" fill="white" transform="translate(0.25)"/>
</clipPath>
</defs>
</svg>
