<svg width="62" height="62" viewBox="0 0 62 62" fill="none" xmlns="http://www.w3.org/2000/svg">
<g clip-path="url(#clip0_239_2656)">
<path d="M58.0575 20.3341C56.1747 17.7382 52.5521 14.2582 50.7439 12.7103C40.7086 4.56085 29.5276 4.18337 17.8497 9.60812C11.5215 10.6206 7.07862 13.8152 4.63616 19.1093C-0.787854 25.3885 -1.88263 31.8857 3.6651 38.2777C6.42642 43.2398 11.027 44.0649 16.3237 41.7215C18.4916 45.7097 22.4693 47.9281 29.3194 46.4383C31.0402 48.618 34.1587 48.9109 36.0695 48.9367L41.8699 55.3711C42.2397 55.7813 42.7661 56.0155 43.3184 56.0155H47.4039C48.6619 56.0155 49.5939 54.8388 49.3007 53.6118L48.7712 51.3975C58.5493 49.3419 63.7691 40.5752 59.4365 35.4867C63.4378 30.653 62.5858 24.7965 58.0575 20.3341ZM55.3002 34.1641C54.319 35.036 54.461 36.6175 55.5951 37.2956C59.7676 39.79 54.5971 47.0321 46.193 47.8519C45.0148 47.9669 44.211 49.0971 44.4856 50.2465L44.9323 52.115H44.1859L38.3835 45.6785C38.0135 45.268 37.4871 45.0341 36.935 45.0341C35.3714 45.0341 32.6435 45.0482 32.1445 43.5665C31.8145 42.586 30.7764 42.0346 29.7789 42.3084C25.6889 43.4336 21.8225 43.6317 19.7792 39.9164C22.8645 37.8606 24.1817 34.7633 23.074 31.88C22.6877 30.8745 21.5598 30.3723 20.5541 30.7589C19.5487 31.1451 19.0468 32.2733 19.433 33.2786C20.0809 34.9651 18.0356 36.4685 16.764 37.1654C16.4828 37.3195 12.23 39.7752 9.83908 38.915C8.73005 38.5159 7.28522 36.5517 6.73223 35.8598C4.16959 32.9711 3.13271 29.9714 4.5378 26.4076C5.88573 29.8138 8.94383 31.8527 12.4738 31.8527C13.5507 31.8527 14.4239 30.9796 14.4239 29.9025C14.4239 28.8254 13.5507 27.9523 12.4738 27.9523C8.68142 27.9523 6.97965 23.9552 8.10465 20.9055C9.99217 16.6855 13.4156 14.2442 18.5645 13.4451C20.406 13.4913 20.8873 14.4149 21.5992 15.4359C22.2114 16.3153 23.4259 16.5405 24.3139 15.9221C25.1978 15.3067 25.4155 14.0913 24.8001 13.2075C24.4771 12.7437 24.1133 12.1548 23.4963 11.5298C28.1951 9.92734 32.6208 9.49428 36.8008 10.2383C34.1743 12.8974 33.0643 16.5028 33.573 20.8651C33.6887 21.8582 34.5315 22.5895 35.5076 22.5895C36.679 22.5895 37.582 21.5699 37.4471 20.4133C36.969 16.3145 38.2236 13.4814 41.3845 11.5641C43.5223 12.4323 45.5929 13.6383 47.6007 15.1813C47.3674 16.408 46.7325 17.2348 45.6124 17.8028C44.6518 18.2899 44.268 19.4635 44.7551 20.4241C45.2446 21.3896 46.4203 21.7664 47.3763 21.2816C48.9164 20.5006 50.0535 19.3685 50.7587 17.9367C52.2225 19.3717 53.6518 20.9988 55.0485 22.8193C55.4303 23.317 58.1677 25.5451 58.0954 28.8892C58.0551 30.7507 57.0884 32.5746 55.3002 34.1641Z" fill="#013A68"/>
<path d="M43.712 33.8911C45.2196 29.8271 44.6147 25.2592 40.8516 23.2625C39.8999 22.7575 38.7196 23.1197 38.2149 24.0712C37.71 25.0226 38.0722 26.2031 39.0236 26.7079C40.8732 27.6893 40.796 30.2575 40.1421 32.2781C35.8835 31.0295 32.1076 32.197 30.4007 35.3493C29.8878 36.2965 30.2399 37.4799 31.1871 37.9928C32.1343 38.5052 33.3177 38.1536 33.8305 37.2064C35.9381 33.3132 45.1935 37.6487 44.51 41.49C44.2979 42.6811 45.2124 43.7823 46.4323 43.7823C47.3596 43.7823 48.1818 43.1184 48.35 42.1736C48.9459 38.8251 46.7337 35.7992 43.712 33.8911Z" fill="#29ABE2"/>
<path d="M32.3008 27.9228C33.2814 27.4774 33.7153 26.3213 33.27 25.3408C32.8248 24.3601 31.6688 23.9261 30.688 24.3714C29.8717 24.7422 28.8755 23.9854 28.1677 22.9404C29.1554 21.5586 29.4655 19.9394 28.9594 18.3433C28.6339 17.3166 27.5379 16.7486 26.511 17.0738C25.4844 17.3995 24.916 18.4956 25.2416 19.5222C25.6309 20.7498 23.6912 21.7693 23.4689 21.8814C21.7804 22.733 20.001 22.655 19.5381 22.0164C18.906 21.1443 17.6866 20.95 16.8145 21.5818C15.9424 22.2141 15.748 23.4333 16.3801 24.3054C18.2887 26.9386 22.2131 26.8442 25.1364 25.4072C26.9087 27.8281 29.6383 29.1315 32.3008 27.9228Z" fill="#013A68"/>
<path d="M52.3622 26.5861L49.2763 27.1865C48.219 27.3922 47.5287 28.4159 47.7346 29.4732C47.9408 30.5336 48.9674 31.2203 50.0212 31.0149L53.1071 30.4145C54.1644 30.2087 54.8547 29.185 54.6489 28.1278C54.4431 27.0706 53.4189 26.38 52.3622 26.5861Z" fill="#29ABE2"/>
</g>
<defs>
<clipPath id="clip0_239_2656">
<rect width="62" height="62" fill="white"/>
</clipPath>
</defs>
</svg>
