<svg width="63" height="62" viewBox="0 0 63 62" fill="none" xmlns="http://www.w3.org/2000/svg">
<g clip-path="url(#clip0_239_3185)">
<path d="M16.8929 26.1014C18.0219 26.5906 19.2138 26.8117 20.4358 26.7587C21.3693 26.7164 22.2511 27.101 22.8597 27.8093C23.657 28.7371 24.6335 29.4557 25.7624 29.945C26.7925 30.3914 27.8761 30.6146 28.9607 30.6144C30.0216 30.6144 31.0831 30.4007 32.0949 29.9731C34.1419 29.1078 35.7044 27.4832 36.494 25.3983C37.5676 22.5642 36.9208 19.3653 34.9432 17.1554L41.9929 2.63452C42.266 2.07204 42.2305 1.4088 41.8993 0.878656C41.568 0.348387 40.9872 0.0259141 40.362 0.0248242L25.9228 0C25.9217 0 25.9207 0 25.9197 0C25.2024 0 24.552 0.422254 24.2603 1.07786L20.0019 10.6467C17.0093 10.6882 14.2004 12.4122 12.8598 15.1601C11.8827 17.163 11.769 19.4145 12.5395 21.4998C13.3096 23.5845 14.8559 25.2185 16.8929 26.1014ZM16.1247 16.7531C16.9775 15.0048 18.9159 14.013 20.8383 14.34C21.6563 14.4788 22.4652 14.0464 22.8028 13.288L27.0986 3.63487L37.4602 3.65255L31.0897 16.7745C30.7115 17.5536 30.9359 18.4915 31.626 19.0149C33.1817 20.195 33.7865 22.2908 33.0967 24.1113C32.6621 25.2586 31.8041 26.152 30.6805 26.6267C29.558 27.1014 28.3243 27.0957 27.207 26.6116C26.5867 26.3426 26.051 25.9489 25.615 25.4414C24.34 23.9577 22.5162 23.1227 20.5736 23.1227C20.4754 23.1227 20.3768 23.1249 20.2782 23.1291C19.61 23.1593 18.9576 23.0366 18.3376 22.768C17.2193 22.2834 16.3704 21.3859 15.9472 20.2407C15.5235 19.0945 15.5866 17.8559 16.1247 16.7531Z" fill="#013A68"/>
<path d="M38.3018 40.113C38.1075 37.8916 37.0445 35.903 35.3089 34.5138C33.5749 33.1258 31.408 32.5231 29.2083 32.8195C27.9891 32.9834 26.8541 33.4092 25.8346 34.0855C25.0573 34.6013 24.1035 34.7292 23.2177 34.4368C22.056 34.0533 20.8486 33.9417 19.6298 34.1057C17.4299 34.401 15.4986 35.5529 14.1914 37.3491C12.8828 39.1468 12.381 41.345 12.7781 43.539C13.3219 46.5438 15.5522 48.9644 18.4152 49.8211L19.859 60.4287C19.9817 61.3291 20.7505 62.0001 21.6587 62.0001H21.6634H35.5503C36.1004 61.9987 36.6201 61.7482 36.9638 61.3188C37.3074 60.8896 37.4381 60.3276 37.3192 59.7906L34.6233 47.5921C37.0955 45.996 38.5641 43.1123 38.3018 40.113ZM31.8853 44.9335C31.0526 45.26 30.5814 46.1443 30.775 47.0177L33.284 58.373L23.2442 58.3632L21.8417 48.0587C21.729 47.2309 21.0662 46.5867 20.2354 46.4976C18.2959 46.2898 16.6994 44.807 16.3526 42.892C16.1341 41.6837 16.4095 40.4745 17.1285 39.4867C17.8462 38.5004 18.9063 37.8682 20.1132 37.706C20.3132 37.6792 20.5128 37.6658 20.711 37.6658C21.1757 37.6658 21.6337 37.7395 22.0785 37.8864C24.0299 38.5308 26.1307 38.2484 27.843 37.1126C28.4003 36.7429 29.0223 36.5099 29.692 36.4198C30.8987 36.2573 32.0872 36.5881 33.0389 37.3498C33.992 38.1128 34.5759 39.2065 34.6828 40.4296C34.8525 42.3691 33.7021 44.2211 31.8853 44.9335Z" fill="#013A68"/>
<path d="M49.6495 29.1836H46.8936C45.8904 29.1836 45.0771 29.9969 45.0771 31C45.0771 32.0031 45.8904 32.8164 46.8936 32.8164H49.6495C50.6527 32.8164 51.4659 32.0031 51.4659 31C51.4659 29.9969 50.6527 29.1836 49.6495 29.1836Z" fill="#29ABE2"/>
<path d="M44.9485 36.0069C44.239 35.2974 43.0889 35.2976 42.3796 36.0069C41.6704 36.7161 41.6703 37.8662 42.3796 38.5756L44.3284 40.5245C44.6831 40.8793 45.148 41.0566 45.6127 41.0566C46.0776 41.0566 46.5425 40.8792 46.8972 40.5245C47.6064 39.8153 47.6065 38.6653 46.8972 37.9558L44.9485 36.0069Z" fill="#29ABE2"/>
<path d="M42.3797 25.9932C42.7344 26.348 43.1992 26.5252 43.6641 26.5252C44.129 26.5252 44.5939 26.3478 44.9486 25.9932L46.8972 24.0443C47.6066 23.3349 47.6065 22.1849 46.8972 21.4755C46.188 20.766 45.0378 20.7663 44.3284 21.4755L42.3797 23.4244C41.6703 24.1339 41.6703 25.2839 42.3797 25.9932Z" fill="#29ABE2"/>
</g>
<defs>
<clipPath id="clip0_239_3185">
<rect width="62" height="62" fill="white" transform="translate(0.75)"/>
</clipPath>
</defs>
</svg>
