<svg width="49" height="49" viewBox="0 0 49 49" fill="none" xmlns="http://www.w3.org/2000/svg">
<path d="M12.5 8.5H10.5C8.29086 8.5 6.5 10.2909 6.5 12.5V19.5V19.5C6.5 25.5751 11.4249 30.5 17.5 30.5C23.5751 30.5 28.5 25.5751 28.5 19.5V12.5C28.5 10.2909 26.7091 8.5 24.5 8.5H22.5" stroke="#242B37" stroke-opacity="0.9" stroke-width="2.5" stroke-linecap="round" stroke-linejoin="round"/>
<path d="M16.5 30.5C16.5 34.7872 18.7872 38.7487 22.5 40.8923C26.2128 43.0359 30.7872 43.0359 34.5 40.8923C38.2128 38.7487 40.5 34.7872 40.5 30.5V24.5" stroke="#242B37" stroke-opacity="0.9" stroke-width="2.5" stroke-linecap="round" stroke-linejoin="round"/>
<path d="M22.5 6.5V10.5" stroke="#242B37" stroke-opacity="0.9" stroke-width="2.5" stroke-linecap="round" stroke-linejoin="round"/>
<path d="M12.5 6.5V10.5" stroke="#242B37" stroke-opacity="0.9" stroke-width="2.5" stroke-linecap="round" stroke-linejoin="round"/>
<circle cx="40.5" cy="20.5" r="4" stroke="#242B37" stroke-opacity="0.9" stroke-width="2.5" stroke-linecap="round" stroke-linejoin="round"/>
</svg>
