<svg width="32" height="32" viewBox="0 0 32 32" fill="none" xmlns="http://www.w3.org/2000/svg">
<path d="M16 16V28M16 16L12.6667 18.6667M16 16L19.3333 18.6667M6.71199 12.156C5.45094 12.4733 4.34916 13.2402 3.61366 14.3126C2.87816 15.385 2.55957 16.689 2.71773 17.9797C2.8759 19.2704 3.49994 20.459 4.47261 21.322C5.44528 22.1851 6.69963 22.6632 7.99999 22.6667H9.33332" stroke="#5D6B82" stroke-width="2" stroke-linecap="round" stroke-linejoin="round"/>
<path d="M21.1067 9.51728C20.651 7.71271 19.5261 6.14894 17.9602 5.14296C16.3942 4.13698 14.5044 3.76407 12.6737 4.09982C10.843 4.43557 9.20846 5.45486 8.10143 6.95107C6.99439 8.44727 6.49769 10.3084 6.71201 12.1573C6.71201 12.1573 6.91601 13.3333 7.33334 13.9999" stroke="#5D6B82" stroke-width="2" stroke-linecap="round" stroke-linejoin="round"/>
<path d="M22.6666 22.6666C23.608 22.6659 24.5386 22.4659 25.3971 22.0797C26.2556 21.6935 27.0226 21.1299 27.6476 20.4259C28.2726 19.7219 28.7414 18.8935 29.0232 17.9953C29.3049 17.0971 29.3933 16.1493 29.2823 15.2145C29.1714 14.2797 28.8638 13.3789 28.3797 12.5716C27.8956 11.7642 27.246 11.0685 26.4736 10.5303C25.7013 9.99208 24.8237 9.62354 23.8986 9.44893C22.9736 9.27432 22.022 9.29761 21.1066 9.51725L19.3333 9.99992" stroke="#5D6B82" stroke-width="2" stroke-linecap="round" stroke-linejoin="round"/>
</svg>
