<svg width="16" height="16" viewBox="0 0 16 16" fill="none" xmlns="http://www.w3.org/2000/svg">
<g clip-path="url(#clip0_238_18049)">
<path fill-rule="evenodd" clip-rule="evenodd" d="M13.6421 2.32533C12.1448 0.826667 10.1541 0.000666667 8.03342 0C3.66342 0 0.106753 3.556 0.104753 7.928C0.104086 9.32533 0.469419 10.6893 1.16342 11.892L0.0380859 16L4.24075 14.8973C5.39875 15.5293 6.70275 15.862 8.02942 15.8627H8.03275C12.4021 15.8627 15.9594 12.306 15.9614 7.934C15.9628 5.816 15.1388 3.82333 13.6421 2.32533ZM8.03342 14.5233H8.03075C6.84808 14.5233 5.68875 14.2053 4.67675 13.6047L4.43609 13.462L1.94209 14.116L2.60809 11.684L2.45142 11.4347C1.79142 10.3853 1.44342 9.17267 1.44409 7.928C1.44542 4.29467 4.40209 1.33867 8.03675 1.33867C9.79675 1.33867 11.4514 2.02533 12.6954 3.27067C13.9394 4.51667 14.6241 6.172 14.6234 7.93267C14.6214 11.5673 11.6654 14.5233 8.03342 14.5233ZM11.6481 9.588C11.4501 9.48867 10.4761 9.00933 10.2941 8.94333C10.1128 8.87733 9.98075 8.844 9.84808 9.042C9.71542 9.24 9.33675 9.68667 9.22075 9.81933C9.10542 9.95133 8.98942 9.968 8.79142 9.86867C8.59342 9.76933 7.95475 9.56067 7.19808 8.88533C6.60942 8.36 6.21142 7.71133 6.09609 7.51267C5.98075 7.314 6.08408 7.20733 6.18275 7.10867C6.27209 7.02 6.38075 6.87733 6.48008 6.76133C6.58008 6.64667 6.61275 6.564 6.67942 6.43133C6.74542 6.29933 6.71275 6.18333 6.66275 6.084C6.61275 5.98533 6.21675 5.01 6.05208 4.61333C5.89142 4.22667 5.72809 4.27933 5.60609 4.27333C5.49075 4.26733 5.35875 4.26667 5.22609 4.26667C5.09409 4.26667 4.87942 4.316 4.69809 4.51467C4.51675 4.71333 4.00475 5.19267 4.00475 6.16733C4.00475 7.14267 4.71475 8.08467 4.81342 8.21667C4.91209 8.34867 6.21008 10.35 8.19742 11.208C8.67008 11.412 9.03942 11.534 9.32675 11.6253C9.80142 11.776 10.2334 11.7547 10.5748 11.704C10.9554 11.6473 11.7468 11.2247 11.9121 10.762C12.0774 10.2993 12.0774 9.902 12.0274 9.82C11.9781 9.73667 11.8461 9.68733 11.6481 9.588Z" fill="white"/>
</g>
<defs>
<clipPath id="clip0_238_18049">
<rect width="16" height="16" fill="white"/>
</clipPath>
</defs>
</svg>
