<svg width="16" height="16" viewBox="0 0 16 16" fill="none" xmlns="http://www.w3.org/2000/svg">
<g clip-path="url(#clip0_238_18053)">
<path d="M15.6653 4.12401C15.4813 3.43135 14.9393 2.88535 14.2507 2.70001C13.0033 2.36401 8 2.36401 8 2.36401C8 2.36401 2.99667 2.36401 1.74867 2.70001C1.06067 2.88535 0.518667 3.43068 0.334667 4.12401C0 5.38001 0 8.00001 0 8.00001C0 8.00001 0 10.62 0.334667 11.876C0.518667 12.5687 1.06067 13.1147 1.74933 13.3C2.99667 13.636 8 13.636 8 13.636C8 13.636 13.0033 13.636 14.2513 13.3C14.9393 13.1147 15.4813 12.5693 15.666 11.876C16 10.62 16 8.00001 16 8.00001C16 8.00001 16 5.38001 15.6653 4.12401ZM6.364 10.3793V5.62068L10.5453 8.00001L6.364 10.3793Z" fill="white"/>
</g>
<defs>
<clipPath id="clip0_238_18053">
<rect width="16" height="16" fill="white"/>
</clipPath>
</defs>
</svg>
